SourceSerif-Italic_2.ufo
<glyph name="ampersand" format="1">
	<unicode hex="0026"/>
	<advance width="739"/>
	<outline>
		<contour>
			<point x="335" y="-13" type="curve" smooth="yes"/>
			<point x="486" y="-13"/>
			<point x="569" y="65"/>
			<point x="569" y="185" type="curve" smooth="yes"/>
			<point x="569" y="239"/>
			<point x="521" y="277"/>
			<point x="439" y="297" type="curve"/>
			<point x="412" y="291"/>
			<point x="400" y="273"/>
			<point x="400" y="245" type="curve" smooth="yes"/>
			<point x="400" y="204"/>
			<point x="468" y="157"/>
			<point x="509" y="157" type="curve" smooth="yes"/>
			<point x="676" y="157"/>
			<point x="772" y="370"/>
			<point x="772" y="437" type="curve" smooth="yes"/>
			<point x="772" y="513"/>
			<point x="752" y="520"/>
			<point x="753" y="531" type="curve"/>
			<point x="734" y="544"/>
			<point x="718" y="547"/>
			<point x="704" y="547" type="curve" smooth="yes"/>
			<point x="669" y="547"/>
			<point x="627" y="518"/>
			<point x="627" y="449" type="curve" smooth="yes"/>
			<point x="627" y="433"/>
			<point x="653" y="383"/>
			<point x="691" y="322" type="curve"/>
			<point x="692" y="439" type="line"/>
			<point x="701" y="319"/>
			<point x="624" y="230"/>
			<point x="518" y="219" type="curve"/>
			<point x="501" y="214"/>
			<point x="500" y="222"/>
			<point x="500" y="212" type="curve" smooth="yes"/>
			<point x="500" y="192"/>
			<point x="468" y="100"/>
			<point x="367" y="100" type="curve" smooth="yes"/>
			<point x="322" y="100"/>
			<point x="225" y="138"/>
			<point x="225" y="252" type="curve" smooth="yes"/>
			<point x="225" y="341"/>
			<point x="241" y="379"/>
			<point x="352" y="468" type="curve"/>
			<point x="350" y="501"/>
			<point x="353" y="500"/>
			<point x="353" y="555" type="curve" smooth="yes"/>
			<point x="353" y="608"/>
			<point x="403" y="620"/>
			<point x="450" y="620" type="curve" smooth="yes"/>
			<point x="402" y="620"/>
			<point x="459" y="627"/>
			<point x="425" y="643" type="curve"/>
			<point x="257" y="640" type="line"/>
			<point x="317" y="597" type="line" smooth="yes"/>
			<point x="349" y="571"/>
			<point x="395" y="542"/>
			<point x="430" y="542" type="curve" smooth="yes"/>
			<point x="466" y="542"/>
			<point x="522" y="562"/>
			<point x="529" y="617" type="curve"/>
			<point x="529" y="643"/>
			<point x="491" y="676"/>
			<point x="419" y="676" type="curve" smooth="yes"/>
			<point x="267" y="676"/>
			<point x="245" y="593"/>
			<point x="245" y="569" type="curve" smooth="yes"/>
			<point x="245" y="431"/>
			<point x="331" y="399"/>
			<point x="418" y="371" type="curve"/>
			<point x="451" y="380"/>
			<point x="475" y="396"/>
			<point x="475" y="433" type="curve" smooth="yes"/>
			<point x="475" y="483"/>
			<point x="450" y="500"/>
			<point x="361" y="500" type="curve" smooth="yes"/>
			<point x="247" y="500"/>
			<point x="89" y="369"/>
			<point x="89" y="221" type="curve" smooth="yes"/>
			<point x="89" y="78"/>
			<point x="189" y="-13"/>
		</contour>
	</outline>
</glyph>
<glyph name="quotesingle" format="1">
	<unicode hex="0027"/>
	<advance width="288"/>
	<outline>
		<contour>
			<point x="250" y="721" type="curve" smooth="yes"/>
			<point x="208" y="721"/>
			<point x="177" y="696"/>
			<point x="167" y="637" type="curve" smooth="yes"/>
			<point x="160" y="588"/>
			<point x="161" y="526"/>
			<point x="164" y="464" type="curve" smooth="yes"/>
			<point x="167" y="380" type="line"/>
			<point x="218" y="380" type="line"/>
			<point x="278" y="521"/>
			<point x="315" y="597"/>
			<point x="315" y="649" type="curve" smooth="yes"/>
			<point x="315" y="693"/>
			<point x="292" y="721"/>
		</contour>
	</outline>
</glyph>
<glyph name="asterisk" format="1">
	<unicode hex="002A"/>
	<advance width="450"/>
	<outline>
		<contour>
			<point x="277" y="731" type="curve" smooth="yes"/>
			<point x="238" y="731"/>
			<point x="226" y="702"/>
			<point x="226" y="676" type="curve" smooth="yes"/>
			<point x="226" y="656"/>
			<point x="244" y="616"/>
			<point x="278" y="556" type="curve"/>
			<point x="219" y="588"/>
			<point x="184" y="607"/>
			<point x="157" y="607" type="curve" smooth="yes"/>
			<point x="128" y="607"/>
			<point x="104" y="586"/>
			<point x="104" y="554" type="curve" smooth="yes"/>
			<point x="104" y="497"/>
			<point x="172" y="488"/>
			<point x="272" y="515" type="curve"/>
			<point x="213" y="458"/>
			<point x="184" y="427"/>
			<point x="184" y="396" type="curve" smooth="yes"/>
			<point x="184" y="369"/>
			<point x="209" y="347"/>
			<point x="237" y="347" type="curve" smooth="yes"/>
			<point x="277" y="347"/>
			<point x="301" y="395"/>
			<point x="309" y="497" type="curve"/>
			<point x="349" y="416"/>
			<point x="374" y="376"/>
			<point x="412" y="376" type="curve" smooth="yes"/>
			<point x="445" y="376"/>
			<point x="463" y="406"/>
			<point x="463" y="428" type="curve" smooth="yes"/>
			<point x="463" y="463"/>
			<point x="429" y="489"/>
			<point x="339" y="526" type="curve"/>
			<point x="441" y="538"/>
			<point x="488" y="565"/>
			<point x="488" y="600" type="curve" smooth="yes"/>
			<point x="488" y="634"/>
			<point x="466" y="655"/>
			<point x="434" y="655" type="curve" smooth="yes"/>
			<point x="411" y="655"/>
			<point x="375" y="628"/>
			<point x="320" y="563" type="curve"/>
			<point x="329" y="622"/>
			<point x="336" y="660"/>
			<point x="332" y="682" type="curve" smooth="yes"/>
			<point x="327" y="712"/>
			<point x="309" y="731"/>
		</contour>
	</outline>
</glyph>
<glyph name="plus" format="1">
	<unicode hex="002B"/>
	<advance width="550"/>
	<outline>
		<contour>
			<point x="241" y="70" type="line"/>
			<point x="345" y="70" type="line"/>
			<point x="345" y="565" type="line"/>
			<point x="241" y="565" type="line"/>
		</contour>
		<contour>
			<point x="538" y="270" type="line"/>
			<point x="538" y="370" type="line"/>
			<point x="48" y="370" type="line"/>
			<point x="48" y="270" type="line"/>
		</contour>
	</outline>
</glyph>
<glyph name="comma" format="1">
	<unicode hex="002C"/>
	<advance width="310"/>
	<outline>
		<contour>
			<point x="-20" y="-170" type="line"/>
			<point x="113" y="-141"/>
			<point x="234" y="-41"/>
			<point x="234" y="91" type="curve" smooth="yes"/>
			<point x="234" y="110"/>
			<point x="233" y="123"/>
			<point x="229" y="140" type="curve"/>
			<point x="207" y="165"/>
			<point x="181" y="177"/>
			<point x="145" y="177" type="curve" smooth="yes"/>
			<point x="86" y="177"/>
			<point x="43" y="130"/>
			<point x="43" y="84" type="curve" smooth="yes"/>
			<point x="43" y="47"/>
			<point x="52" y="21"/>
			<point x="80" y="-8" type="curve" smooth="yes"/>
			<point x="127" y="-57" type="line"/>
			<point x="136" y="12" type="line"/>
			<point x="93" y="-51"/>
			<point x="51" y="-90"/>
			<point x="-34" y="-125" type="curve"/>
		</contour>
	</outline>
</glyph>
<glyph name="hyphen" format="1">
	<unicode hex="002D"/>
	<advance width="358"/>
	<outline>
		<contour>
			<point x="48" y="205" type="line"/>
			<point x="318" y="205" type="line"/>
			<point x="318" y="305" type="line"/>
			<point x="48" y="305" type="line"/>
		</contour>
	</outline>
</glyph>
<glyph name="less" format="2">
	<unicode hex="003C"/>
	<advance width="550"/>
	<outline>
		<contour>
			<point x="62" y="281" type="line"/>
			<point x="468" y="80" type="line"/>
			<point x="514" y="174" type="line"/>
			<point x="114" y="359" type="line"/>
			<point x="114" y="283" type="line"/>
			<point x="514" y="468" type="line"/>
			<point x="468" y="562" type="line"/>
			<point x="62" y="361" type="line"/>
		</contour>
	</outline>
</glyph>
<glyph name="question" format="1">
	<unicode hex="003F"/>
	<advance width="463"/>
	<outline>
		<contour>
			<point x="36" y="58" type="curve" smooth="yes"/>
			<point x="36" y="19"/>
			<point x="67" y="-16"/>
			<point x="113" y="-16" type="curve" smooth="yes"/>
			<point x="161" y="-16"/>
			<point x="204" y="23"/>
			<point x="204" y="73" type="curve" smooth="yes"/>
			<point x="204" y="114"/>
			<point x="172" y="148"/>
			<point x="127" y="148" type="curve" smooth="yes"/>
			<point x="80" y="148"/>
			<point x="36" y="108"/>
		</contour>
		<contour>
			<point x="98" y="198" type="curve"/>
			<point x="148" y="192" type="line"/>
			<point x="153" y="219"/>
			<point x="159" y="226"/>
			<point x="173" y="239" type="curve" smooth="yes"/>
			<point x="203" y="265"/>
			<point x="261" y="286"/>
			<point x="384" y="339" type="curve" smooth="yes"/>
			<point x="465" y="374"/>
			<point x="503" y="438"/>
			<point x="503" y="517" type="curve" smooth="yes"/>
			<point x="503" y="612"/>
			<point x="431" y="672"/>
			<point x="327" y="672" type="curve" smooth="yes"/>
			<point x="222" y="672"/>
			<point x="162" y="630"/>
			<point x="150" y="574" type="curve"/>
			<point x="150" y="539"/>
			<point x="174" y="514"/>
			<point x="214" y="514" type="curve" smooth="yes"/>
			<point x="243" y="514"/>
			<point x="275" y="533"/>
			<point x="294" y="585" type="curve" smooth="yes"/>
			<point x="316" y="646" type="line"/>
			<point x="252" y="625" type="line"/>
			<point x="325" y="625" type="line" smooth="yes"/>
			<point x="378" y="625"/>
			<point x="394" y="598"/>
			<point x="394" y="574" type="curve" smooth="yes"/>
			<point x="394" y="539"/>
			<point x="365" y="522"/>
			<point x="259" y="477" type="curve" smooth="yes"/>
			<point x="186" y="445"/>
			<point x="146" y="420"/>
			<point x="123" y="385" type="curve" smooth="yes"/>
			<point x="87" y="331"/>
			<point x="93" y="284"/>
		</contour>
	</outline>
</glyph>
<glyph name="at" format="2">
	<unicode hex="0040"/>
	<advance width="856"/>
	<outline>
		<contour>
			<point x="314" y="37" type="curve" smooth="yes"/>
			<point x="375" y="37"/>
			<point x="443" y="87"/>
			<point x="493" y="136" type="curve"/>
			<point x="489" y="183" type="line"/>
			<point x="468" y="161"/>
			<point x="443" y="141"/>
			<point x="418" y="141" type="curve" smooth="yes"/>
			<point x="388" y="141"/>
			<point x="370" y="163"/>
			<point x="370" y="220" type="curve" smooth="yes"/>
			<point x="370" y="326"/>
			<point x="424" y="434"/>
			<point x="487" y="434" type="curve" smooth="yes"/>
			<point x="508" y="434"/>
			<point x="530" y="427"/>
			<point x="550" y="413" type="curve"/>
			<point x="622" y="466" type="line"/>
			<point x="596" y="491"/>
			<point x="564" y="503"/>
			<point x="530" y="503" type="curve" smooth="yes"/>
			<point x="391" y="503"/>
			<point x="217" y="332"/>
			<point x="217" y="161" type="curve" smooth="yes"/>
			<point x="217" y="71"/>
			<point x="263" y="37"/>
		</contour>
		<contour>
			<point x="582" y="37" type="curve" smooth="yes"/>
			<point x="706" y="37"/>
			<point x="851" y="176"/>
			<point x="851" y="367" type="curve" smooth="yes"/>
			<point x="851" y="523"/>
			<point x="749" y="652"/>
			<point x="545" y="652" type="curve" smooth="yes"/>
			<point x="226" y="652"/>
			<point x="50" y="400"/>
			<point x="50" y="158" type="curve" smooth="yes"/>
			<point x="50" y="-14"/>
			<point x="162" y="-152"/>
			<point x="372" y="-152" type="curve" smooth="yes"/>
			<point x="451" y="-152"/>
			<point x="515" y="-132"/>
			<point x="576" y="-108" type="curve"/>
			<point x="564" y="-56" type="line"/>
			<point x="507" y="-72"/>
			<point x="457" y="-79"/>
			<point x="406" y="-79" type="curve" smooth="yes"/>
			<point x="238" y="-79"/>
			<point x="136" y="15"/>
			<point x="136" y="175" type="curve" smooth="yes"/>
			<point x="136" y="392"/>
			<point x="284" y="597"/>
			<point x="535" y="597" type="curve" smooth="yes"/>
			<point x="694" y="597"/>
			<point x="776" y="512"/>
			<point x="776" y="365" type="curve" smooth="yes"/>
			<point x="776" y="223"/>
			<point x="696" y="127"/>
			<point x="650" y="127" type="curve" smooth="yes"/>
			<point x="622" y="127"/>
			<point x="617" y="145"/>
			<point x="625" y="178" type="curve" smooth="yes"/>
			<point x="696" y="490" type="line"/>
			<point x="682" y="503" type="line"/>
			<point x="531" y="441" type="line"/>
			<point x="468" y="156" type="line" smooth="yes"/>
			<point x="454" y="93"/>
			<point x="493" y="37"/>
		</contour>
	</outline>
</glyph>
<glyph name="E" format="2">
	<unicode hex="0045"/>
	<advance width="587"/>
	<outline>
		<contour>
			<point x="-9" y="0" type="line"/>
			<point x="153" y="0" type="line"/>
			<point x="167" y="74" type="line"/>
			<point x="150" y="74" type="line"/>
			<point x="3" y="59" type="line"/>
		</contour>
		<contour>
			<point x="66" y="0" type="line"/>
			<point x="245" y="0" type="line"/>
			<point x="262" y="103"/>
			<point x="281" y="207"/>
			<point x="301" y="311" type="curve" smooth="yes"/>
			<point x="366" y="652" type="line"/>
			<point x="186" y="652" type="line"/>
			<point x="169" y="549"/>
			<point x="151" y="445"/>
			<point x="131" y="342" type="curve" smooth="yes"/>
		</contour>
		<contour>
			<point x="103" y="593" type="line"/>
			<point x="246" y="578" type="line"/>
			<point x="263" y="578" type="line"/>
			<point x="277" y="652" type="line"/>
			<point x="115" y="652" type="line"/>
		</contour>
		<contour>
			<point x="153" y="0" type="line"/>
			<point x="520" y="0" type="line"/>
			<point x="560" y="170" type="line"/>
			<point x="470" y="170" type="line"/>
			<point x="409" y="0" type="line"/>
			<point x="500" y="58" type="line"/>
			<point x="164" y="58" type="line"/>
		</contour>
		<contour>
			<point x="211" y="304" type="line"/>
			<point x="420" y="304" type="line"/>
			<point x="432" y="367" type="line"/>
			<point x="223" y="367" type="line"/>
		</contour>
		<contour>
			<point x="265" y="593" type="line"/>
			<point x="567" y="593" type="line"/>
			<point x="499" y="652" type="line"/>
			<point x="494" y="482" type="line"/>
			<point x="584" y="482" type="line"/>
			<point x="610" y="652" type="line"/>
			<point x="277" y="652" type="line"/>
		</contour>
		<contour>
			<point x="393" y="235" type="line"/>
			<point x="453" y="235" type="line"/>
			<point x="492" y="442" type="line"/>
			<point x="432" y="442" type="line"/>
			<point x="401" y="350" type="line"/>
			<point x="397" y="332" type="line"/>
		</contour>
	</outline>
	<anchor name="aboveUC" x="382" y="682"/>
	<anchor name="belowLC" x="273" y="-22"/>
	<anchor name="ogonek" x="425" y="0"/>
</glyph>
<glyph name="G" format="1">
	<unicode hex="0047"/>
	<advance width="662"/>
	<outline>
		<contour>
			<point x="41" y="269" type="curve" smooth="yes"/>
			<point x="41" y="76"/>
			<point x="159" y="-18"/>
			<point x="370" y="-18" type="curve" smooth="yes"/>
			<point x="445" y="-18"/>
			<point x="497" y="-4"/>
			<point x="554" y="21" type="curve"/>
			<point x="613" y="335" type="line"/>
			<point x="439" y="335" type="line"/>
			<point x="425" y="251"/>
			<point x="408" y="166"/>
			<point x="392" y="83" type="curve" smooth="yes"/>
			<point x="376" y="1" type="line"/>
			<point x="468" y="52" type="line"/>
			<point x="434" y="43"/>
			<point x="415" y="38"/>
			<point x="389" y="38" type="curve" smooth="yes"/>
			<point x="273" y="38"/>
			<point x="226" y="124"/>
			<point x="226" y="256" type="curve" smooth="yes"/>
			<point x="226" y="432"/>
			<point x="324" y="612"/>
			<point x="471" y="612" type="curve" smooth="yes"/>
			<point x="515" y="612"/>
			<point x="552" y="599"/>
			<point x="597" y="564" type="curve"/>
			<point x="529" y="622" type="line"/>
			<point x="537" y="454" type="line"/>
			<point x="621" y="454" type="line"/>
			<point x="647" y="616" type="line"/>
			<point x="588" y="653"/>
			<point x="509" y="672"/>
			<point x="438" y="672" type="curve" smooth="yes"/>
			<point x="215" y="672"/>
			<point x="41" y="494"/>
		</contour>
		<contour>
			<point x="337" y="276" type="line"/>
			<point x="453" y="258" type="line"/>
			<point x="536" y="258" type="line"/>
			<point x="663" y="276" type="line"/>
			<point x="674" y="335" type="line"/>
			<point x="348" y="335" type="line"/>
		</contour>
		<contour>
			<point name="aboveUC" x="418" y="682" type="move"/>
		</contour>
		<contour>
			<point name="belowLC" x="357" y="-22" type="move"/>
		</contour>
	</outline>
</glyph>
<glyph name="I" format="1">
	<unicode hex="0049"/>
	<advance width="384"/>
	<outline>
		<contour>
			<point x="-9" y="0" type="line"/>
			<point x="318" y="0" type="line"/>
			<point x="330" y="59" type="line"/>
			<point x="189" y="74" type="line"/>
			<point x="156" y="74" type="line"/>
			<point x="3" y="59" type="line"/>
		</contour>
		<contour>
			<point x="66" y="0" type="line"/>
			<point x="245" y="0" type="line"/>
			<point x="262" y="103"/>
			<point x="281" y="207"/>
			<point x="301" y="311" type="curve" smooth="yes"/>
			<point x="366" y="652" type="line"/>
			<point x="186" y="652" type="line"/>
			<point x="169" y="549"/>
			<point x="151" y="445"/>
			<point x="131" y="342" type="curve" smooth="yes"/>
		</contour>
		<contour>
			<point x="103" y="593" type="line"/>
			<point x="252" y="578" type="line"/>
			<point x="285" y="578" type="line"/>
			<point x="430" y="593" type="line"/>
			<point x="442" y="652" type="line"/>
			<point x="115" y="652" type="line"/>
		</contour>
		<contour>
			<point name="aboveUC" x="276" y="682" type="move"/>
		</contour>
		<contour>
			<point name="belowLC" x="156" y="-22" type="move"/>
		</contour>
		<contour>
			<point name="ogonek" x="212" y="0" type="move"/>
		</contour>
	</outline>
</glyph>
<glyph name="M" format="2">
	<unicode hex="004D"/>
	<advance width="899"/>
	<outline>
		<contour>
			<point x="-19" y="0" type="line"/>
			<point x="226" y="0" type="line"/>
			<point x="238" y="59" type="line"/>
			<point x="140" y="74" type="line"/>
			<point x="97" y="74" type="line"/>
			<point x="-7" y="59" type="line"/>
		</contour>
		<contour>
			<point x="76" y="0" type="line"/>
			<point x="134" y="0" type="line"/>
			<point x="281" y="652" type="line"/>
			<point x="226" y="652" type="line"/>
		</contour>
		<contour>
			<point x="332" y="0" type="line"/>
			<point x="391" y="0" type="line"/>
			<point x="765" y="652" type="line"/>
			<point x="696" y="652" type="line"/>
			<point x="404" y="142" type="line"/>
			<point x="471" y="167" type="line"/>
			<point x="378" y="652" type="line"/>
			<point x="150" y="652" type="line"/>
			<point x="138" y="593" type="line"/>
			<point x="271" y="580" type="line"/>
			<point x="202" y="641" type="line"/>
		</contour>
		<contour>
			<point x="508" y="0" type="line"/>
			<point x="833" y="0" type="line"/>
			<point x="845" y="59" type="line"/>
			<point x="699" y="74" type="line"/>
			<point x="667" y="74" type="line"/>
			<point x="520" y="59" type="line"/>
		</contour>
		<contour>
			<point x="586" y="0" type="line"/>
			<point x="765" y="0" type="line"/>
			<point x="778" y="103"/>
			<point x="793" y="207"/>
			<point x="809" y="311" type="curve" smooth="yes"/>
			<point x="862" y="652" type="line"/>
			<point x="731" y="652" type="line"/>
			<point x="670" y="554" type="line"/>
		</contour>
		<contour>
			<point x="746" y="578" type="line"/>
			<point x="785" y="578" type="line"/>
			<point x="926" y="593" type="line"/>
			<point x="938" y="652" type="line"/>
			<point x="760" y="652" type="line"/>
		</contour>
	</outline>
	<anchor name="aboveUC" x="530" y="682"/>
	<anchor name="belowLC" x="354" y="-22"/>
</glyph>
<glyph name="O" format="1">
	<unicode hex="004F"/>
	<advance width="672"/>
	<outline>
		<contour>
			<point x="296" y="-20" type="curve" smooth="yes"/>
			<point x="538" y="-20"/>
			<point x="683" y="188"/>
			<point x="683" y="388" type="curve" smooth="yes"/>
			<point x="683" y="569"/>
			<point x="573" y="672"/>
			<point x="420" y="672" type="curve" smooth="yes"/>
			<point x="187" y="672"/>
			<point x="38" y="463"/>
			<point x="38" y="263" type="curve" smooth="yes"/>
			<point x="38" y="65"/>
			<point x="151" y="-20"/>
		</contour>
		<contour>
			<point x="317" y="40" type="curve" smooth="yes"/>
			<point x="254" y="40"/>
			<point x="221" y="101"/>
			<point x="221" y="237" type="curve" smooth="yes"/>
			<point x="221" y="449"/>
			<point x="302" y="612"/>
			<point x="406" y="612" type="curve" smooth="yes"/>
			<point x="471" y="612"/>
			<point x="499" y="552"/>
			<point x="499" y="423" type="curve" smooth="yes"/>
			<point x="499" y="211"/>
			<point x="420" y="40"/>
		</contour>
		<contour>
			<point name="aboveUC" x="411" y="682" type="move"/>
		</contour>
		<contour>
			<point name="belowLC" x="299" y="-22" type="move"/>
		</contour>
		<contour>
			<point name="ogonek" x="413" y="0" type="move"/>
		</contour>
		<contour>
			<point name="hornLC" x="581" y="669" type="move"/>
		</contour>
	</outline>
</glyph>
<glyph name="V" format="1">
	<unicode hex="0056"/>
	<advance width="602"/>
	<outline>
		<contour>
			<point x="60" y="593" type="line"/>
			<point x="199" y="578" type="line"/>
			<point x="240" y="578" type="line"/>
			<point x="384" y="598" type="line"/>
			<point x="395" y="652" type="line"/>
			<point x="72" y="652" type="line"/>
		</contour>
		<contour>
			<point x="211" y="0" type="line"/>
			<point x="321" y="0" type="line"/>
			<point x="654" y="652" type="line"/>
			<point x="585" y="652" type="line"/>
			<point x="335" y="140" type="line"/>
			<point x="367" y="148" type="line"/>
			<point x="293" y="652" type="line"/>
			<point x="100" y="652" type="line"/>
		</contour>
		<contour>
			<point x="481" y="598" type="line"/>
			<point x="587" y="578" type="line"/>
			<point x="600" y="578" type="line"/>
			<point x="691" y="593" type="line"/>
			<point x="703" y="652" type="line"/>
			<point x="492" y="652" type="line"/>
		</contour>
		<contour>
			<point name="aboveUC" x="440" y="682" type="move"/>
		</contour>
		<contour>
			<point name="belowLC" x="287" y="-22" type="move"/>
		</contour>
	</outline>
</glyph>
<glyph name="Y" format="1">
	<unicode hex="0059"/>
	<advance width="583"/>
	<outline>
		<contour>
			<point x="60" y="593" type="line"/>
			<point x="212" y="578" type="line"/>
			<point x="263" y="578" type="line"/>
			<point x="386" y="593" type="line"/>
			<point x="398" y="652" type="line"/>
			<point x="72" y="652" type="line"/>
		</contour>
		<contour>
			<point x="92" y="0" type="line"/>
			<point x="437" y="0" type="line"/>
			<point x="449" y="59" type="line"/>
			<point x="302" y="74" type="line"/>
			<point x="251" y="74" type="line"/>
			<point x="104" y="59" type="line"/>
		</contour>
		<contour>
			<point x="240" y="211" type="line"/>
			<point x="360" y="211" type="line"/>
			<point x="654" y="652" type="line"/>
			<point x="583" y="652" type="line"/>
			<point x="367" y="316" type="line"/>
			<point x="392" y="302" type="line"/>
			<point x="295" y="652" type="line"/>
			<point x="98" y="652" type="line"/>
		</contour>
		<contour>
			<point x="176" y="0" type="line"/>
			<point x="355" y="0" type="line"/>
			<point x="370" y="93"/>
			<point x="379" y="148"/>
			<point x="412" y="313" type="curve"/>
			<point x="236" y="313" type="line"/>
		</contour>
		<contour>
			<point x="476" y="593" type="line"/>
			<point x="564" y="578" type="line"/>
			<point x="588" y="578" type="line"/>
			<point x="672" y="593" type="line"/>
			<point x="684" y="652" type="line"/>
			<point x="488" y="652" type="line"/>
		</contour>
		<contour>
			<point name="aboveUC" x="437" y="682" type="move"/>
		</contour>
		<contour>
			<point name="belowLC" x="259" y="-22" type="move"/>
		</contour>
	</outline>
</glyph>
<glyph name="Z" format="1">
	<unicode hex="005A"/>
	<advance width="548"/>
	<outline>
		<contour>
			<point x="-9" y="0" type="line"/>
			<point x="162" y="0" type="line"/>
			<point x="592" y="602" type="line"/>
			<point x="602" y="652" type="line"/>
			<point x="431" y="652" type="line"/>
			<point x="1" y="50" type="line"/>
		</contour>
		<contour>
			<point x="64" y="463" type="line"/>
			<point x="150" y="463" type="line"/>
			<point x="224" y="652" type="line"/>
			<point x="130" y="592" type="line"/>
			<point x="506" y="592" type="line"/>
			<point x="518" y="652" type="line"/>
			<point x="108" y="652" type="line"/>
		</contour>
		<contour>
			<point x="73" y="0" type="line"/>
			<point x="496" y="0" type="line"/>
			<point x="540" y="189" type="line"/>
			<point x="452" y="189" type="line"/>
			<point x="379" y="0" type="line"/>
			<point x="475" y="60" type="line"/>
			<point x="85" y="60" type="line"/>
		</contour>
		<contour>
			<point name="aboveUC" x="365" y="682" type="move"/>
		</contour>
		<contour>
			<point name="belowLC" x="245" y="-22" type="move"/>
		</contour>
	</outline>
</glyph>
<glyph name="bracketleft" format="2">
	<unicode hex="005B"/>
	<advance width="361"/>
	<outline>
		<contour>
			<point x="17" y="-159" type="curve"/>
			<point x="156" y="-159" type="line"/>
			<point x="174" y="-54"/>
			<point x="196" y="53"/>
			<point x="218" y="158" type="curve" smooth="yes"/>
			<point x="266" y="398" type="line" smooth="yes"/>
			<point x="288" y="505"/>
			<point x="310" y="612"/>
			<point x="334" y="715" type="curve"/>
			<point x="195" y="715" type="line"/>
			<point x="177" y="610"/>
			<point x="155" y="503"/>
			<point x="133" y="398" type="curve" smooth="yes"/>
			<point x="85" y="158" type="line" smooth="yes"/>
			<point x="63" y="51"/>
			<point x="41" y="-56"/>
		</contour>
		<contour>
			<point x="87" y="-159" type="line"/>
			<point x="255" y="-159" type="line"/>
			<point x="267" y="-100" type="line"/>
			<point x="122" y="-85" type="line"/>
			<point x="102" y="-85" type="line"/>
		</contour>
		<contour>
			<point x="250" y="641" type="line"/>
			<point x="270" y="641" type="line"/>
			<point x="421" y="656" type="line"/>
			<point x="433" y="715" type="line"/>
			<point x="265" y="715" type="line"/>
		</contour>
	</outline>
</glyph>
<glyph name="backslash" format="2">
	<unicode hex="005C"/>
	<advance width="406"/>
	<outline>
		<contour>
			<point x="331" y="-160" type="line"/>
			<point x="242" y="710" type="line"/>
			<point x="122" y="710" type="line"/>
			<point x="211" y="-160" type="line"/>
		</contour>
	</outline>
</glyph>
<glyph name="asciicircum" format="1">
	<unicode hex="005E"/>
	<advance width="550"/>
	<outline>
		<contour>
			<point x="94" y="228" type="line"/>
			<point x="176" y="171" type="line"/>
			<point x="359" y="447" type="line"/>
			<point x="297" y="447" type="line"/>
			<point x="480" y="171" type="line"/>
			<point x="564" y="228" type="line"/>
			<point x="374" y="514" type="line"/>
			<point x="283" y="514" type="line"/>
		</contour>
	</outline>
</glyph>
<glyph name="g" format="1">
	<unicode hex="0067"/>
	<advance width="570"/>
	<outline>
		<contour>
			<point x="32" y="47" type="curve" smooth="yes"/>
			<point x="32" y="1"/>
			<point x="69" y="-31"/>
			<point x="115" y="-35" type="curve" smooth="yes"/>
			<point x="276" y="-49" type="line" smooth="yes"/>
			<point x="332" y="-54"/>
			<point x="360" y="-72"/>
			<point x="360" y="-104" type="curve" smooth="yes"/>
			<point x="360" y="-145"/>
			<point x="313" y="-169"/>
			<point x="226" y="-169" type="curve" smooth="yes"/>
			<point x="145" y="-169"/>
			<point x="96" y="-142"/>
			<point x="96" y="-97" type="curve" smooth="yes"/>
			<point x="96" y="-63"/>
			<point x="116" y="-36"/>
			<point x="139" y="-18" type="curve"/>
			<point x="121" y="-8" type="line"/>
			<point x="49" y="-33"/>
			<point x="-31" y="-73"/>
			<point x="-31" y="-133" type="curve" smooth="yes"/>
			<point x="-31" y="-197"/>
			<point x="38" y="-232"/>
			<point x="166" y="-232" type="curve" smooth="yes"/>
			<point x="361" y="-232"/>
			<point x="509" y="-151"/>
			<point x="509" y="-41" type="curve" smooth="yes"/>
			<point x="509" y="25"/>
			<point x="474" y="76"/>
			<point x="357" y="85" type="curve" smooth="yes"/>
			<point x="206" y="97" type="line" smooth="yes"/>
			<point x="169" y="100"/>
			<point x="160" y="117"/>
			<point x="160" y="133" type="curve" smooth="yes"/>
			<point x="160" y="146"/>
			<point x="162" y="154"/>
			<point x="198" y="183" type="curve"/>
			<point x="175" y="203" type="line"/>
			<point x="88" y="155"/>
			<point x="32" y="116"/>
		</contour>
		<contour>
			<point x="281" y="194" type="curve" smooth="yes"/>
			<point x="241" y="194"/>
			<point x="229" y="261"/>
			<point x="229" y="319" type="curve" smooth="yes"/>
			<point x="229" y="403"/>
			<point x="250" y="456"/>
			<point x="288" y="456" type="curve" smooth="yes"/>
			<point x="321" y="456"/>
			<point x="340" y="411"/>
			<point x="340" y="334" type="curve" smooth="yes"/>
			<point x="340" y="219"/>
			<point x="308" y="194"/>
		</contour>
		<contour>
			<point x="77" y="296" type="curve" smooth="yes"/>
			<point x="77" y="227"/>
			<point x="134" y="149"/>
			<point x="244" y="149" type="curve" smooth="yes"/>
			<point x="398" y="149"/>
			<point x="451" y="227"/>
			<point x="479" y="338" type="curve" smooth="yes"/>
			<point x="492" y="388"/>
			<point x="505" y="434"/>
			<point x="520" y="471" type="curve"/>
			<point x="472" y="436" type="line"/>
			<point x="493" y="422" type="line" smooth="yes"/>
			<point x="509" y="411"/>
			<point x="535" y="398"/>
			<point x="565" y="398" type="curve" smooth="yes"/>
			<point x="604" y="398"/>
			<point x="629" y="440"/>
			<point x="629" y="493" type="curve"/>
			<point x="617" y="524"/>
			<point x="588" y="533"/>
			<point x="558" y="533" type="curve" smooth="yes"/>
			<point x="506" y="533"/>
			<point x="468" y="483"/>
			<point x="450" y="375" type="curve"/>
			<point x="464" y="373" type="line"/>
			<point x="467" y="433"/>
			<point x="405" y="503"/>
			<point x="306" y="503" type="curve" smooth="yes"/>
			<point x="177" y="503"/>
			<point x="77" y="405"/>
		</contour>
		<contour>
			<point name="aboveLC" x="302" y="520" type="move"/>
		</contour>
		<contour>
			<point name="belowLC" x="169" y="-230" type="move"/>
		</contour>
	</outline>
</glyph>
<glyph name="k" format="2">
	<unicode hex="006B"/>
	<advance width="550"/>
	<outline>
		<contour>
			<point x="29" y="5" type="line"/>
			<point x="45" y="-8" type="line"/>
			<point x="200" y="0" type="line"/>
			<point x="212" y="73"/>
			<point x="223" y="125"/>
			<point x="243" y="217" type="curve" smooth="yes"/>
			<point x="348" y="697" type="line"/>
			<point x="332" y="711" type="line"/>
			<point x="105" y="652" type="line"/>
			<point x="99" y="611" type="line"/>
			<point x="229" y="586" type="line"/>
			<point x="157" y="621" type="line"/>
			<point x="147" y="549"/>
			<point x="130" y="476"/>
			<point x="115" y="404" type="curve" smooth="yes"/>
		</contour>
		<contour>
			<point x="550" y="0" type="curve"/>
			<point x="556" y="36" type="line"/>
			<point x="536" y="40" type="line" smooth="yes"/>
			<point x="514" y="44"/>
			<point x="500" y="59"/>
			<point x="487" y="91" type="curve" smooth="yes"/>
			<point x="456" y="167" type="line" smooth="yes"/>
			<point x="430" y="231"/>
			<point x="379" y="265"/>
			<point x="311" y="269" type="curve" smooth="yes"/>
			<point x="245" y="273" type="line"/>
			<point x="241" y="265" type="line"/>
			<point x="459" y="319" type="line" smooth="yes"/>
			<point x="536" y="338"/>
			<point x="570" y="364"/>
			<point x="570" y="412" type="curve" smooth="yes"/>
			<point x="570" y="456"/>
			<point x="538" y="489"/>
			<point x="491" y="497" type="curve"/>
			<point x="226" y="267" type="line"/>
			<point x="224" y="258" type="line"/>
			<point x="231" y="255" type="line" smooth="yes"/>
			<point x="255" y="245"/>
			<point x="259" y="233"/>
			<point x="275" y="181" type="curve" smooth="yes"/>
			<point x="304" y="89" type="line" smooth="yes"/>
			<point x="329" y="8"/>
			<point x="376" y="-16"/>
			<point x="446" y="-16" type="curve" smooth="yes"/>
			<point x="486" y="-16"/>
			<point x="522" y="-10"/>
		</contour>
	</outline>
	<anchor name="aboveLC" x="262" y="711"/>
	<anchor name="belowLC" x="270" y="-22"/>
</glyph>
<glyph name="m" format="2">
	<unicode hex="006D"/>
	<advance width="880"/>
	<outline>
		<contour>
			<point x="696" y="-16" type="curve" smooth="yes"/>
			<point x="788" y="-16"/>
			<point x="859" y="51"/>
			<point x="898" y="121" type="curve"/>
			<point x="865" y="142" type="line"/>
			<point x="835" y="102"/>
			<point x="815" y="84"/>
			<point x="801" y="84" type="curve" smooth="yes"/>
			<point x="792" y="84"/>
			<point x="787" y="91"/>
			<point x="787" y="104" type="curve" smooth="yes"/>
			<point x="787" y="114"/>
			<point x="790" y="125"/>
			<point x="794" y="141" type="curve" smooth="yes"/>
			<point x="842" y="331" type="line" smooth="yes"/>
			<point x="850" y="362"/>
			<point x="853" y="389"/>
			<point x="853" y="414" type="curve" smooth="yes"/>
			<point x="853" y="474"/>
			<point x="816" y="503"/>
			<point x="772" y="503" type="curve" smooth="yes"/>
			<point x="700" y="503"/>
			<point x="622" y="457"/>
			<point x="543" y="370" type="curve"/>
			<point x="545" y="323" type="line"/>
			<point x="586" y="368"/>
			<point x="624" y="387"/>
			<point x="653" y="387" type="curve" smooth="yes"/>
			<point x="666" y="387"/>
			<point x="676" y="378"/>
			<point x="676" y="362" type="curve" smooth="yes"/>
			<point x="676" y="347"/>
			<point x="672" y="322"/>
			<point x="664" y="292" type="curve" smooth="yes"/>
			<point x="629" y="153" type="line" smooth="yes"/>
			<point x="622" y="127"/>
			<point x="612" y="88"/>
			<point x="612" y="56" type="curve" smooth="yes"/>
			<point x="612" y="10"/>
			<point x="642" y="-16"/>
		</contour>
		<contour>
			<point x="212" y="0" type="line"/>
			<point x="226" y="73"/>
			<point x="239" y="144"/>
			<point x="255" y="216" type="curve" smooth="yes"/>
			<point x="287" y="364" type="line"/>
			<point x="310" y="487" type="line"/>
			<point x="289" y="505" type="line"/>
			<point x="71" y="446" type="line"/>
			<point x="64" y="405" type="line"/>
			<point x="193" y="380" type="line"/>
			<point x="126" y="415" type="line"/>
			<point x="41" y="5" type="line"/>
			<point x="57" y="-8" type="line"/>
		</contour>
		<contour>
			<point x="494" y="0" type="line"/>
			<point x="508" y="73"/>
			<point x="522" y="144"/>
			<point x="537" y="216" type="curve" smooth="yes"/>
			<point x="561" y="331" type="line" smooth="yes"/>
			<point x="567" y="362"/>
			<point x="572" y="389"/>
			<point x="572" y="414" type="curve" smooth="yes"/>
			<point x="572" y="474"/>
			<point x="535" y="503"/>
			<point x="490" y="503" type="curve" smooth="yes"/>
			<point x="419" y="503"/>
			<point x="341" y="457"/>
			<point x="262" y="372" type="curve"/>
			<point x="264" y="325" type="line"/>
			<point x="305" y="369"/>
			<point x="343" y="387"/>
			<point x="373" y="387" type="curve" smooth="yes"/>
			<point x="384" y="387"/>
			<point x="395" y="378"/>
			<point x="395" y="363" type="curve" smooth="yes"/>
			<point x="395" y="347"/>
			<point x="389" y="322"/>
			<point x="383" y="292" type="curve" smooth="yes"/>
			<point x="323" y="5" type="line"/>
			<point x="339" y="-8" type="line"/>
		</contour>
	</outline>
	<anchor name="aboveLC" x="514" y="520"/>
	<anchor name="belowLC" x="418" y="-22"/>
</glyph>
<glyph name="n" format="2">
	<unicode hex="006E"/>
	<advance width="603"/>
	<outline>
		<contour>
			<point x="335" y="56" type="curve" smooth="yes"/>
			<point x="335" y="10"/>
			<point x="365" y="-16"/>
			<point x="419" y="-16" type="curve" smooth="yes"/>
			<point x="511" y="-16"/>
			<point x="582" y="51"/>
			<point x="621" y="121" type="curve"/>
			<point x="588" y="142" type="line"/>
			<point x="558" y="102"/>
			<point x="538" y="84"/>
			<point x="524" y="84" type="curve" smooth="yes"/>
			<point x="515" y="84"/>
			<point x="510" y="91"/>
			<point x="510" y="104" type="curve" smooth="yes"/>
			<point x="510" y="114"/>
			<point x="513" y="125"/>
			<point x="517" y="141" type="curve" smooth="yes"/>
			<point x="565" y="331" type="line" smooth="yes"/>
			<point x="573" y="362"/>
			<point x="576" y="389"/>
			<point x="576" y="414" type="curve" smooth="yes"/>
			<point x="576" y="474"/>
			<point x="539" y="503"/>
			<point x="495" y="503" type="curve" smooth="yes"/>
			<point x="423" y="503"/>
			<point x="345" y="457"/>
			<point x="266" y="370" type="curve"/>
			<point x="268" y="323" type="line"/>
			<point x="309" y="368"/>
			<point x="347" y="387"/>
			<point x="376" y="387" type="curve" smooth="yes"/>
			<point x="389" y="387"/>
			<point x="399" y="378"/>
			<point x="399" y="362" type="curve" smooth="yes"/>
			<point x="399" y="347"/>
			<point x="395" y="322"/>
			<point x="387" y="292" type="curve" smooth="yes"/>
			<point x="352" y="153" type="line" smooth="yes"/>
			<point x="345" y="127"/>
			<point x="335" y="88"/>
		</contour>
		<contour>
			<point x="212" y="0" type="line"/>
			<point x="226" y="73"/>
			<point x="239" y="144"/>
			<point x="255" y="216" type="curve" smooth="yes"/>
			<point x="287" y="364" type="line"/>
			<point x="310" y="487" type="line"/>
			<point x="289" y="505" type="line"/>
			<point x="71" y="446" type="line"/>
			<point x="64" y="405" type="line"/>
			<point x="193" y="380" type="line"/>
			<point x="126" y="415" type="line"/>
			<point x="41" y="5" type="line"/>
			<point x="57" y="-8" type="line"/>
		</contour>
	</outline>
	<anchor name="aboveLC" x="364" y="520"/>
	<anchor name="belowLC" x="269" y="-22"/>
</glyph>
<glyph name="q" format="2">
	<unicode hex="0071"/>
	<advance width="580"/>
	<outline>
		<contour>
			<point x="156" y="-16" type="curve" smooth="yes"/>
			<point x="226" y="-16"/>
			<point x="311" y="35"/>
			<point x="365" y="110" type="curve"/>
			<point x="360" y="145" type="line"/>
			<point x="339" y="125"/>
			<point x="303" y="100"/>
			<point x="271" y="100" type="curve" smooth="yes"/>
			<point x="238" y="100"/>
			<point x="218" y="124"/>
			<point x="218" y="188" type="curve" smooth="yes"/>
			<point x="218" y="249"/>
			<point x="243" y="351"/>
			<point x="288" y="396" type="curve" smooth="yes"/>
			<point x="301" y="409"/>
			<point x="324" y="426"/>
			<point x="351" y="426" type="curve" smooth="yes"/>
			<point x="375" y="426"/>
			<point x="398" y="417"/>
			<point x="421" y="402" type="curve"/>
			<point x="499" y="462" type="line"/>
			<point x="470" y="490"/>
			<point x="434" y="503"/>
			<point x="396" y="503" type="curve" smooth="yes"/>
			<point x="241" y="503"/>
			<point x="47" y="312"/>
			<point x="47" y="132" type="curve" smooth="yes"/>
			<point x="47" y="21"/>
			<point x="99" y="-16"/>
		</contour>
		<contour>
			<point x="214" y="-222" type="line"/>
			<point x="505" y="-222" type="line"/>
			<point x="513" y="-181" type="line"/>
			<point x="388" y="-161" type="line"/>
			<point x="338" y="-161" type="line"/>
			<point x="222" y="-181" type="line"/>
		</contour>
		<contour>
			<point x="588" y="501" type="line"/>
			<point x="572" y="515" type="line"/>
			<point x="411" y="448" type="line"/>
			<point x="339" y="110" type="line"/>
			<point x="338" y="86" type="line"/>
			<point x="273" y="-222" type="line"/>
			<point x="444" y="-222" type="line"/>
			<point x="456" y="-154"/>
			<point x="468" y="-83"/>
			<point x="484" y="-6" type="curve" smooth="yes"/>
		</contour>
	</outline>
	<anchor name="aboveLC" x="408" y="520"/>
	<anchor name="belowLC" x="346" y="-240"/>
</glyph>
<glyph name="s" format="1">
	<unicode hex="0073"/>
	<advance width="445"/>
	<outline>
		<contour>
			<point x="207" y="10" type="line"/>
			<point x="191" y="84" type="line" smooth="yes"/>
			<point x="180" y="137"/>
			<point x="148" y="155"/>
			<point x="111" y="155" type="curve" smooth="yes"/>
			<point x="71" y="155"/>
			<point x="51" y="131"/>
			<point x="45" y="93" type="curve"/>
			<point x="57" y="21"/>
			<point x="116" y="-16"/>
			<point x="205" y="-16" type="curve" smooth="yes"/>
			<point x="361" y="-16"/>
			<point x="432" y="59"/>
			<point x="432" y="139" type="curve" smooth="yes"/>
			<point x="432" y="197"/>
			<point x="405" y="234"/>
			<point x="344" y="283" type="curve" smooth="yes"/>
			<point x="293" y="324"/>
			<point x="261" y="355"/>
			<point x="261" y="395" type="curve" smooth="yes"/>
			<point x="261" y="426"/>
			<point x="280" y="461"/>
			<point x="326" y="461" type="curve" smooth="yes"/>
			<point x="374" y="461" type="line"/>
			<point x="300" y="477" type="line"/>
			<point x="325" y="410" type="line" smooth="yes"/>
			<point x="343" y="362"/>
			<point x="375" y="343"/>
			<point x="403" y="343" type="curve" smooth="yes"/>
			<point x="442" y="343"/>
			<point x="463" y="367"/>
			<point x="465" y="399" type="curve"/>
			<point x="453" y="458"/>
			<point x="411" y="503"/>
			<point x="307" y="503" type="curve" smooth="yes"/>
			<point x="176" y="503"/>
			<point x="107" y="425"/>
			<point x="107" y="337" type="curve" smooth="yes"/>
			<point x="107" y="270"/>
			<point x="142" y="231"/>
			<point x="200" y="182" type="curve" smooth="yes"/>
			<point x="247" y="143"/>
			<point x="271" y="117"/>
			<point x="271" y="87" type="curve" smooth="yes"/>
			<point x="271" y="52"/>
			<point x="248" y="26"/>
			<point x="205" y="26" type="curve" smooth="yes"/>
			<point x="136" y="26" type="line"/>
		</contour>
		<contour>
			<point name="aboveLC" x="292" y="520" type="move"/>
		</contour>
		<contour>
			<point name="belowLC" x="176" y="-22" type="move"/>
		</contour>
		<contour>
			<point name="baseLC" x="184" y="0" type="move"/>
		</contour>
	</outline>
</glyph>
<glyph name="z" format="1">
	<unicode hex="007A"/>
	<advance width="501"/>
	<outline>
		<contour>
			<point x="293" y="-30" type="curve" smooth="yes"/>
			<point x="378" y="-30"/>
			<point x="495" y="101"/>
			<point x="495" y="204" type="curve" smooth="yes"/>
			<point x="495" y="243"/>
			<point x="480" y="265"/>
			<point x="442" y="277" type="curve"/>
			<point x="404" y="273"/>
			<point x="367" y="244"/>
			<point x="367" y="202" type="curve" smooth="yes"/>
			<point x="367" y="176"/>
			<point x="375" y="156"/>
			<point x="402" y="129" type="curve" smooth="yes"/>
			<point x="423" y="108" type="line"/>
			<point x="452" y="129" type="line"/>
			<point x="435" y="121"/>
			<point x="403" y="116"/>
			<point x="371" y="116" type="curve" smooth="yes"/>
			<point x="310" y="116"/>
			<point x="246" y="134"/>
			<point x="180" y="165" type="curve" smooth="yes"/>
			<point x="161" y="174" type="line"/>
			<point x="104" y="91" type="line"/>
			<point x="156" y="40" type="line" smooth="yes"/>
			<point x="190" y="7"/>
			<point x="246" y="-30"/>
		</contour>
		<contour>
			<point x="108" y="-5" type="line"/>
			<point x="128" y="104" type="line"/>
			<point x="403" y="320" type="line" smooth="yes"/>
			<point x="470" y="372"/>
			<point x="517" y="424"/>
			<point x="536" y="485" type="curve"/>
			<point x="528" y="495" type="line"/>
			<point x="433" y="490" type="line"/>
			<point x="410" y="384" type="line"/>
			<point x="99" y="130" type="line" smooth="yes"/>
			<point x="47" y="88"/>
			<point x="25" y="48"/>
			<point x="1" y="0" type="curve"/>
			<point x="9" y="-9" type="line"/>
		</contour>
		<contour>
			<point x="60" y="247" type="line"/>
			<point x="113" y="239" type="line"/>
			<point x="167" y="418" type="line"/>
			<point x="101" y="339" type="line"/>
			<point x="183" y="324"/>
			<point x="263" y="307"/>
			<point x="343" y="290" type="curve"/>
			<point x="438" y="394" type="line"/>
			<point x="352" y="436"/>
			<point x="264" y="470"/>
			<point x="174" y="504" type="curve"/>
			<point x="77" y="426" type="line"/>
		</contour>
		<contour>
			<point name="aboveLC" x="323" y="520" type="move"/>
		</contour>
		<contour>
			<point name="belowLC" x="170" y="-22" type="move"/>
		</contour>
	</outline>
</glyph>
<glyph name="braceleft" format="1">
	<unicode hex="007B"/>
	<advance width="334"/>
	<outline>
		<contour>
			<point x="41" y="248" type="line"/>
			<point x="110" y="237"/>
			<point x="121" y="212"/>
			<point x="121" y="186" type="curve" smooth="yes"/>
			<point x="121" y="99"/>
			<point x="29" y="40"/>
			<point x="29" y="-55" type="curve" smooth="yes"/>
			<point x="29" y="-127"/>
			<point x="96" y="-159"/>
			<point x="191" y="-159" type="curve" smooth="yes"/>
			<point x="228" y="-159" type="line"/>
			<point x="240" y="-100" type="line"/>
			<point x="206" y="-97" type="line" smooth="yes"/>
			<point x="180" y="-95"/>
			<point x="163" y="-74"/>
			<point x="163" y="-44" type="curve" smooth="yes"/>
			<point x="163" y="17"/>
			<point x="221" y="94"/>
			<point x="221" y="173" type="curve" smooth="yes"/>
			<point x="221" y="236"/>
			<point x="176" y="281"/>
			<point x="81" y="288" type="curve"/>
			<point x="77" y="268" type="line"/>
			<point x="212" y="277"/>
			<point x="278" y="362"/>
			<point x="278" y="463" type="curve" smooth="yes"/>
			<point x="278" y="491"/>
			<point x="275" y="518"/>
			<point x="275" y="544" type="curve" smooth="yes"/>
			<point x="275" y="603"/>
			<point x="304" y="648"/>
			<point x="348" y="653" type="curve" smooth="yes"/>
			<point x="374" y="656" type="line"/>
			<point x="386" y="715" type="line"/>
			<point x="359" y="715" type="line" smooth="yes"/>
			<point x="244" y="715"/>
			<point x="143" y="666"/>
			<point x="143" y="552" type="curve" smooth="yes"/>
			<point x="143" y="502"/>
			<point x="166" y="463"/>
			<point x="166" y="415" type="curve" smooth="yes"/>
			<point x="166" y="365"/>
			<point x="153" y="323"/>
			<point x="53" y="308" type="curve"/>
		</contour>
	</outline>
</glyph>
<glyph name="cent" format="2">
	<unicode hex="00A2"/>
	<advance width="560"/>
	<outline>
		<contour>
			<point x="51" y="235" type="curve" smooth="yes"/>
			<point x="51" y="120"/>
			<point x="126" y="44"/>
			<point x="234" y="44" type="curve" smooth="yes"/>
			<point x="352" y="44"/>
			<point x="442" y="129"/>
			<point x="485" y="213" type="curve"/>
			<point x="456" y="234" type="line"/>
			<point x="413" y="183"/>
			<point x="363" y="161"/>
			<point x="326" y="161" type="curve" smooth="yes"/>
			<point x="256" y="161"/>
			<point x="212" y="195"/>
			<point x="212" y="280" type="curve" smooth="yes"/>
			<point x="212" y="350"/>
			<point x="244" y="508"/>
			<point x="366" y="508" type="curve" smooth="yes"/>
			<point x="419" y="508"/>
			<point x="441" y="503"/>
			<point x="462" y="493" type="curve"/>
			<point x="402" y="535" type="line"/>
			<point x="410" y="445" type="line" smooth="yes"/>
			<point x="416" y="374"/>
			<point x="437" y="359"/>
			<point x="473" y="359" type="curve" smooth="yes"/>
			<point x="495" y="359"/>
			<point x="522" y="372"/>
			<point x="533" y="402" type="curve"/>
			<point x="533" y="493"/>
			<point x="472" y="563"/>
			<point x="359" y="563" type="curve" smooth="yes"/>
			<point x="177" y="563"/>
			<point x="51" y="407"/>
		</contour>
		<contour>
			<point x="273" y="-45" type="line"/>
			<point x="415" y="650" type="line"/>
			<point x="352" y="650" type="line"/>
			<point x="210" y="-45" type="line"/>
		</contour>
	</outline>
</glyph>
<glyph name="sterling" format="1">
	<unicode hex="00A3"/>
	<advance width="532"/>
	<outline>
		<contour>
			<point x="17" y="0" type="line"/>
			<point x="457" y="0" type="line"/>
			<point x="486" y="140" type="line"/>
			<point x="134" y="140" type="line"/>
			<point x="119" y="117" type="line"/>
			<point x="215" y="156"/>
			<point x="282" y="242"/>
			<point x="282" y="304" type="curve" smooth="yes"/>
			<point x="282" y="362"/>
			<point x="237" y="401"/>
			<point x="237" y="464" type="curve" smooth="yes"/>
			<point x="237" y="535"/>
			<point x="275" y="585"/>
			<point x="376" y="585" type="curve" smooth="yes"/>
			<point x="397" y="585"/>
			<point x="419" y="582"/>
			<point x="463" y="567" type="curve"/>
			<point x="385" y="604" type="line"/>
			<point x="385" y="524" type="line" smooth="yes"/>
			<point x="385" y="446"/>
			<point x="410" y="427"/>
			<point x="447" y="427" type="curve" smooth="yes"/>
			<point x="480" y="427"/>
			<point x="507" y="442"/>
			<point x="523" y="490" type="curve"/>
			<point x="523" y="586"/>
			<point x="459" y="640"/>
			<point x="345" y="640" type="curve" smooth="yes"/>
			<point x="220" y="640"/>
			<point x="99" y="580"/>
			<point x="99" y="460" type="curve" smooth="yes"/>
			<point x="99" y="366"/>
			<point x="164" y="347"/>
			<point x="164" y="277" type="curve" smooth="yes"/>
			<point x="164" y="205"/>
			<point x="120" y="153"/>
			<point x="39" y="103" type="curve"/>
		</contour>
		<contour>
			<point x="92" y="275" type="line"/>
			<point x="416" y="275" type="line"/>
			<point x="429" y="335" type="line"/>
			<point x="104" y="335" type="line"/>
		</contour>
	</outline>
</glyph>
<glyph name="section" format="1">
	<unicode hex="00A7"/>
	<advance width="541"/>
	<outline>
		<contour>
			<point x="384" y="674" type="curve" smooth="yes"/>
			<point x="220" y="674"/>
			<point x="150" y="580"/>
			<point x="150" y="490" type="curve" smooth="yes"/>
			<point x="150" y="413"/>
			<point x="203" y="379"/>
			<point x="277" y="324" type="curve" smooth="yes"/>
			<point x="341" y="276"/>
			<point x="375" y="249"/>
			<point x="375" y="213" type="curve" smooth="yes"/>
			<point x="375" y="184"/>
			<point x="357" y="159"/>
			<point x="321" y="142" type="curve"/>
			<point x="353" y="105" type="line"/>
			<point x="484" y="128"/>
			<point x="536" y="195"/>
			<point x="536" y="271" type="curve" smooth="yes"/>
			<point x="536" y="334"/>
			<point x="501" y="375"/>
			<point x="425" y="429" type="curve" smooth="yes"/>
			<point x="356" y="478"/>
			<point x="302" y="507"/>
			<point x="302" y="559" type="curve" smooth="yes"/>
			<point x="302" y="592"/>
			<point x="316" y="626"/>
			<point x="391" y="627" type="curve" smooth="yes"/>
			<point x="455" y="628" type="line"/>
			<point x="379" y="643" type="line"/>
			<point x="403" y="582" type="line" smooth="yes"/>
			<point x="427" y="530"/>
			<point x="461" y="512"/>
			<point x="493" y="512" type="curve" smooth="yes"/>
			<point x="535" y="512"/>
			<point x="559" y="538"/>
			<point x="560" y="571" type="curve"/>
			<point x="547" y="629"/>
			<point x="502" y="674"/>
		</contour>
		<contour>
			<point x="181" y="-143" type="curve" smooth="yes"/>
			<point x="365" y="-143"/>
			<point x="433" y="-61"/>
			<point x="432" y="26" type="curve" smooth="yes"/>
			<point x="430" y="93"/>
			<point x="391" y="128"/>
			<point x="310" y="187" type="curve" smooth="yes"/>
			<point x="237" y="239"/>
			<point x="198" y="271"/>
			<point x="198" y="317" type="curve" smooth="yes"/>
			<point x="198" y="343"/>
			<point x="211" y="369"/>
			<point x="246" y="389" type="curve"/>
			<point x="209" y="423" type="line"/>
			<point x="86" y="400"/>
			<point x="46" y="322"/>
			<point x="46" y="246" type="curve" smooth="yes"/>
			<point x="46" y="168"/>
			<point x="92" y="129"/>
			<point x="163" y="76" type="curve" smooth="yes"/>
			<point x="231" y="25"/>
			<point x="270" y="5"/>
			<point x="271" y="-36" type="curve" smooth="yes"/>
			<point x="271" y="-69"/>
			<point x="252" y="-97"/>
			<point x="176" y="-97" type="curve" smooth="yes"/>
			<point x="148" y="-97"/>
			<point x="135" y="-96"/>
			<point x="92" y="-85" type="curve"/>
			<point x="172" y="-111" type="line"/>
			<point x="155" y="-53" type="line" smooth="yes"/>
			<point x="139" y="2"/>
			<point x="107" y="22"/>
			<point x="74" y="22" type="curve" smooth="yes"/>
			<point x="25" y="22"/>
			<point x="-2" y="-14"/>
			<point x="-1" y="-54" type="curve"/>
			<point x="17" y="-110"/>
			<point x="79" y="-143"/>
		</contour>
	</outline>
</glyph>
<glyph name="copyright" format="2">
	<unicode hex="00A9"/>
	<advance width="760"/>
	<outline>
		<contour>
			<point x="377" y="-20" type="curve" smooth="yes"/>
			<point x="566" y="-20"/>
			<point x="751" y="133"/>
			<point x="751" y="358" type="curve" smooth="yes"/>
			<point x="751" y="551"/>
			<point x="610" y="672"/>
			<point x="441" y="672" type="curve" smooth="yes"/>
			<point x="252" y="672"/>
			<point x="66" y="520"/>
			<point x="66" y="295" type="curve" smooth="yes"/>
			<point x="66" y="101"/>
			<point x="207" y="-20"/>
		</contour>
		<contour>
			<point x="382" y="37" type="curve" smooth="yes"/>
			<point x="244" y="37"/>
			<point x="132" y="137"/>
			<point x="132" y="298" type="curve" smooth="yes"/>
			<point x="132" y="487"/>
			<point x="281" y="615"/>
			<point x="436" y="615" type="curve" smooth="yes"/>
			<point x="574" y="615"/>
			<point x="685" y="515"/>
			<point x="685" y="355" type="curve" smooth="yes"/>
			<point x="685" y="165"/>
			<point x="537" y="37"/>
		</contour>
		<contour>
			<point x="405" y="120" type="curve" smooth="yes"/>
			<point x="457" y="120"/>
			<point x="498" y="133"/>
			<point x="527" y="150" type="curve"/>
			<point x="544" y="245" type="line"/>
			<point x="493" y="245" type="line"/>
			<point x="453" y="146" type="line"/>
			<point x="503" y="191" type="line"/>
			<point x="478" y="177"/>
			<point x="452" y="166"/>
			<point x="427" y="166" type="curve" smooth="yes"/>
			<point x="368" y="166"/>
			<point x="341" y="226"/>
			<point x="341" y="300" type="curve" smooth="yes"/>
			<point x="341" y="379"/>
			<point x="375" y="490"/>
			<point x="465" y="490" type="curve" smooth="yes"/>
			<point x="495" y="490"/>
			<point x="516" y="478"/>
			<point x="540" y="450" type="curve"/>
			<point x="502" y="502" type="line"/>
			<point x="505" y="405" type="line"/>
			<point x="560" y="405" type="line"/>
			<point x="575" y="506" type="line"/>
			<point x="537" y="526"/>
			<point x="502" y="536"/>
			<point x="456" y="536" type="curve" smooth="yes"/>
			<point x="313" y="536"/>
			<point x="221" y="428"/>
			<point x="221" y="306" type="curve" smooth="yes"/>
			<point x="221" y="184"/>
			<point x="303" y="120"/>
		</contour>
	</outline>
</glyph>
<glyph name="logicalnot" format="1">
	<unicode hex="00AC"/>
	<advance width="550"/>
	<outline>
		<contour>
			<point x="48" y="310" type="line"/>
			<point x="480" y="310" type="line"/>
			<point x="434" y="355" type="line"/>
			<point x="434" y="138" type="line"/>
			<point x="538" y="138" type="line"/>
			<point x="538" y="410" type="line"/>
			<point x="48" y="410" type="line"/>
		</contour>
	</outline>
</glyph>
<glyph name="registered" format="1">
	<unicode hex="00AE"/>
	<advance width="474"/>
	<outline>
		<contour>
			<point x="153" y="511" type="curve" smooth="yes"/>
			<point x="153" y="609"/>
			<point x="223" y="667"/>
			<point x="308" y="667" type="curve" smooth="yes"/>
			<point x="393" y="667"/>
			<point x="462" y="609"/>
			<point x="462" y="511" type="curve" smooth="yes"/>
			<point x="462" y="413"/>
			<point x="393" y="353"/>
			<point x="308" y="353" type="curve" smooth="yes"/>
			<point x="223" y="353"/>
			<point x="153" y="413"/>
		</contour>
		<contour>
			<point x="233" y="418" type="line"/>
			<point x="295" y="418" type="line"/>
			<point x="295" y="614" type="line"/>
			<point x="233" y="614" type="line"/>
		</contour>
		<contour>
			<point x="259" y="444" type="line"/>
			<point x="213" y="440" type="line"/>
			<point x="213" y="418" type="line"/>
			<point x="316" y="418" type="line"/>
			<point x="316" y="440" type="line"/>
			<point x="270" y="444" type="line"/>
		</contour>
		<contour>
			<point x="259" y="587" type="line"/>
			<point x="265" y="587" type="line"/>
			<point x="265" y="614" type="line"/>
			<point x="213" y="614" type="line"/>
			<point x="213" y="592" type="line"/>
		</contour>
		<contour>
			<point x="101" y="511" type="curve" smooth="yes"/>
			<point x="101" y="384"/>
			<point x="197" y="305"/>
			<point x="308" y="305" type="curve" smooth="yes"/>
			<point x="420" y="305"/>
			<point x="515" y="384"/>
			<point x="515" y="511" type="curve" smooth="yes"/>
			<point x="515" y="638"/>
			<point x="420" y="715"/>
			<point x="308" y="715" type="curve" smooth="yes"/>
			<point x="197" y="715"/>
			<point x="101" y="638"/>
		</contour>
		<contour>
			<point x="418" y="440" type="line"/>
			<point x="366" y="445" type="line"/>
			<point x="397" y="422" type="line"/>
			<point x="392" y="467" type="line" smooth="yes"/>
			<point x="388" y="501"/>
			<point x="375" y="519"/>
			<point x="317" y="520" type="curve"/>
			<point x="317" y="517" type="line"/>
			<point x="378" y="519"/>
			<point x="394" y="543"/>
			<point x="394" y="565" type="curve" smooth="yes"/>
			<point x="394" y="595"/>
			<point x="367" y="614"/>
			<point x="318" y="614" type="curve" smooth="yes"/>
			<point x="265" y="614" type="line"/>
			<point x="265" y="591" type="line"/>
			<point x="301" y="591" type="line" smooth="yes"/>
			<point x="323" y="591"/>
			<point x="337" y="581"/>
			<point x="337" y="560" type="curve" smooth="yes"/>
			<point x="337" y="544"/>
			<point x="329" y="528"/>
			<point x="301" y="528" type="curve" smooth="yes"/>
			<point x="265" y="528" type="line"/>
			<point x="265" y="506" type="line"/>
			<point x="303" y="506" type="line" smooth="yes"/>
			<point x="319" y="506"/>
			<point x="324" y="496"/>
			<point x="326" y="478" type="curve" smooth="yes"/>
			<point x="329" y="449" type="line" smooth="yes"/>
			<point x="332" y="422"/>
			<point x="351" y="413"/>
			<point x="380" y="413" type="curve" smooth="yes"/>
			<point x="396" y="413"/>
			<point x="400" y="414"/>
			<point x="418" y="418" type="curve"/>
		</contour>
	</outline>
</glyph>
<glyph name="Idieresis" format="2">
	<unicode hex="00CF"/>
	<advance width="384"/>
	<outline>
		<contour>
			<point x="197" y="703" type="curve" smooth="yes"/>
			<point x="236" y="703"/>
			<point x="276" y="732"/>
			<point x="276" y="784" type="curve" smooth="yes"/>
			<point x="276" y="822"/>
			<point x="247" y="846"/>
			<point x="209" y="846" type="curve" smooth="yes"/>
			<point x="172" y="846"/>
			<point x="129" y="820"/>
			<point x="129" y="766" type="curve" smooth="yes"/>
			<point x="129" y="726"/>
			<point x="164" y="703"/>
		</contour>
		<contour>
			<point x="388" y="703" type="curve" smooth="yes"/>
			<point x="427" y="703"/>
			<point x="467" y="732"/>
			<point x="467" y="784" type="curve" smooth="yes"/>
			<point x="467" y="822"/>
			<point x="438" y="846"/>
			<point x="400" y="846" type="curve" smooth="yes"/>
			<point x="363" y="846"/>
			<point x="320" y="820"/>
			<point x="320" y="766" type="curve" smooth="yes"/>
			<point x="320" y="726"/>
			<point x="355" y="703"/>
		</contour>
		<component base="I"/>
	</outline>
</glyph>
<glyph name="Eth" format="1">
	<unicode hex="00D0"/>
	<advance width="685"/>
	<outline>
		<contour>
			<point x="412" y="303" type="line"/>
			<point x="424" y="366" type="line"/>
			<point x="54" y="366" type="line"/>
			<point x="42" y="303" type="line"/>
		</contour>
		<component base="D"/>
	</outline>
</glyph>
<glyph name="Oslash" format="1">
	<unicode hex="00D8"/>
	<advance width="672"/>
	<outline>
		<contour>
			<point x="698" y="640" type="line"/>
			<point x="644" y="692" type="line"/>
			<point x="2" y="12" type="line"/>
			<point x="56" y="-40" type="line"/>
		</contour>
		<component base="O"/>
		<contour>
			<point name="aboveUC" x="411" y="682" type="move"/>
		</contour>
	</outline>
</glyph>
<glyph name="eth" format="2">
	<unicode hex="00F0"/>
	<advance width="538"/>
	<outline>
		<contour>
			<point x="244" y="-16" type="curve" smooth="yes"/>
			<point x="427" y="-16"/>
			<point x="541" y="138"/>
			<point x="541" y="328" type="curve" smooth="yes"/>
			<point x="541" y="546"/>
			<point x="417" y="682"/>
			<point x="240" y="731" type="curve"/>
			<point x="214" y="682" type="line"/>
			<point x="332" y="627"/>
			<point x="371" y="535"/>
			<point x="397" y="404" type="curve"/>
			<point x="422" y="415" type="line"/>
			<point x="406" y="465"/>
			<point x="375" y="487"/>
			<point x="323" y="487" type="curve" smooth="yes"/>
			<point x="161" y="487"/>
			<point x="44" y="347"/>
			<point x="44" y="179" type="curve" smooth="yes"/>
			<point x="44" y="41"/>
			<point x="131" y="-16"/>
		</contour>
		<contour>
			<point x="259" y="44" type="curve" smooth="yes"/>
			<point x="234" y="44"/>
			<point x="214" y="60"/>
			<point x="214" y="140" type="curve" smooth="yes"/>
			<point x="214" y="291"/>
			<point x="266" y="427"/>
			<point x="332" y="427" type="curve" smooth="yes"/>
			<point x="362" y="427"/>
			<point x="379" y="410"/>
			<point x="379" y="349" type="curve" smooth="yes"/>
			<point x="379" y="205"/>
			<point x="331" y="44"/>
		</contour>
		<contour>
			<point x="225" y="510" type="line"/>
			<point x="547" y="661" type="line"/>
			<point x="521" y="716" type="line"/>
			<point x="203" y="559" type="line"/>
		</contour>
	</outline>
</glyph>
<glyph name="divide" format="1">
	<unicode hex="00F7"/>
	<advance width="550"/>
	<outline>
		<contour>
			<point x="293" y="69" type="curve" smooth="yes"/>
			<point x="333" y="69"/>
			<point x="364" y="99"/>
			<point x="364" y="137" type="curve" smooth="yes"/>
			<point x="364" y="175"/>
			<point x="333" y="206"/>
			<point x="293" y="206" type="curve" smooth="yes"/>
			<point x="253" y="206"/>
			<point x="222" y="175"/>
			<point x="222" y="137" type="curve" smooth="yes"/>
			<point x="222" y="99"/>
			<point x="253" y="69"/>
		</contour>
		<contour>
			<point x="293" y="434" type="curve" smooth="yes"/>
			<point x="333" y="434"/>
			<point x="364" y="464"/>
			<point x="364" y="503" type="curve" smooth="yes"/>
			<point x="364" y="541"/>
			<point x="333" y="571"/>
			<point x="293" y="571" type="curve" smooth="yes"/>
			<point x="253" y="571"/>
			<point x="222" y="541"/>
			<point x="222" y="503" type="curve" smooth="yes"/>
			<point x="222" y="464"/>
			<point x="253" y="434"/>
		</contour>
		<component base="minus"/>
	</outline>
</glyph>
<glyph name="oslash" format="1">
	<unicode hex="00F8"/>
	<advance width="551"/>
	<outline>
		<contour>
			<point x="578" y="484" type="line"/>
			<point x="535" y="527" type="line"/>
			<point x="12" y="2" type="line"/>
			<point x="56" y="-40" type="line"/>
		</contour>
		<component base="o"/>
		<contour>
			<point name="aboveLC" x="353" y="520" type="move"/>
		</contour>
	</outline>
</glyph>
<glyph name="dcaron" format="1">
	<unicode hex="010F"/>
	<advance width="644"/>
	<outline>
		<contour>
			<point x="752" y="741" type="curve" smooth="yes"/>
			<point x="733" y="741"/>
			<point x="719" y="738"/>
			<point x="698" y="728" type="curve"/>
			<point x="650" y="500" type="line"/>
			<point x="704" y="495" type="line"/>
			<point x="754" y="582" type="line" smooth="yes"/>
			<point x="781" y="630"/>
			<point x="804" y="667"/>
			<point x="804" y="702" type="curve" smooth="yes"/>
			<point x="804" y="722"/>
			<point x="788" y="741"/>
		</contour>
		<component base="d"/>
	</outline>
</glyph>
<glyph name="Lcaron" format="1">
	<unicode hex="013D"/>
	<advance width="564"/>
	<outline>
		<contour>
			<point x="592" y="711" type="curve" smooth="yes"/>
			<point x="573" y="711"/>
			<point x="559" y="708"/>
			<point x="538" y="698" type="curve"/>
			<point x="490" y="470" type="line"/>
			<point x="544" y="465" type="line"/>
			<point x="594" y="552" type="line" smooth="yes"/>
			<point x="621" y="600"/>
			<point x="644" y="637"/>
			<point x="644" y="672" type="curve" smooth="yes"/>
			<point x="644" y="692"/>
			<point x="628" y="711"/>
		</contour>
		<component base="L"/>
	</outline>
</glyph>
<glyph name="Lslash" format="1">
	<unicode hex="0141"/>
	<advance width="564"/>
	<outline>
		<contour>
			<point x="460" y="471" type="line"/>
			<point x="256" y="375" type="line"/>
			<point x="239" y="283" type="line"/>
			<point x="443" y="379" type="line"/>
		</contour>
		<contour>
			<point x="214" y="364" type="line"/>
			<point x="36" y="281" type="line"/>
			<point x="19" y="189" type="line"/>
			<point x="196" y="272" type="line"/>
		</contour>
		<component base="L"/>
	</outline>
</glyph>
<glyph name="lslash" format="1">
	<unicode hex="0142"/>
	<advance width="318"/>
	<outline>
		<contour>
			<point x="254" y="440" type="line"/>
			<point x="37" y="329" type="line"/>
			<point x="20" y="245" type="line"/>
			<point x="237" y="356" type="line"/>
		</contour>
		<contour>
			<point x="378" y="487" type="line"/>
			<point x="155" y="373" type="line"/>
			<point x="138" y="289" type="line"/>
			<point x="361" y="403" type="line"/>
		</contour>
		<component base="l"/>
	</outline>
</glyph>
<glyph name="oe" format="2">
	<unicode hex="0153"/>
	<advance width="815"/>
	<outline>
		<contour>
			<point x="242" y="-16" type="curve" smooth="yes"/>
			<point x="330" y="-16"/>
			<point x="402" y="26"/>
			<point x="453" y="99" type="curve"/>
			<point x="530" y="400" type="line"/>
			<point x="493" y="471"/>
			<point x="429" y="503"/>
			<point x="349" y="503" type="curve" smooth="yes"/>
			<point x="172" y="503"/>
			<point x="44" y="343"/>
			<point x="44" y="181" type="curve" smooth="yes"/>
			<point x="44" y="43"/>
			<point x="134" y="-16"/>
		</contour>
		<contour>
			<point x="261" y="44" type="curve" smooth="yes"/>
			<point x="235" y="44"/>
			<point x="214" y="62"/>
			<point x="214" y="139" type="curve" smooth="yes"/>
			<point x="214" y="269"/>
			<point x="262" y="443"/>
			<point x="335" y="443" type="curve" smooth="yes"/>
			<point x="363" y="443"/>
			<point x="382" y="424"/>
			<point x="382" y="354" type="curve" smooth="yes"/>
			<point x="382" y="212"/>
			<point x="332" y="44"/>
		</contour>
		<component base="e" xOffset="319"/>
	</outline>
	<anchor name="aboveLC" x="513" y="520"/>
</glyph>
<glyph name="Uogonek" format="1">
	<unicode hex="0172"/>
	<advance width="713"/>
	<outline>
		<component base="U"/>
		<component base="ogonekcmb" xOffset="454"/>
		<contour>
			<point name="aboveUC" x="495" y="682" type="move"/>
		</contour>
	</outline>
</glyph>
<glyph name="uogonek" format="1">
	<unicode hex="0173"/>
	<advance width="598"/>
	<outline>
		<component base="u"/>
		<component base="ogonekcmb" xOffset="496"/>
		<contour>
			<point name="aboveLC" x="360" y="520" type="move"/>
		</contour>
	</outline>
</glyph>
<glyph name="longs" format="2">
	<unicode hex="017F"/>
	<advance width="352"/>
	<outline>
		<contour>
			<point x="388" y="731" type="curve" smooth="yes"/>
			<point x="336" y="731"/>
			<point x="289" y="715"/>
			<point x="249" y="686" type="curve" smooth="yes"/>
			<point x="184" y="639"/>
			<point x="142" y="553"/>
			<point x="127" y="440" type="curve" smooth="yes"/>
			<point x="110" y="311"/>
			<point x="94" y="176"/>
			<point x="76" y="52" type="curve" smooth="yes"/>
			<point x="67" y="-6"/>
			<point x="58" y="-63"/>
			<point x="43" y="-115" type="curve" smooth="yes"/>
			<point x="33" y="-151"/>
			<point x="21" y="-174"/>
			<point x="7" y="-197" type="curve"/>
			<point x="24" y="-195" type="line"/>
			<point x="-10" y="-141" type="line" smooth="yes"/>
			<point x="-33" y="-104"/>
			<point x="-61" y="-81"/>
			<point x="-97" y="-81" type="curve" smooth="yes"/>
			<point x="-138" y="-81"/>
			<point x="-158" y="-110"/>
			<point x="-163" y="-149" type="curve"/>
			<point x="-134" y="-213"/>
			<point x="-78" y="-232"/>
			<point x="-13" y="-232" type="curve" smooth="yes"/>
			<point x="37" y="-232"/>
			<point x="103" y="-204"/>
			<point x="144" y="-158" type="curve" smooth="yes"/>
			<point x="189" y="-108"/>
			<point x="219" y="-41"/>
			<point x="236" y="51" type="curve" smooth="yes"/>
			<point x="261" y="191"/>
			<point x="280" y="350"/>
			<point x="303" y="513" type="curve" smooth="yes"/>
			<point x="320" y="636"/>
			<point x="333" y="680"/>
			<point x="362" y="699" type="curve" smooth="yes"/>
			<point x="369" y="704"/>
			<point x="377" y="708"/>
			<point x="384" y="713" type="curve"/>
			<point x="338" y="699" type="line"/>
			<point x="373" y="635" type="line" smooth="yes"/>
			<point x="390" y="605"/>
			<point x="416" y="583"/>
			<point x="448" y="583" type="curve" smooth="yes"/>
			<point x="483" y="583"/>
			<point x="523" y="614"/>
			<point x="526" y="653" type="curve"/>
			<point x="513" y="701"/>
			<point x="451" y="731"/>
		</contour>
	</outline>
</glyph>
<glyph name="florin" format="2">
	<unicode hex="0192"/>
	<advance width="560"/>
	<outline>
		<contour>
			<point x="167" y="351" type="line"/>
			<point x="492" y="351" type="line"/>
			<point x="504" y="411" type="line"/>
			<point x="179" y="411" type="line"/>
		</contour>
		<contour>
			<point x="400" y="366" type="line" smooth="yes"/>
			<point x="421" y="468"/>
			<point x="432" y="521"/>
			<point x="453" y="561" type="curve" smooth="yes"/>
			<point x="469" y="592"/>
			<point x="491" y="608"/>
			<point x="520" y="618" type="curve"/>
			<point x="458" y="613" type="line"/>
			<point x="492" y="550" type="line" smooth="yes"/>
			<point x="512" y="513"/>
			<point x="525" y="503"/>
			<point x="554" y="503" type="curve" smooth="yes"/>
			<point x="586" y="503"/>
			<point x="613" y="527"/>
			<point x="611" y="574" type="curve"/>
			<point x="591" y="620"/>
			<point x="554" y="640"/>
			<point x="492" y="640" type="curve" smooth="yes"/>
			<point x="434" y="640"/>
			<point x="387" y="625"/>
			<point x="345" y="579" type="curve" smooth="yes"/>
			<point x="305" y="537"/>
			<point x="275" y="473"/>
			<point x="251" y="360" type="curve" smooth="yes"/>
			<point x="221" y="211" type="line" smooth="yes"/>
			<point x="195" y="80"/>
			<point x="183" y="18"/>
			<point x="160" y="-27" type="curve" smooth="yes"/>
			<point x="144" y="-58"/>
			<point x="122" y="-74"/>
			<point x="93" y="-84" type="curve"/>
			<point x="147" y="-71" type="line"/>
			<point x="118" y="-10" type="line" smooth="yes"/>
			<point x="102" y="24"/>
			<point x="85" y="35"/>
			<point x="60" y="35" type="curve" smooth="yes"/>
			<point x="31" y="35"/>
			<point x="8" y="17"/>
			<point x="0" y="-18" type="curve"/>
			<point x="6" y="-74"/>
			<point x="55" y="-106"/>
			<point x="123" y="-106" type="curve" smooth="yes"/>
			<point x="179" y="-106"/>
			<point x="226" y="-91"/>
			<point x="267" y="-45" type="curve" smooth="yes"/>
			<point x="314" y="3"/>
			<point x="344" y="81"/>
			<point x="372" y="227" type="curve" smooth="yes"/>
		</contour>
	</outline>
</glyph>
<glyph name="gscript" format="2">
	<unicode hex="0261"/>
	<advance width="573"/>
	<outline>
		<contour>
			<point x="170" y="-232" type="curve" smooth="yes"/>
			<point x="240" y="-232"/>
			<point x="326" y="-217"/>
			<point x="377" y="-172" type="curve" smooth="yes"/>
			<point x="449" y="-112"/>
			<point x="477" y="-40"/>
			<point x="501" y="89" type="curve" smooth="yes"/>
			<point x="552" y="358" type="line"/>
			<point x="582" y="490" type="line"/>
			<point x="567" y="504" type="line"/>
			<point x="398" y="437" type="line"/>
			<point x="330" y="65" type="line" smooth="yes"/>
			<point x="320" y="10"/>
			<point x="306" y="-56"/>
			<point x="281" y="-98" type="curve" smooth="yes"/>
			<point x="256" y="-140"/>
			<point x="205" y="-178"/>
			<point x="140" y="-178" type="curve" smooth="yes"/>
			<point x="124" y="-178"/>
			<point x="110" y="-175"/>
			<point x="97" y="-172" type="curve"/>
			<point x="141" y="-198" type="line"/>
			<point x="139" y="-147" type="line" smooth="yes"/>
			<point x="136" y="-60"/>
			<point x="117" y="-34"/>
			<point x="65" y="-34" type="curve" smooth="yes"/>
			<point x="26" y="-34"/>
			<point x="4" y="-58"/>
			<point x="-9" y="-86" type="curve"/>
			<point x="-9" y="-173"/>
			<point x="37" y="-232"/>
		</contour>
		<contour>
			<point x="159" y="0" type="curve" smooth="yes"/>
			<point x="226" y="0"/>
			<point x="302" y="55"/>
			<point x="358" y="126" type="curve"/>
			<point x="353" y="162" type="line"/>
			<point x="333" y="142"/>
			<point x="302" y="116"/>
			<point x="274" y="116" type="curve" smooth="yes"/>
			<point x="241" y="116"/>
			<point x="221" y="140"/>
			<point x="221" y="204" type="curve" smooth="yes"/>
			<point x="221" y="263"/>
			<point x="251" y="364"/>
			<point x="294" y="402" type="curve" smooth="yes"/>
			<point x="314" y="420"/>
			<point x="330" y="426"/>
			<point x="348" y="426" type="curve" smooth="yes"/>
			<point x="372" y="426"/>
			<point x="396" y="418"/>
			<point x="419" y="403" type="curve"/>
			<point x="499" y="462" type="line"/>
			<point x="470" y="490"/>
			<point x="434" y="503"/>
			<point x="396" y="503" type="curve" smooth="yes"/>
			<point x="242" y="503"/>
			<point x="50" y="320"/>
			<point x="50" y="148" type="curve" smooth="yes"/>
			<point x="50" y="37"/>
			<point x="102" y="0"/>
		</contour>
	</outline>
	<anchor name="aboveLC" x="400" y="520"/>
	<anchor name="belowLC" x="162" y="-226"/>
</glyph>
<glyph name="w.sups" format="2">
	<unicode hex="02B7"/>
	<advance width="543"/>
	<outline>
		<contour>
			<point x="190" y="406" type="curve"/>
			<point x="260" y="406" type="line"/>
			<point x="291" y="465"/>
			<point x="321" y="524"/>
			<point x="352" y="583" type="curve"/>
			<point x="361" y="524"/>
			<point x="371" y="465"/>
			<point x="380" y="406" type="curve"/>
			<point x="442" y="406" type="line"/>
			<point x="507" y="472"/>
			<point x="561" y="543"/>
			<point x="593" y="600" type="curve" smooth="yes"/>
			<point x="615" y="638"/>
			<point x="621" y="659"/>
			<point x="621" y="678" type="curve" smooth="yes"/>
			<point x="621" y="701"/>
			<point x="618" y="711"/>
			<point x="610" y="722" type="curve"/>
			<point x="602" y="728"/>
			<point x="590" y="732"/>
			<point x="578" y="732" type="curve" smooth="yes"/>
			<point x="544" y="732"/>
			<point x="518" y="714"/>
			<point x="518" y="676" type="curve" smooth="yes"/>
			<point x="518" y="660"/>
			<point x="525" y="644"/>
			<point x="553" y="567" type="curve"/>
			<point x="559" y="621" type="line"/>
			<point x="557" y="617"/>
			<point x="554" y="613"/>
			<point x="552" y="610" type="curve" smooth="yes"/>
			<point x="517" y="553"/>
			<point x="496" y="520"/>
			<point x="473" y="486" type="curve"/>
			<point x="462" y="562"/>
			<point x="451" y="637"/>
			<point x="440" y="713" type="curve"/>
			<point x="374" y="713" type="line"/>
			<point x="341" y="645"/>
			<point x="309" y="577"/>
			<point x="276" y="509" type="curve"/>
			<point x="271" y="561"/>
			<point x="265" y="613"/>
			<point x="260" y="665" type="curve" smooth="yes"/>
			<point x="256" y="708"/>
			<point x="239" y="729"/>
			<point x="203" y="729" type="curve" smooth="yes"/>
			<point x="169" y="729"/>
			<point x="136" y="705"/>
			<point x="98" y="656" type="curve"/>
			<point x="113" y="638" type="line"/>
			<point x="124" y="649"/>
			<point x="134" y="655"/>
			<point x="141" y="655" type="curve" smooth="yes"/>
			<point x="148" y="655"/>
			<point x="154" y="653"/>
			<point x="156" y="637" type="curve" smooth="yes"/>
			<point x="167" y="560"/>
			<point x="179" y="483"/>
		</contour>
	</outline>
</glyph>
<glyph name="gravecmb" format="1">
	<unicode hex="0300"/>
	<outline>
		<contour>
			<point x="101" y="563" type="line"/>
			<point x="92" y="589"/>
			<point x="85" y="619"/>
			<point x="56" y="706" type="curve" smooth="yes"/>
			<point x="32" y="777"/>
			<point x="3" y="792"/>
			<point x="-30" y="792" type="curve" smooth="yes"/>
			<point x="-63" y="792"/>
			<point x="-98" y="766"/>
			<point x="-98" y="727" type="curve" smooth="yes"/>
			<point x="-98" y="691"/>
			<point x="-75" y="660"/>
			<point x="-39" y="626" type="curve" smooth="yes"/>
			<point x="20" y="571"/>
			<point x="41" y="554"/>
			<point x="59" y="537" type="curve"/>
		</contour>
		<contour>
			<point name="_aboveLC" x="74" y="520" type="move"/>
		</contour>
	</outline>
</glyph>
<glyph name="acutecmb" format="1">
	<unicode hex="0301"/>
	<outline>
		<contour>
			<point x="61" y="563" type="curve"/>
			<point x="103" y="537" type="line"/>
			<point x="121" y="554"/>
			<point x="142" y="571"/>
			<point x="201" y="626" type="curve" smooth="yes"/>
			<point x="237" y="660"/>
			<point x="260" y="691"/>
			<point x="260" y="727" type="curve" smooth="yes"/>
			<point x="260" y="766"/>
			<point x="225" y="792"/>
			<point x="192" y="792" type="curve" smooth="yes"/>
			<point x="159" y="792"/>
			<point x="130" y="777"/>
			<point x="106" y="706" type="curve" smooth="yes"/>
			<point x="77" y="619"/>
			<point x="70" y="589"/>
		</contour>
		<contour>
			<point name="_aboveLC" x="74" y="520" type="move"/>
		</contour>
	</outline>
</glyph>
<glyph name="macroncmb" format="1">
	<unicode hex="0304"/>
	<outline>
		<contour>
			<point x="-88" y="593" type="line"/>
			<point x="246" y="593" type="line"/>
			<point x="265" y="683" type="line"/>
			<point x="-69" y="683" type="line"/>
		</contour>
		<contour>
			<point name="_aboveLC" x="74" y="520" type="move"/>
		</contour>
	</outline>
</glyph>
<glyph name="brevecmb" format="2">
	<unicode hex="0306"/>
	<outline>
		<contour>
			<point x="85" y="558" type="curve" smooth="yes"/>
			<point x="197" y="558"/>
			<point x="250" y="652"/>
			<point x="266" y="717" type="curve"/>
			<point x="221" y="730" type="line"/>
			<point x="193" y="679"/>
			<point x="147" y="659"/>
			<point x="89" y="659" type="curve" smooth="yes"/>
			<point x="37" y="659"/>
			<point x="-1" y="683"/>
			<point x="-19" y="730" type="curve"/>
			<point x="-66" y="717" type="line"/>
			<point x="-68" y="622"/>
			<point x="-16" y="558"/>
		</contour>
	</outline>
	<anchor name="_aboveLC" x="74" y="520"/>
	<anchor name="aboveLC" x="121" y="740"/>
</glyph>
<glyph name="dotaccentcmb" format="2">
	<unicode hex="0307"/>
	<outline>
		<contour>
			<point x="94" y="581" type="curve" smooth="yes"/>
			<point x="143" y="581"/>
			<point x="187" y="622"/>
			<point x="187" y="675" type="curve" smooth="yes"/>
			<point x="187" y="721"/>
			<point x="159" y="751"/>
			<point x="116" y="751" type="curve" smooth="yes"/>
			<point x="68" y="751"/>
			<point x="24" y="711"/>
			<point x="24" y="654" type="curve" smooth="yes"/>
			<point x="24" y="607"/>
			<point x="55" y="581"/>
		</contour>
	</outline>
	<anchor name="_aboveLC" x="74" y="520"/>
	<anchor name="aboveLC" x="120" y="740"/>
</glyph>
<glyph name="dieresiscmb" format="1">
	<unicode hex="0308"/>
	<outline>
		<contour>
			<point x="-24" y="582" type="curve" smooth="yes"/>
			<point x="19" y="582"/>
			<point x="63" y="614"/>
			<point x="63" y="672" type="curve" smooth="yes"/>
			<point x="63" y="715"/>
			<point x="30" y="741"/>
			<point x="-10" y="741" type="curve" smooth="yes"/>
			<point x="-53" y="741"/>
			<point x="-98" y="709"/>
			<point x="-98" y="652" type="curve" smooth="yes"/>
			<point x="-98" y="607"/>
			<point x="-63" y="582"/>
		</contour>
		<contour>
			<point x="219" y="582" type="curve" smooth="yes"/>
			<point x="262" y="582"/>
			<point x="306" y="614"/>
			<point x="306" y="672" type="curve" smooth="yes"/>
			<point x="306" y="715"/>
			<point x="273" y="741"/>
			<point x="233" y="741" type="curve" smooth="yes"/>
			<point x="190" y="741"/>
			<point x="145" y="709"/>
			<point x="145" y="652" type="curve" smooth="yes"/>
			<point x="145" y="607"/>
			<point x="180" y="582"/>
		</contour>
		<contour>
			<point name="_aboveLC" x="74" y="520" type="move"/>
		</contour>
		<contour>
			<point name="aboveLC" x="122" y="746" type="move"/>
		</contour>
	</outline>
</glyph>
<glyph name="hoicmb" format="2">
	<unicode hex="0309"/>
	<outline>
		<contour>
			<point x="56" y="557" type="line"/>
			<point x="142" y="567"/>
			<point x="201" y="605"/>
			<point x="201" y="684" type="curve" smooth="yes"/>
			<point x="201" y="746"/>
			<point x="157" y="793"/>
			<point x="37" y="803" type="curve"/>
			<point x="14" y="689" type="line"/>
			<point x="86" y="681"/>
			<point x="110" y="674"/>
			<point x="110" y="656" type="curve" smooth="yes"/>
			<point x="110" y="637"/>
			<point x="94" y="625"/>
			<point x="45" y="611" type="curve"/>
		</contour>
	</outline>
	<anchor name="_aboveLC" x="74" y="520"/>
</glyph>
<glyph name="ringcmb" format="1">
	<unicode hex="030A"/>
	<outline>
		<contour>
			<point x="-22" y="596"/>
			<point x="29" y="554"/>
			<point x="99" y="554" type="curve" smooth="yes"/>
			<point x="169" y="554"/>
			<point x="234" y="602"/>
			<point x="234" y="689" type="curve" smooth="yes"/>
			<point x="234" y="754"/>
			<point x="184" y="794"/>
			<point x="116" y="794" type="curve" smooth="yes"/>
			<point x="43" y="794"/>
			<point x="-22" y="743"/>
			<point x="-22" y="660" type="curve" smooth="yes"/>
		</contour>
		<contour>
			<point x="98" y="610" type="curve" smooth="yes"/>
			<point x="67" y="610"/>
			<point x="46" y="634"/>
			<point x="46" y="666" type="curve" smooth="yes"/>
			<point x="46" y="703"/>
			<point x="72" y="738"/>
			<point x="112" y="738" type="curve" smooth="yes"/>
			<point x="149" y="738"/>
			<point x="166" y="710"/>
			<point x="166" y="682" type="curve" smooth="yes"/>
			<point x="166" y="641"/>
			<point x="138" y="610"/>
		</contour>
		<contour>
			<point name="_aboveLC" x="74" y="524" type="move"/>
		</contour>
	</outline>
</glyph>
<glyph name="hungarumlautcmb" format="2">
	<unicode hex="030B"/>
	<outline>
		<contour>
			<point x="-45" y="582" type="line"/>
			<point x="-3" y="552" type="line"/>
			<point x="107" y="663" type="line" smooth="yes"/>
			<point x="144" y="700"/>
			<point x="159" y="722"/>
			<point x="159" y="750" type="curve" smooth="yes"/>
			<point x="159" y="781"/>
			<point x="140" y="799"/>
			<point x="108" y="799" type="curve" smooth="yes"/>
			<point x="77" y="799"/>
			<point x="54" y="778"/>
			<point x="24" y="719" type="curve" smooth="yes"/>
		</contour>
		<contour>
			<point x="135" y="582" type="line"/>
			<point x="177" y="552" type="line"/>
			<point x="287" y="663" type="line" smooth="yes"/>
			<point x="324" y="700"/>
			<point x="339" y="722"/>
			<point x="339" y="750" type="curve" smooth="yes"/>
			<point x="339" y="781"/>
			<point x="320" y="799"/>
			<point x="288" y="799" type="curve" smooth="yes"/>
			<point x="257" y="799"/>
			<point x="234" y="778"/>
			<point x="204" y="719" type="curve" smooth="yes"/>
		</contour>
	</outline>
	<anchor name="_aboveLC" x="74" y="524"/>
	<anchor name="aboveLC" x="135" y="809"/>
</glyph>
<glyph name="caroncmb" format="1">
	<unicode hex="030C"/>
	<outline>
		<contour>
			<point x="-1" y="779" type="line"/>
			<point x="-42" y="752" type="line"/>
			<point x="41" y="563" type="line"/>
			<point x="131" y="563" type="line"/>
			<point x="287" y="744" type="line"/>
			<point x="250" y="781" type="line"/>
			<point x="53" y="630" type="line"/>
			<point x="141" y="630" type="line"/>
		</contour>
		<contour>
			<point name="_aboveLC" x="74" y="520" type="move"/>
		</contour>
	</outline>
</glyph>
<glyph name="horncmb" format="2">
	<unicode hex="031B"/>
	<outline>
		<contour>
			<point x="-32" y="379" type="line"/>
			<point x="62" y="384"/>
			<point x="173" y="466"/>
			<point x="173" y="576" type="curve" smooth="yes"/>
			<point x="173" y="592"/>
			<point x="172" y="604"/>
			<point x="168" y="617" type="curve"/>
			<point x="155" y="630"/>
			<point x="140" y="635"/>
			<point x="120" y="635" type="curve" smooth="yes"/>
			<point x="79" y="635"/>
			<point x="48" y="607"/>
			<point x="48" y="569" type="curve" smooth="yes"/>
			<point x="48" y="531"/>
			<point x="74" y="517"/>
			<point x="74" y="490" type="curve" smooth="yes"/>
			<point x="74" y="458"/>
			<point x="25" y="435"/>
			<point x="-32" y="429" type="curve"/>
		</contour>
	</outline>
	<anchor name="_hornLC" x="61" y="478"/>
</glyph>
<glyph name="commabelowcmb" format="1">
	<unicode hex="0326"/>
	<outline>
		<contour>
			<point x="-124" y="-281" type="line"/>
			<point x="-41" y="-241"/>
			<point x="13" y="-186"/>
			<point x="13" y="-115" type="curve" smooth="yes"/>
			<point x="13" y="-97"/>
			<point x="13" y="-90"/>
			<point x="6" y="-71" type="curve"/>
			<point x="-22" y="-54"/>
			<point x="-38" y="-49"/>
			<point x="-59" y="-49" type="curve" smooth="yes"/>
			<point x="-101" y="-49"/>
			<point x="-134" y="-76"/>
			<point x="-134" y="-116" type="curve" smooth="yes"/>
			<point x="-134" y="-152"/>
			<point x="-110" y="-181"/>
			<point x="-77" y="-208" type="curve"/>
			<point x="-53" y="-131" type="line"/>
			<point x="-72" y="-188"/>
			<point x="-99" y="-207"/>
			<point x="-150" y="-237" type="curve"/>
		</contour>
		<contour>
			<point name="_belowLC" x="-42" y="-22" type="move"/>
		</contour>
	</outline>
</glyph>
<glyph name="ogonekcmb" format="2">
	<unicode hex="0328"/>
	<outline>
		<contour>
			<point x="-148" y="-157" type="curve" smooth="yes"/>
			<point x="-148" y="-202"/>
			<point x="-117" y="-232"/>
			<point x="-59" y="-232" type="curve" smooth="yes"/>
			<point x="1" y="-232"/>
			<point x="38" y="-205"/>
			<point x="66" y="-178" type="curve"/>
			<point x="49" y="-146" type="line"/>
			<point x="33" y="-155"/>
			<point x="18" y="-161"/>
			<point x="1" y="-161" type="curve" smooth="yes"/>
			<point x="-24" y="-161"/>
			<point x="-42" y="-145"/>
			<point x="-42" y="-115" type="curve" smooth="yes"/>
			<point x="-42" y="-81"/>
			<point x="-24" y="-44"/>
			<point x="19" y="13" type="curve"/>
			<point x="-19" y="13" type="line"/>
			<point x="-95" y="-52"/>
			<point x="-148" y="-102"/>
		</contour>
	</outline>
	<anchor name="_ogonek" x="-21" y="0"/>
</glyph>
<glyph name="verticallinebelowcmb" format="2">
	<unicode hex="0329"/>
	<outline>
		<contour>
			<point x="-119" y="-270" type="line"/>
			<point x="17" y="-270" type="line"/>
			<point x="49" y="-62" type="line"/>
			<point x="-75" y="-62" type="line"/>
		</contour>
	</outline>
	<anchor name="_belowLC" x="-5" y="-22"/>
	<anchor name="belowLC" x="-60" y="-280"/>
</glyph>
<glyph name="Delta" format="1">
	<unicode hex="0394"/>
	<advance width="601"/>
	<outline>
		<contour>
			<point x="-15" y="0" type="line"/>
			<point x="541" y="0" type="line"/>
			<point x="558" y="90" type="line"/>
			<point x="434" y="652" type="line"/>
			<point x="319" y="652" type="line"/>
			<point x="4" y="90" type="line"/>
		</contour>
		<contour>
			<point x="61" y="78" type="line"/>
			<point x="311" y="538" type="line"/>
			<point x="291" y="541" type="line"/>
			<point x="385" y="75" type="line"/>
			<point x="409" y="90" type="line"/>
			<point x="45" y="90" type="line"/>
		</contour>
	</outline>
</glyph>
<glyph name="Theta" format="1">
	<unicode hex="0398"/>
	<advance width="672"/>
	<outline>
		<contour>
			<point x="389" y="312" type="line"/>
			<point x="385" y="215" type="line"/>
			<point x="438" y="215" type="line"/>
			<point x="478" y="422" type="line"/>
			<point x="425" y="422" type="line"/>
			<point x="392" y="330" type="line"/>
		</contour>
		<contour>
			<point x="327" y="312" type="line"/>
			<point x="330" y="330" type="line"/>
			<point x="333" y="422" type="line"/>
			<point x="280" y="422" type="line"/>
			<point x="240" y="215" type="line"/>
			<point x="293" y="215" type="line"/>
		</contour>
		<contour>
			<point x="305" y="355" type="line"/>
			<point x="291" y="281" type="line"/>
			<point x="413" y="281" type="line"/>
			<point x="427" y="355" type="line"/>
		</contour>
		<component base="O"/>
	</outline>
</glyph>
<glyph name="Lambda" format="1">
	<unicode hex="039B"/>
	<advance width="693"/>
	<outline>
		<contour>
			<point x="-29" y="0" type="line"/>
			<point x="198" y="0" type="line"/>
			<point x="210" y="59" type="line"/>
			<point x="119" y="74" type="line"/>
			<point x="86" y="74" type="line"/>
			<point x="-17" y="59" type="line"/>
		</contour>
		<contour>
			<point x="33" y="0" type="line"/>
			<point x="94" y="0" type="line"/>
			<point x="385" y="583" type="line"/>
			<point x="342" y="533" type="line"/>
			<point x="422" y="0" type="line"/>
			<point x="595" y="0" type="line"/>
			<point x="483" y="652" type="line"/>
			<point x="368" y="652" type="line"/>
		</contour>
		<contour>
			<point x="320" y="0" type="line"/>
			<point x="647" y="0" type="line"/>
			<point x="659" y="59" type="line"/>
			<point x="518" y="74" type="line"/>
			<point x="485" y="74" type="line"/>
			<point x="332" y="59" type="line"/>
		</contour>
	</outline>
</glyph>
<glyph name="Xi" format="2">
	<unicode hex="039E"/>
	<advance width="585"/>
	<outline>
		<contour>
			<point x="395" y="320" type="line"/>
			<point x="392" y="228" type="line"/>
			<point x="455" y="228" type="line"/>
			<point x="493" y="425" type="line"/>
			<point x="430" y="425" type="line"/>
			<point x="398" y="338" type="line"/>
		</contour>
		<contour>
			<point x="239" y="320" type="line"/>
			<point x="242" y="338" type="line"/>
			<point x="244" y="425" type="line"/>
			<point x="181" y="425" type="line"/>
			<point x="143" y="228" type="line"/>
			<point x="206" y="228" type="line"/>
		</contour>
		<contour>
			<point x="219" y="364" type="line"/>
			<point x="202" y="292" type="line"/>
			<point x="418" y="292" type="line"/>
			<point x="435" y="364" type="line"/>
		</contour>
		<contour>
			<point x="126" y="652" type="line"/>
			<point x="80" y="452" type="line"/>
			<point x="154" y="452" type="line"/>
			<point x="222" y="652" type="line"/>
			<point x="134" y="529" type="line"/>
			<point x="571" y="529" type="line"/>
			<point x="533" y="652" type="line"/>
			<point x="523" y="452" type="line"/>
			<point x="597" y="452" type="line"/>
			<point x="629" y="652" type="line"/>
		</contour>
		<contour>
			<point x="519" y="0" type="line"/>
			<point x="565" y="200" type="line"/>
			<point x="491" y="200" type="line"/>
			<point x="423" y="0" type="line"/>
			<point x="511" y="123" type="line"/>
			<point x="54" y="123" type="line"/>
			<point x="92" y="0" type="line"/>
			<point x="102" y="200" type="line"/>
			<point x="28" y="200" type="line"/>
			<point x="-4" y="0" type="line"/>
		</contour>
	</outline>
</glyph>
<glyph name="Pi" format="2">
	<unicode hex="03A0"/>
	<advance width="744"/>
	<outline>
		<contour>
			<point x="-9" y="0" type="line"/>
			<point x="318" y="0" type="line"/>
			<point x="330" y="59" type="line"/>
			<point x="189" y="74" type="line"/>
			<point x="156" y="74" type="line"/>
			<point x="3" y="59" type="line"/>
		</contour>
		<contour>
			<point x="66" y="0" type="line"/>
			<point x="245" y="0" type="line"/>
			<point x="262" y="103"/>
			<point x="281" y="207"/>
			<point x="301" y="311" type="curve" smooth="yes"/>
			<point x="366" y="652" type="line"/>
			<point x="186" y="652" type="line"/>
			<point x="169" y="549"/>
			<point x="151" y="445"/>
			<point x="131" y="342" type="curve" smooth="yes"/>
		</contour>
		<contour>
			<point x="351" y="0" type="line"/>
			<point x="678" y="0" type="line"/>
			<point x="690" y="59" type="line"/>
			<point x="549" y="74" type="line"/>
			<point x="516" y="74" type="line"/>
			<point x="363" y="59" type="line"/>
		</contour>
		<contour>
			<point x="426" y="0" type="line"/>
			<point x="605" y="0" type="line"/>
			<point x="622" y="103"/>
			<point x="641" y="207"/>
			<point x="661" y="311" type="curve" smooth="yes"/>
			<point x="726" y="652" type="line"/>
			<point x="546" y="652" type="line"/>
			<point x="529" y="549"/>
			<point x="511" y="445"/>
			<point x="491" y="342" type="curve" smooth="yes"/>
		</contour>
		<contour>
			<point x="103" y="593" type="line"/>
			<point x="252" y="578" type="line"/>
			<point x="268" y="652" type="line"/>
			<point x="115" y="652" type="line"/>
		</contour>
		<contour>
			<point x="256" y="589" type="line"/>
			<point x="623" y="589" type="line"/>
			<point x="636" y="652" type="line"/>
			<point x="269" y="652" type="line"/>
		</contour>
		<contour>
			<point x="612" y="578" type="line"/>
			<point x="790" y="593" type="line"/>
			<point x="802" y="652" type="line"/>
			<point x="628" y="652" type="line"/>
		</contour>
	</outline>
</glyph>
<glyph name="Psi" format="1">
	<unicode hex="03A8"/>
	<advance width="848"/>
	<outline>
		<contour>
			<point x="120" y="413" type="line" smooth="yes"/>
			<point x="111" y="276"/>
			<point x="202" y="209"/>
			<point x="427" y="209" type="curve"/>
			<point x="438" y="262" type="line"/>
			<point x="302" y="262"/>
			<point x="268" y="295"/>
			<point x="277" y="405" type="curve" smooth="yes"/>
			<point x="286" y="512" type="line" smooth="yes"/>
			<point x="294" y="612"/>
			<point x="257" y="652"/>
			<point x="147" y="652" type="curve" smooth="yes"/>
			<point x="89" y="652" type="line"/>
			<point x="78" y="593" type="line"/>
			<point x="95" y="592" type="line" smooth="yes"/>
			<point x="121" y="590"/>
			<point x="130" y="574"/>
			<point x="128" y="539" type="curve" smooth="yes"/>
		</contour>
		<contour>
			<point x="448" y="262" type="curve"/>
			<point x="437" y="209" type="line"/>
			<point x="662" y="209"/>
			<point x="764" y="276"/>
			<point x="823" y="454" type="curve" smooth="yes"/>
			<point x="851" y="539" type="line" smooth="yes"/>
			<point x="863" y="574"/>
			<point x="875" y="590"/>
			<point x="901" y="592" type="curve" smooth="yes"/>
			<point x="918" y="593" type="line"/>
			<point x="929" y="652" type="line"/>
			<point x="871" y="652" type="line" smooth="yes"/>
			<point x="756" y="652"/>
			<point x="700" y="613"/>
			<point x="672" y="512" type="curve" smooth="yes"/>
			<point x="649" y="431" type="line" smooth="yes"/>
			<point x="612" y="296"/>
			<point x="573" y="262"/>
		</contour>
		<contour>
			<point x="360" y="342" type="curve" smooth="yes"/>
			<point x="295" y="0" type="line"/>
			<point x="470" y="0" type="line"/>
			<point x="485" y="94"/>
			<point x="504" y="196"/>
			<point x="526" y="311" type="curve" smooth="yes"/>
			<point x="591" y="652" type="line"/>
			<point x="415" y="652" type="line"/>
			<point x="395" y="531"/>
			<point x="377" y="432"/>
		</contour>
		<contour>
			<point x="232" y="59" type="line"/>
			<point x="220" y="0" type="line"/>
			<point x="543" y="0" type="line"/>
			<point x="555" y="59" type="line"/>
			<point x="414" y="74" type="line"/>
			<point x="385" y="74" type="line"/>
		</contour>
		<contour>
			<point x="344" y="593" type="line"/>
			<point x="481" y="578" type="line"/>
			<point x="510" y="578" type="line"/>
			<point x="639" y="593" type="line"/>
			<point x="651" y="652" type="line"/>
			<point x="356" y="652" type="line"/>
		</contour>
	</outline>
</glyph>
<glyph name="Omega" format="2">
	<unicode hex="03A9"/>
	<unicode hex="2126"/>
	<advance width="717"/>
	<outline>
		<contour>
			<point x="108" y="180" type="line"/>
			<point x="38" y="180" type="line"/>
			<point x="32" y="0" type="line"/>
			<point x="306" y="0" type="line"/>
			<point x="326" y="150" type="line"/>
			<point x="289" y="193"/>
			<point x="269" y="249"/>
			<point x="269" y="323" type="curve" smooth="yes"/>
			<point x="269" y="490"/>
			<point x="334" y="612"/>
			<point x="423" y="612" type="curve" smooth="yes"/>
			<point x="484" y="612"/>
			<point x="516" y="562"/>
			<point x="516" y="467" type="curve" smooth="yes"/>
			<point x="516" y="326"/>
			<point x="466" y="197"/>
			<point x="393" y="150" type="curve"/>
			<point x="388" y="0" type="line"/>
			<point x="646" y="0" type="line"/>
			<point x="690" y="180" type="line"/>
			<point x="620" y="180" type="line"/>
			<point x="552" y="23" type="line"/>
			<point x="611" y="80" type="line"/>
			<point x="423" y="80" type="line"/>
			<point x="480" y="37" type="line"/>
			<point x="474" y="114" type="line"/>
			<point x="612" y="172"/>
			<point x="696" y="294"/>
			<point x="696" y="431" type="curve" smooth="yes"/>
			<point x="696" y="577"/>
			<point x="586" y="672"/>
			<point x="418" y="672" type="curve" smooth="yes"/>
			<point x="232" y="672"/>
			<point x="89" y="534"/>
			<point x="89" y="355" type="curve" smooth="yes"/>
			<point x="89" y="250"/>
			<point x="138" y="168"/>
			<point x="233" y="114" type="curve"/>
			<point x="225" y="45" type="line"/>
			<point x="264" y="87" type="line"/>
			<point x="69" y="87" type="line"/>
			<point x="134" y="30" type="line"/>
		</contour>
	</outline>
</glyph>
<glyph name="alpha" format="1">
	<unicode hex="03B1"/>
	<advance width="625"/>
	<outline>
		<contour>
			<point x="42" y="45"/>
			<point x="91" y="-16"/>
			<point x="163" y="-16" type="curve" smooth="yes"/>
			<point x="255" y="-16"/>
			<point x="328" y="70"/>
			<point x="394" y="178" type="curve"/>
			<point x="373" y="212" type="line"/>
			<point x="328" y="150"/>
			<point x="281" y="96"/>
			<point x="246" y="96" type="curve" smooth="yes"/>
			<point x="227" y="96"/>
			<point x="208" y="114"/>
			<point x="208" y="174" type="curve" smooth="yes"/>
			<point x="208" y="314"/>
			<point x="271" y="421"/>
			<point x="313" y="421" type="curve" smooth="yes"/>
			<point x="323" y="421"/>
			<point x="328" y="413"/>
			<point x="329" y="388" type="curve" smooth="yes"/>
			<point x="342" y="98" type="line" smooth="yes"/>
			<point x="346" y="17"/>
			<point x="387" y="-16"/>
			<point x="447" y="-16" type="curve" smooth="yes"/>
			<point x="504" y="-16"/>
			<point x="567" y="16"/>
			<point x="610" y="83" type="curve"/>
			<point x="582" y="115" type="line"/>
			<point x="560" y="91"/>
			<point x="547" y="86"/>
			<point x="537" y="86" type="curve" smooth="yes"/>
			<point x="522" y="86"/>
			<point x="510" y="103"/>
			<point x="505" y="155" type="curve" smooth="yes"/>
			<point x="495" y="250" type="line"/>
			<point x="478" y="276" type="line"/>
			<point x="470" y="367" type="line" smooth="yes"/>
			<point x="463" y="450"/>
			<point x="409" y="502"/>
			<point x="328" y="502" type="curve" smooth="yes"/>
			<point x="179" y="502"/>
			<point x="42" y="339"/>
			<point x="42" y="142" type="curve" smooth="yes"/>
		</contour>
		<contour>
			<point x="484" y="214" type="line"/>
			<point x="673" y="434" type="line"/>
			<point x="673" y="450" type="line"/>
			<point x="548" y="511" type="line"/>
			<point x="450" y="242" type="line"/>
		</contour>
		<contour>
			<point name="aboveLC" x="396" y="523" type="move"/>
		</contour>
		<contour>
			<point name="belowLC" x="316" y="-22" type="move"/>
		</contour>
	</outline>
</glyph>
<glyph name="beta" format="1">
	<unicode hex="03B2"/>
	<advance width="603"/>
	<outline>
		<contour>
			<point x="432" y="320"/>
			<point x="614" y="394"/>
			<point x="614" y="552" type="curve" smooth="yes"/>
			<point x="614" y="658"/>
			<point x="523" y="721"/>
			<point x="397" y="721" type="curve" smooth="yes"/>
			<point x="247" y="721"/>
			<point x="153" y="648"/>
			<point x="116" y="456" type="curve" smooth="yes"/>
			<point x="-7" y="-183" type="line"/>
			<point x="13" y="-196" type="line"/>
			<point x="174" y="-179" type="line"/>
			<point x="204" y="42" type="line"/>
			<point x="210" y="53" type="line"/>
			<point x="287" y="479" type="line" smooth="yes"/>
			<point x="314" y="630"/>
			<point x="337" y="666"/>
			<point x="386" y="666" type="curve" smooth="yes"/>
			<point x="423" y="666"/>
			<point x="448" y="642"/>
			<point x="448" y="584" type="curve" smooth="yes"/>
			<point x="448" y="533"/>
			<point x="438" y="446"/>
			<point x="312" y="428" type="curve"/>
			<point x="324" y="303" type="line"/>
		</contour>
		<contour>
			<point x="593" y="220" type="curve" smooth="yes"/>
			<point x="593" y="326"/>
			<point x="496" y="391"/>
			<point x="393" y="367" type="curve"/>
			<point x="341" y="314" type="line"/>
			<point x="387" y="322"/>
			<point x="423" y="291"/>
			<point x="423" y="220" type="curve" smooth="yes"/>
			<point x="423" y="134"/>
			<point x="372" y="77"/>
			<point x="297" y="77" type="curve" smooth="yes"/>
			<point x="237" y="77"/>
			<point x="210" y="95"/>
			<point x="186" y="128" type="curve"/>
			<point x="164" y="83" type="line"/>
			<point x="185" y="34"/>
			<point x="255" y="-16"/>
			<point x="351" y="-16" type="curve" smooth="yes"/>
			<point x="467" y="-16"/>
			<point x="593" y="62"/>
		</contour>
	</outline>
</glyph>
<glyph name="gamma" format="1">
	<unicode hex="03B3"/>
	<advance width="535"/>
	<outline>
		<contour>
			<point x="178" y="-30" type="curve"/>
			<point x="188" y="-10" type="line"/>
			<point x="271" y="-16" type="line"/>
			<point x="376" y="90"/>
			<point x="459" y="208"/>
			<point x="511" y="300" type="curve" smooth="yes"/>
			<point x="543" y="356"/>
			<point x="552" y="388"/>
			<point x="552" y="420" type="curve" smooth="yes"/>
			<point x="552" y="457"/>
			<point x="548" y="474"/>
			<point x="534" y="493" type="curve"/>
			<point x="522" y="501"/>
			<point x="504" y="508"/>
			<point x="485" y="508" type="curve" smooth="yes"/>
			<point x="431" y="508"/>
			<point x="390" y="479"/>
			<point x="390" y="419" type="curve" smooth="yes"/>
			<point x="390" y="388"/>
			<point x="405" y="354"/>
			<point x="417" y="322" type="curve" smooth="yes"/>
			<point x="450" y="231" type="line"/>
			<point x="475" y="376" type="line"/>
			<point x="469" y="365"/>
			<point x="462" y="354"/>
			<point x="456" y="343" type="curve" smooth="yes"/>
			<point x="403" y="238"/>
			<point x="356" y="158"/>
			<point x="288" y="66" type="curve"/>
			<point x="317" y="80" type="line"/>
			<point x="315" y="182"/>
			<point x="305" y="293"/>
			<point x="294" y="399" type="curve" smooth="yes"/>
			<point x="287" y="468"/>
			<point x="259" y="503"/>
			<point x="199" y="503" type="curve" smooth="yes"/>
			<point x="152" y="503"/>
			<point x="99" y="479"/>
			<point x="39" y="395" type="curve"/>
			<point x="67" y="363" type="line"/>
			<point x="80" y="376"/>
			<point x="91" y="383"/>
			<point x="104" y="383" type="curve" smooth="yes"/>
			<point x="113" y="383"/>
			<point x="123" y="380"/>
			<point x="126" y="356" type="curve" smooth="yes"/>
			<point x="144" y="227"/>
			<point x="164" y="99"/>
		</contour>
		<contour>
			<point x="183" y="25" type="line"/>
			<point x="109" y="-183" type="line"/>
			<point x="129" y="-196" type="line"/>
			<point x="289" y="-179" type="line"/>
			<point x="315" y="53" type="line"/>
		</contour>
	</outline>
</glyph>
<glyph name="delta" format="1">
	<unicode hex="03B4"/>
	<advance width="536"/>
	<outline>
		<contour>
			<point x="41" y="179" type="curve" smooth="yes"/>
			<point x="41" y="66"/>
			<point x="116" y="-16"/>
			<point x="252" y="-16" type="curve" smooth="yes"/>
			<point x="397" y="-16"/>
			<point x="528" y="111"/>
			<point x="528" y="259" type="curve" smooth="yes"/>
			<point x="528" y="325"/>
			<point x="514" y="388"/>
			<point x="405" y="488" type="curve" smooth="yes"/>
			<point x="343" y="545"/>
			<point x="324" y="573"/>
			<point x="324" y="608" type="curve" smooth="yes"/>
			<point x="324" y="640"/>
			<point x="344" y="666"/>
			<point x="382" y="666" type="curve" smooth="yes"/>
			<point x="408" y="666"/>
			<point x="420" y="660"/>
			<point x="447" y="639" type="curve"/>
			<point x="438" y="693" type="line"/>
			<point x="380" y="693" type="line"/>
			<point x="436" y="582" type="line" smooth="yes"/>
			<point x="457" y="540"/>
			<point x="490" y="517"/>
			<point x="520" y="517" type="curve" smooth="yes"/>
			<point x="548" y="517"/>
			<point x="581" y="537"/>
			<point x="591" y="571" type="curve"/>
			<point x="575" y="650"/>
			<point x="494" y="719"/>
			<point x="371" y="721" type="curve" smooth="yes"/>
			<point x="242" y="723"/>
			<point x="164" y="658"/>
			<point x="164" y="574" type="curve" smooth="yes"/>
			<point x="164" y="514"/>
			<point x="194" y="468"/>
			<point x="272" y="397" type="curve" smooth="yes"/>
			<point x="350" y="328"/>
			<point x="358" y="271"/>
			<point x="358" y="213" type="curve" smooth="yes"/>
			<point x="358" y="124"/>
			<point x="310" y="44"/>
			<point x="257" y="44" type="curve" smooth="yes"/>
			<point x="223" y="44"/>
			<point x="211" y="72"/>
			<point x="211" y="147" type="curve" smooth="yes"/>
			<point x="211" y="269"/>
			<point x="266" y="404"/>
			<point x="329" y="404" type="curve" smooth="yes"/>
			<point x="352" y="404"/>
			<point x="367" y="403"/>
			<point x="383" y="396" type="curve"/>
			<point x="380" y="426" type="line"/>
			<point x="363" y="429"/>
			<point x="337" y="430"/>
			<point x="296" y="430" type="curve" smooth="yes"/>
			<point x="183" y="430"/>
			<point x="41" y="325"/>
		</contour>
	</outline>
</glyph>
<glyph name="epsilon" format="1">
	<unicode hex="03B5"/>
	<advance width="491"/>
	<outline>
		<contour>
			<point x="31" y="118" type="curve" smooth="yes"/>
			<point x="31" y="30"/>
			<point x="113" y="-16"/>
			<point x="221" y="-16" type="curve" smooth="yes"/>
			<point x="378" y="-16"/>
			<point x="453" y="71"/>
			<point x="491" y="143" type="curve"/>
			<point x="463" y="174" type="line"/>
			<point x="417" y="127"/>
			<point x="375" y="100"/>
			<point x="301" y="99" type="curve" smooth="yes"/>
			<point x="238" y="98"/>
			<point x="211" y="113"/>
			<point x="211" y="149" type="curve" smooth="yes"/>
			<point x="211" y="192"/>
			<point x="249" y="204"/>
			<point x="319" y="204" type="curve" smooth="yes"/>
			<point x="343" y="204"/>
			<point x="369" y="204"/>
			<point x="379" y="203" type="curve"/>
			<point x="393" y="311" type="line"/>
			<point x="370" y="310"/>
			<point x="352" y="310"/>
			<point x="326" y="310" type="curve" smooth="yes"/>
			<point x="267" y="310"/>
			<point x="243" y="333"/>
			<point x="243" y="374" type="curve" smooth="yes"/>
			<point x="243" y="423"/>
			<point x="273" y="446"/>
			<point x="318" y="446" type="curve" smooth="yes"/>
			<point x="353" y="446"/>
			<point x="383" y="449"/>
			<point x="423" y="440" type="curve"/>
			<point x="418" y="477" type="line"/>
			<point x="288" y="470" type="line"/>
			<point x="342" y="407" type="line" smooth="yes"/>
			<point x="371" y="373"/>
			<point x="399" y="358"/>
			<point x="433" y="358" type="curve" smooth="yes"/>
			<point x="466" y="358"/>
			<point x="508" y="380"/>
			<point x="510" y="438" type="curve"/>
			<point x="475" y="483"/>
			<point x="402" y="503"/>
			<point x="312" y="503" type="curve" smooth="yes"/>
			<point x="186" y="503"/>
			<point x="73" y="451"/>
			<point x="73" y="354" type="curve" smooth="yes"/>
			<point x="73" y="280"/>
			<point x="136" y="247"/>
			<point x="245" y="242" type="curve"/>
			<point x="204" y="256" type="line"/>
			<point x="96" y="251"/>
			<point x="31" y="204"/>
		</contour>
		<contour>
			<point name="aboveLC" x="294" y="520" type="move"/>
		</contour>
	</outline>
</glyph>
<glyph name="zeta" format="1">
	<unicode hex="03B6"/>
	<advance width="428"/>
	<outline>
		<contour>
			<point x="343" y="575" type="line"/>
			<point x="135" y="405"/>
			<point x="39" y="278"/>
			<point x="39" y="174" type="curve" smooth="yes"/>
			<point x="39" y="112"/>
			<point x="73" y="66"/>
			<point x="164" y="6" type="curve" smooth="yes"/>
			<point x="235" y="-40"/>
			<point x="250" y="-57"/>
			<point x="250" y="-95" type="curve" smooth="yes"/>
			<point x="250" y="-118"/>
			<point x="241" y="-147"/>
			<point x="222" y="-181" type="curve"/>
			<point x="248" y="-207" type="line"/>
			<point x="356" y="-143"/>
			<point x="403" y="-88"/>
			<point x="403" y="-25" type="curve" smooth="yes"/>
			<point x="403" y="27"/>
			<point x="374" y="64"/>
			<point x="284" y="123" type="curve" smooth="yes"/>
			<point x="223" y="163"/>
			<point x="209" y="182"/>
			<point x="209" y="229" type="curve" smooth="yes"/>
			<point x="209" y="314"/>
			<point x="274" y="410"/>
			<point x="414" y="540" type="curve"/>
			<point x="496" y="564"/>
			<point x="556" y="617"/>
			<point x="561" y="695" type="curve"/>
			<point x="546" y="717" type="line"/>
			<point x="449" y="709" type="line"/>
		</contour>
		<contour>
			<point x="324" y="549" type="curve" smooth="yes"/>
			<point x="384" y="549"/>
			<point x="422" y="574"/>
			<point x="466" y="642" type="curve"/>
			<point x="430" y="628" type="line"/>
			<point x="411" y="606"/>
			<point x="384" y="594"/>
			<point x="355" y="594" type="curve" smooth="yes"/>
			<point x="296" y="594"/>
			<point x="249" y="626"/>
			<point x="235" y="675" type="curve"/>
			<point x="251" y="600" type="line"/>
			<point x="263" y="635"/>
			<point x="268" y="665"/>
			<point x="268" y="691" type="curve" smooth="yes"/>
			<point x="269" y="751"/>
			<point x="236" y="779"/>
			<point x="164" y="779" type="curve"/>
			<point x="133" y="761"/>
			<point x="115" y="727"/>
			<point x="115" y="687" type="curve" smooth="yes"/>
			<point x="115" y="610"/>
			<point x="208" y="549"/>
		</contour>
	</outline>
</glyph>
<glyph name="eta" format="1">
	<unicode hex="03B7"/>
	<advance width="561"/>
	<outline>
		<contour>
			<point x="206" y="503" type="curve" smooth="yes"/>
			<point x="155" y="503"/>
			<point x="109" y="472"/>
			<point x="44" y="393" type="curve"/>
			<point x="67" y="363" type="line"/>
			<point x="79" y="374"/>
			<point x="94" y="383"/>
			<point x="104" y="383" type="curve" smooth="yes"/>
			<point x="118" y="383"/>
			<point x="121" y="374"/>
			<point x="114" y="339" type="curve" smooth="yes"/>
			<point x="98" y="260"/>
			<point x="82" y="189"/>
			<point x="35" y="5" type="curve"/>
			<point x="46" y="-8" type="line"/>
			<point x="210" y="0" type="line"/>
			<point x="281" y="347" type="line"/>
			<point x="299" y="451"/>
			<point x="274" y="503"/>
		</contour>
		<contour>
			<point x="370" y="208" type="curve" smooth="yes"/>
			<point x="275" y="-183" type="line"/>
			<point x="285" y="-196" type="line"/>
			<point x="453" y="-177" type="line"/>
			<point x="503" y="64" type="line" smooth="yes"/>
			<point x="550" y="291"/>
			<point x="559" y="340"/>
			<point x="559" y="394" type="curve" smooth="yes"/>
			<point x="559" y="463"/>
			<point x="523" y="503"/>
			<point x="459" y="503" type="curve" smooth="yes"/>
			<point x="393" y="503"/>
			<point x="322" y="451"/>
			<point x="257" y="353" type="curve"/>
			<point x="260" y="316" type="line"/>
			<point x="301" y="363"/>
			<point x="334" y="383"/>
			<point x="366" y="383" type="curve" smooth="yes"/>
			<point x="389" y="383"/>
			<point x="398" y="371"/>
			<point x="398" y="350" type="curve" smooth="yes"/>
			<point x="398" y="325"/>
			<point x="393" y="304"/>
		</contour>
		<contour>
			<point name="aboveLC" x="344" y="520" type="move"/>
		</contour>
	</outline>
</glyph>
<glyph name="theta" format="1">
	<unicode hex="03B8"/>
	<advance width="553"/>
	<outline>
		<contour>
			<point x="58" y="226" type="curve" smooth="yes"/>
			<point x="58" y="68"/>
			<point x="131" y="-16"/>
			<point x="246" y="-16" type="curve" smooth="yes"/>
			<point x="433" y="-16"/>
			<point x="577" y="214"/>
			<point x="577" y="479" type="curve" smooth="yes"/>
			<point x="577" y="637"/>
			<point x="504" y="721"/>
			<point x="389" y="721" type="curve" smooth="yes"/>
			<point x="202" y="721"/>
			<point x="58" y="491"/>
		</contour>
		<contour>
			<point x="407" y="547" type="curve" smooth="yes"/>
			<point x="407" y="320"/>
			<point x="349" y="44"/>
			<point x="269" y="44" type="curve" smooth="yes"/>
			<point x="241" y="44"/>
			<point x="228" y="74"/>
			<point x="228" y="158" type="curve" smooth="yes"/>
			<point x="228" y="385"/>
			<point x="286" y="661"/>
			<point x="366" y="661" type="curve" smooth="yes"/>
			<point x="394" y="661"/>
			<point x="407" y="631"/>
		</contour>
		<contour>
			<point x="143" y="397" type="line"/>
			<point x="143" y="327" type="line"/>
			<point x="491" y="327" type="line"/>
			<point x="491" y="397" type="line"/>
		</contour>
	</outline>
</glyph>
<glyph name="iota" format="1">
	<unicode hex="03B9"/>
	<advance width="311"/>
	<outline>
		<contour>
			<point x="51" y="94" type="curve" smooth="yes"/>
			<point x="51" y="24"/>
			<point x="89" y="-16"/>
			<point x="150" y="-16" type="curve" smooth="yes"/>
			<point x="205" y="-16"/>
			<point x="259" y="15"/>
			<point x="315" y="88" type="curve"/>
			<point x="290" y="116" type="line"/>
			<point x="269" y="95"/>
			<point x="254" y="86"/>
			<point x="242" y="86" type="curve" smooth="yes"/>
			<point x="227" y="86"/>
			<point x="220" y="99"/>
			<point x="220" y="119" type="curve" smooth="yes"/>
			<point x="220" y="162"/>
			<point x="236" y="241"/>
			<point x="270" y="372" type="curve" smooth="yes"/>
			<point x="301" y="490" type="line"/>
			<point x="290" y="503" type="line"/>
			<point x="120" y="480" type="line"/>
			<point x="81" y="281" type="line" smooth="yes"/>
			<point x="55" y="149"/>
			<point x="51" y="122"/>
		</contour>
		<contour>
			<point name="aboveLC" x="206" y="520" type="move"/>
		</contour>
	</outline>
</glyph>
<glyph name="kappa" format="1">
	<unicode hex="03BA"/>
	<advance width="548"/>
	<outline>
		<contour>
			<point x="78" y="281" type="line" smooth="yes"/>
			<point x="67" y="222"/>
			<point x="58" y="188"/>
			<point x="11" y="5" type="curve"/>
			<point x="22" y="-8" type="line"/>
			<point x="186" y="0" type="line"/>
			<point x="229" y="219"/>
			<point x="241" y="272"/>
			<point x="267" y="372" type="curve" smooth="yes"/>
			<point x="298" y="490" type="line"/>
			<point x="287" y="503" type="line"/>
			<point x="117" y="480" type="line"/>
		</contour>
		<contour>
			<point x="287" y="83" type="line" smooth="yes"/>
			<point x="304" y="8"/>
			<point x="338" y="-16"/>
			<point x="392" y="-16" type="curve" smooth="yes"/>
			<point x="457" y="-16"/>
			<point x="511" y="21"/>
			<point x="551" y="83" type="curve"/>
			<point x="523" y="115" type="line"/>
			<point x="501" y="94"/>
			<point x="489" y="86"/>
			<point x="477" y="86" type="curve" smooth="yes"/>
			<point x="464" y="86"/>
			<point x="456" y="92"/>
			<point x="445" y="124" type="curve" smooth="yes"/>
			<point x="437" y="148" type="line" smooth="yes"/>
			<point x="415" y="213"/>
			<point x="378" y="242"/>
			<point x="305" y="247" type="curve" smooth="yes"/>
			<point x="247" y="251" type="line"/>
			<point x="232" y="242" type="line"/>
			<point x="448" y="313" type="line" smooth="yes"/>
			<point x="533" y="341"/>
			<point x="562" y="367"/>
			<point x="562" y="415" type="curve" smooth="yes"/>
			<point x="562" y="458"/>
			<point x="531" y="492"/>
			<point x="483" y="500" type="curve"/>
			<point x="217" y="247" type="line"/>
			<point x="221" y="223" type="line"/>
			<point x="230" y="222" type="line" smooth="yes"/>
			<point x="250" y="220"/>
			<point x="261" y="200"/>
			<point x="274" y="141" type="curve" smooth="yes"/>
		</contour>
	</outline>
</glyph>
<glyph name="lambda" format="1">
	<unicode hex="03BB"/>
	<advance width="553"/>
	<outline>
		<contour>
			<point x="-15" y="0" type="line"/>
			<point x="167" y="0" type="line"/>
			<point x="374" y="358" type="line"/>
			<point x="341" y="530" type="line"/>
			<point x="-22" y="11" type="line"/>
		</contour>
		<contour>
			<point x="333" y="89" type="line" smooth="yes"/>
			<point x="332" y="17"/>
			<point x="357" y="-16"/>
			<point x="418" y="-16" type="curve" smooth="yes"/>
			<point x="468" y="-16"/>
			<point x="519" y="17"/>
			<point x="559" y="74" type="curve"/>
			<point x="534" y="103" type="line"/>
			<point x="521" y="92"/>
			<point x="510" y="86"/>
			<point x="501" y="86" type="curve" smooth="yes"/>
			<point x="485" y="86"/>
			<point x="483" y="92"/>
			<point x="469" y="156" type="curve" smooth="yes"/>
			<point x="388" y="538" type="line" smooth="yes"/>
			<point x="358" y="679"/>
			<point x="330" y="722"/>
			<point x="259" y="722" type="curve" smooth="yes"/>
			<point x="203" y="722"/>
			<point x="144" y="687"/>
			<point x="82" y="618" type="curve"/>
			<point x="113" y="562" type="line"/>
			<point x="155" y="578"/>
			<point x="195" y="587"/>
			<point x="227" y="587" type="curve" smooth="yes"/>
			<point x="295" y="587"/>
			<point x="319" y="564"/>
			<point x="325" y="496" type="curve" smooth="yes"/>
			<point x="338" y="354" type="line"/>
		</contour>
	</outline>
</glyph>
<glyph name="mu" format="1">
	<unicode hex="03BC"/>
	<advance width="581"/>
	<outline>
		<contour>
			<point x="-32" y="-183" type="line"/>
			<point x="-12" y="-196" type="line"/>
			<point x="148" y="-179" type="line"/>
			<point x="169" y="70" type="line"/>
			<point x="213" y="103" type="line"/>
			<point x="214" y="158"/>
			<point x="229" y="238"/>
			<point x="288" y="490" type="curve"/>
			<point x="277" y="503" type="line"/>
			<point x="107" y="480" type="line"/>
			<point x="57" y="104" type="line"/>
		</contour>
		<contour>
			<point x="207" y="-16" type="curve" smooth="yes"/>
			<point x="259" y="-16"/>
			<point x="320" y="34"/>
			<point x="350" y="116" type="curve"/>
			<point x="340" y="164" type="line"/>
			<point x="316" y="128"/>
			<point x="282" y="110"/>
			<point x="254" y="110" type="curve" smooth="yes"/>
			<point x="228" y="110"/>
			<point x="214" y="125"/>
			<point x="214" y="156" type="curve"/>
			<point x="142" y="53" type="line"/>
			<point x="149" y="-1"/>
			<point x="179" y="-16"/>
		</contour>
		<contour>
			<point x="332" y="94" type="curve" smooth="yes"/>
			<point x="332" y="24"/>
			<point x="369" y="-16"/>
			<point x="428" y="-16" type="curve" smooth="yes"/>
			<point x="480" y="-16"/>
			<point x="533" y="16"/>
			<point x="584" y="86" type="curve"/>
			<point x="559" y="114" type="line"/>
			<point x="543" y="97"/>
			<point x="531" y="87"/>
			<point x="519" y="87" type="curve" smooth="yes"/>
			<point x="505" y="87"/>
			<point x="498" y="100"/>
			<point x="498" y="119" type="curve" smooth="yes"/>
			<point x="498" y="162"/>
			<point x="514" y="241"/>
			<point x="548" y="372" type="curve" smooth="yes"/>
			<point x="579" y="490" type="line"/>
			<point x="568" y="503" type="line"/>
			<point x="399" y="480" type="line"/>
			<point x="362" y="288" type="line" smooth="yes"/>
			<point x="336" y="154"/>
			<point x="332" y="124"/>
		</contour>
	</outline>
</glyph>
<glyph name="nu" format="1">
	<unicode hex="03BD"/>
	<advance width="535"/>
	<outline>
		<contour>
			<point x="126" y="356" type="curve" smooth="yes"/>
			<point x="143" y="237"/>
			<point x="159" y="119"/>
			<point x="176" y="0" type="curve"/>
			<point x="188" y="-10" type="line"/>
			<point x="277" y="0" type="line"/>
			<point x="378" y="102"/>
			<point x="461" y="212"/>
			<point x="511" y="300" type="curve" smooth="yes"/>
			<point x="543" y="356"/>
			<point x="552" y="388"/>
			<point x="552" y="420" type="curve" smooth="yes"/>
			<point x="552" y="457"/>
			<point x="548" y="474"/>
			<point x="534" y="493" type="curve"/>
			<point x="522" y="501"/>
			<point x="504" y="508"/>
			<point x="485" y="508" type="curve" smooth="yes"/>
			<point x="431" y="508"/>
			<point x="390" y="479"/>
			<point x="390" y="419" type="curve" smooth="yes"/>
			<point x="390" y="388"/>
			<point x="405" y="354"/>
			<point x="417" y="322" type="curve" smooth="yes"/>
			<point x="450" y="231" type="line"/>
			<point x="475" y="376" type="line"/>
			<point x="469" y="365"/>
			<point x="462" y="354"/>
			<point x="456" y="343" type="curve" smooth="yes"/>
			<point x="404" y="244"/>
			<point x="359" y="169"/>
			<point x="294" y="82" type="curve"/>
			<point x="324" y="87" type="line"/>
			<point x="314" y="191"/>
			<point x="304" y="295"/>
			<point x="294" y="399" type="curve" smooth="yes"/>
			<point x="287" y="468"/>
			<point x="259" y="503"/>
			<point x="199" y="503" type="curve" smooth="yes"/>
			<point x="152" y="503"/>
			<point x="99" y="479"/>
			<point x="39" y="395" type="curve"/>
			<point x="67" y="363" type="line"/>
			<point x="80" y="376"/>
			<point x="91" y="383"/>
			<point x="104" y="383" type="curve" smooth="yes"/>
			<point x="113" y="383"/>
			<point x="123" y="380"/>
		</contour>
	</outline>
</glyph>
<glyph name="xi" format="1">
	<unicode hex="03BE"/>
	<advance width="444"/>
	<outline>
		<contour>
			<point x="240" y="-181" type="curve"/>
			<point x="272" y="-213" type="line"/>
			<point x="374" y="-143"/>
			<point x="421" y="-88"/>
			<point x="421" y="-25" type="curve" smooth="yes"/>
			<point x="421" y="37"/>
			<point x="382" y="74"/>
			<point x="299" y="124" type="curve" smooth="yes"/>
			<point x="245" y="156"/>
			<point x="214" y="170"/>
			<point x="214" y="211" type="curve" smooth="yes"/>
			<point x="214" y="259"/>
			<point x="259" y="284"/>
			<point x="338" y="284" type="curve" smooth="yes"/>
			<point x="418" y="284" type="line"/>
			<point x="442" y="418" type="line"/>
			<point x="422" y="416"/>
			<point x="406" y="415"/>
			<point x="367" y="415" type="curve" smooth="yes"/>
			<point x="314" y="415"/>
			<point x="284" y="441"/>
			<point x="284" y="484" type="curve" smooth="yes"/>
			<point x="284" y="550"/>
			<point x="340" y="588"/>
			<point x="495" y="588" type="curve"/>
			<point x="517" y="715" type="line"/>
			<point x="131" y="733" type="line"/>
			<point x="106" y="598" type="line"/>
			<point x="349" y="598" type="line"/>
			<point x="341" y="612" type="line"/>
			<point x="235" y="602"/>
			<point x="118" y="539"/>
			<point x="118" y="446" type="curve" smooth="yes"/>
			<point x="118" y="376"/>
			<point x="174" y="328"/>
			<point x="278" y="321" type="curve"/>
			<point x="278" y="338" type="line"/>
			<point x="130" y="332"/>
			<point x="47" y="264"/>
			<point x="47" y="168" type="curve" smooth="yes"/>
			<point x="47" y="101"/>
			<point x="86" y="48"/>
			<point x="172" y="6" type="curve" smooth="yes"/>
			<point x="252" y="-33"/>
			<point x="268" y="-53"/>
			<point x="268" y="-95" type="curve" smooth="yes"/>
			<point x="268" y="-119"/>
			<point x="258" y="-148"/>
		</contour>
	</outline>
</glyph>
<glyph name="omicron" format="1">
	<unicode hex="03BF"/>
	<advance width="547"/>
	<outline>
		<contour>
			<point x="253" y="-16" type="curve" smooth="yes"/>
			<point x="423" y="-16"/>
			<point x="548" y="142"/>
			<point x="548" y="306" type="curve" smooth="yes"/>
			<point x="548" y="445"/>
			<point x="458" y="503"/>
			<point x="341" y="503" type="curve" smooth="yes"/>
			<point x="170" y="503"/>
			<point x="44" y="343"/>
			<point x="44" y="181" type="curve" smooth="yes"/>
			<point x="44" y="43"/>
			<point x="136" y="-16"/>
		</contour>
		<contour>
			<point x="259" y="44" type="curve" smooth="yes"/>
			<point x="234" y="44"/>
			<point x="214" y="62"/>
			<point x="214" y="139" type="curve" smooth="yes"/>
			<point x="214" y="269"/>
			<point x="261" y="443"/>
			<point x="333" y="443" type="curve" smooth="yes"/>
			<point x="360" y="443"/>
			<point x="378" y="424"/>
			<point x="378" y="354" type="curve" smooth="yes"/>
			<point x="378" y="212"/>
			<point x="329" y="44"/>
		</contour>
		<contour>
			<point name="aboveLC" x="343" y="520" type="move"/>
		</contour>
	</outline>
</glyph>
<glyph name="pi" format="1">
	<unicode hex="03C0"/>
	<advance width="641"/>
	<outline>
		<contour>
			<point x="63" y="338" type="line"/>
			<point x="259" y="359" type="line"/>
			<point x="462" y="359" type="line"/>
			<point x="647" y="349" type="line"/>
			<point x="669" y="495" type="line"/>
			<point x="279" y="495" type="line" smooth="yes"/>
			<point x="172" y="495"/>
			<point x="122" y="467"/>
			<point x="57" y="411" type="curve"/>
		</contour>
		<contour>
			<point x="84" y="-16" type="curve" smooth="yes"/>
			<point x="165" y="-16"/>
			<point x="220" y="44"/>
			<point x="244" y="162" type="curve" smooth="yes"/>
			<point x="261" y="243"/>
			<point x="284" y="344"/>
			<point x="298" y="414" type="curve"/>
			<point x="235" y="414" type="line"/>
			<point x="210" y="315"/>
			<point x="182" y="224"/>
			<point x="152" y="136" type="curve"/>
			<point x="200" y="125" type="line"/>
			<point x="195" y="158" type="line"/>
			<point x="146" y="153"/>
			<point x="92" y="146"/>
			<point x="48" y="138" type="curve"/>
			<point x="20" y="115"/>
			<point x="8" y="86"/>
			<point x="8" y="56" type="curve" smooth="yes"/>
			<point x="8" y="11"/>
			<point x="36" y="-16"/>
		</contour>
		<contour>
			<point x="419" y="405" type="line"/>
			<point x="348" y="169"/>
			<point x="332" y="123"/>
			<point x="332" y="77" type="curve" smooth="yes"/>
			<point x="332" y="18"/>
			<point x="373" y="-15"/>
			<point x="437" y="-15" type="curve" smooth="yes"/>
			<point x="492" y="-15"/>
			<point x="548" y="9"/>
			<point x="598" y="84" type="curve"/>
			<point x="570" y="116" type="line"/>
			<point x="550" y="96"/>
			<point x="535" y="86"/>
			<point x="522" y="86" type="curve" smooth="yes"/>
			<point x="506" y="86"/>
			<point x="498" y="96"/>
			<point x="498" y="124" type="curve" smooth="yes"/>
			<point x="498" y="175"/>
			<point x="506" y="223"/>
			<point x="540" y="398" type="curve"/>
		</contour>
	</outline>
</glyph>
<glyph name="rho" format="1">
	<unicode hex="03C1"/>
	<advance width="563"/>
	<outline>
		<contour>
			<point x="7" y="-196" type="line"/>
			<point x="173" y="-179" type="line"/>
			<point x="202" y="47" type="line"/>
			<point x="213" y="59" type="line"/>
			<point x="264" y="320" type="line" smooth="yes"/>
			<point x="283" y="418"/>
			<point x="303" y="443"/>
			<point x="335" y="443" type="curve" smooth="yes"/>
			<point x="372" y="443"/>
			<point x="389" y="404"/>
			<point x="389" y="341" type="curve" smooth="yes"/>
			<point x="389" y="173"/>
			<point x="332" y="61"/>
			<point x="262" y="61" type="curve" smooth="yes"/>
			<point x="232" y="61"/>
			<point x="210" y="76"/>
			<point x="189" y="99" type="curve"/>
			<point x="165" y="75" type="line"/>
			<point x="186" y="14"/>
			<point x="238" y="-16"/>
			<point x="297" y="-16" type="curve" smooth="yes"/>
			<point x="443" y="-16"/>
			<point x="559" y="123"/>
			<point x="559" y="283" type="curve" smooth="yes"/>
			<point x="559" y="434"/>
			<point x="480" y="503"/>
			<point x="347" y="503" type="curve" smooth="yes"/>
			<point x="202" y="503"/>
			<point x="121" y="413"/>
			<point x="90" y="276" type="curve" smooth="yes"/>
			<point x="-13" y="-183" type="line"/>
		</contour>
		<contour>
			<point name="aboveLC" x="346" y="520" type="move"/>
		</contour>
	</outline>
</glyph>
<glyph name="sigma.end" format="1">
	<unicode hex="03C2"/>
	<advance width="483"/>
	<outline>
		<contour>
			<point x="275" y="-118"/>
			<point x="266" y="-147"/>
			<point x="247" y="-181" type="curve"/>
			<point x="278" y="-212" type="line"/>
			<point x="381" y="-143"/>
			<point x="428" y="-88"/>
			<point x="428" y="-25" type="curve" smooth="yes"/>
			<point x="428" y="26"/>
			<point x="396" y="73"/>
			<point x="327" y="117" type="curve" smooth="yes"/>
			<point x="234" y="176"/>
			<point x="207" y="206"/>
			<point x="207" y="283" type="curve" smooth="yes"/>
			<point x="207" y="364"/>
			<point x="260" y="432"/>
			<point x="345" y="462" type="curve"/>
			<point x="295" y="474" type="line"/>
			<point x="347" y="412" type="line" smooth="yes"/>
			<point x="378" y="375"/>
			<point x="408" y="358"/>
			<point x="441" y="358" type="curve" smooth="yes"/>
			<point x="486" y="358"/>
			<point x="518" y="391"/>
			<point x="520" y="438" type="curve"/>
			<point x="489" y="478"/>
			<point x="432" y="503"/>
			<point x="345" y="503" type="curve" smooth="yes"/>
			<point x="182" y="503"/>
			<point x="52" y="375"/>
			<point x="52" y="223" type="curve" smooth="yes"/>
			<point x="52" y="124"/>
			<point x="91" y="67"/>
			<point x="201" y="-2" type="curve" smooth="yes"/>
			<point x="260" y="-39"/>
			<point x="275" y="-58"/>
			<point x="275" y="-95" type="curve" smooth="yes"/>
		</contour>
	</outline>
</glyph>
<glyph name="sigma" format="1">
	<unicode hex="03C3"/>
	<advance width="605"/>
	<outline>
		<contour>
			<point x="303" y="394" type="line"/>
			<point x="337" y="379"/>
			<point x="358" y="322"/>
			<point x="358" y="239" type="curve" smooth="yes"/>
			<point x="358" y="125"/>
			<point x="317" y="44"/>
			<point x="260" y="44" type="curve" smooth="yes"/>
			<point x="228" y="44"/>
			<point x="214" y="74"/>
			<point x="214" y="139" type="curve" smooth="yes"/>
			<point x="214" y="271"/>
			<point x="265" y="384"/>
			<point x="332" y="402" type="curve"/>
			<point x="386" y="390" type="line"/>
			<point x="619" y="349" type="line"/>
			<point x="641" y="495" type="line"/>
			<point x="373" y="495" type="line" smooth="yes"/>
			<point x="182" y="495"/>
			<point x="44" y="370"/>
			<point x="44" y="189" type="curve" smooth="yes"/>
			<point x="44" y="65"/>
			<point x="127" y="-16"/>
			<point x="255" y="-16" type="curve" smooth="yes"/>
			<point x="406" y="-16"/>
			<point x="528" y="90"/>
			<point x="528" y="223" type="curve" smooth="yes"/>
			<point x="528" y="311"/>
			<point x="468" y="389"/>
			<point x="345" y="408" type="curve"/>
		</contour>
	</outline>
</glyph>
<glyph name="tau" format="1">
	<unicode hex="03C4"/>
	<advance width="504"/>
	<outline>
		<contour>
			<point x="58" y="338" type="line"/>
			<point x="254" y="359" type="line"/>
			<point x="308" y="359" type="line"/>
			<point x="518" y="349" type="line"/>
			<point x="540" y="495" type="line"/>
			<point x="295" y="495" type="line" smooth="yes"/>
			<point x="178" y="495"/>
			<point x="120" y="470"/>
			<point x="52" y="411" type="curve"/>
		</contour>
		<contour>
			<point x="239" y="405" type="line"/>
			<point x="168" y="169"/>
			<point x="152" y="123"/>
			<point x="152" y="77" type="curve" smooth="yes"/>
			<point x="152" y="18"/>
			<point x="193" y="-15"/>
			<point x="257" y="-15" type="curve" smooth="yes"/>
			<point x="312" y="-15"/>
			<point x="368" y="9"/>
			<point x="418" y="84" type="curve"/>
			<point x="390" y="116" type="line"/>
			<point x="370" y="96"/>
			<point x="355" y="86"/>
			<point x="342" y="86" type="curve" smooth="yes"/>
			<point x="326" y="86"/>
			<point x="318" y="96"/>
			<point x="318" y="124" type="curve" smooth="yes"/>
			<point x="318" y="175"/>
			<point x="326" y="223"/>
			<point x="360" y="398" type="curve"/>
		</contour>
	</outline>
</glyph>
<glyph name="upsilon" format="1">
	<unicode hex="03C5"/>
	<advance width="542"/>
	<outline>
		<contour>
			<point x="80" y="132" type="curve" smooth="yes"/>
			<point x="80" y="30"/>
			<point x="156" y="-16"/>
			<point x="263" y="-16" type="curve" smooth="yes"/>
			<point x="469" y="-16"/>
			<point x="534" y="183"/>
			<point x="534" y="355" type="curve" smooth="yes"/>
			<point x="534" y="408"/>
			<point x="526" y="451"/>
			<point x="515" y="479" type="curve"/>
			<point x="502" y="493"/>
			<point x="478" y="503"/>
			<point x="455" y="503" type="curve" smooth="yes"/>
			<point x="402" y="503"/>
			<point x="371" y="469"/>
			<point x="371" y="423" type="curve" smooth="yes"/>
			<point x="371" y="360"/>
			<point x="401" y="315"/>
			<point x="468" y="209" type="curve"/>
			<point x="488" y="335" type="line"/>
			<point x="444" y="378" type="line"/>
			<point x="452" y="178"/>
			<point x="418" y="65"/>
			<point x="305" y="65" type="curve" smooth="yes"/>
			<point x="266" y="65"/>
			<point x="244" y="83"/>
			<point x="244" y="144" type="curve" smooth="yes"/>
			<point x="244" y="223"/>
			<point x="299" y="343"/>
			<point x="299" y="405" type="curve" smooth="yes"/>
			<point x="299" y="469"/>
			<point x="265" y="503"/>
			<point x="212" y="503" type="curve" smooth="yes"/>
			<point x="160" y="503"/>
			<point x="115" y="472"/>
			<point x="49" y="393" type="curve"/>
			<point x="72" y="363" type="line"/>
			<point x="90" y="378"/>
			<point x="100" y="383"/>
			<point x="112" y="383" type="curve" smooth="yes"/>
			<point x="126" y="383"/>
			<point x="132" y="375"/>
			<point x="132" y="355" type="curve" smooth="yes"/>
			<point x="132" y="307"/>
			<point x="80" y="205"/>
		</contour>
		<contour>
			<point name="aboveLC" x="326" y="520" type="move"/>
		</contour>
	</outline>
</glyph>
<glyph name="phi" format="1">
	<unicode hex="03C6"/>
	<advance width="779"/>
	<outline>
		<contour>
			<point x="412" y="-16" type="line"/>
			<point x="624" y="-11"/>
			<point x="780" y="126"/>
			<point x="780" y="306" type="curve" smooth="yes"/>
			<point x="780" y="428"/>
			<point x="699" y="503"/>
			<point x="567" y="503" type="curve" smooth="yes"/>
			<point x="446" y="503"/>
			<point x="378" y="446"/>
			<point x="347" y="317" type="curve" smooth="yes"/>
			<point x="223" y="-192" type="line"/>
			<point x="233" y="-205" type="line"/>
			<point x="401" y="-187" type="line"/>
			<point x="492" y="333" type="line" smooth="yes"/>
			<point x="507" y="416"/>
			<point x="522" y="442"/>
			<point x="556" y="442" type="curve" smooth="yes"/>
			<point x="591" y="442"/>
			<point x="610" y="411"/>
			<point x="610" y="354" type="curve" smooth="yes"/>
			<point x="610" y="187"/>
			<point x="525" y="49"/>
			<point x="418" y="44" type="curve"/>
		</contour>
		<contour>
			<point x="328" y="499" type="line"/>
			<point x="152" y="457"/>
			<point x="46" y="343"/>
			<point x="46" y="197" type="curve" smooth="yes"/>
			<point x="46" y="72"/>
			<point x="141" y="-10"/>
			<point x="294" y="-16" type="curve"/>
			<point x="302" y="44" type="line"/>
			<point x="241" y="49"/>
			<point x="216" y="89"/>
			<point x="216" y="181" type="curve" smooth="yes"/>
			<point x="216" y="303"/>
			<point x="265" y="408"/>
			<point x="346" y="461" type="curve"/>
		</contour>
	</outline>
</glyph>
<glyph name="chi" format="1">
	<unicode hex="03C7"/>
	<advance width="543"/>
	<outline>
		<contour>
			<point x="-52" y="-183" type="line"/>
			<point x="-42" y="-196" type="line"/>
			<point x="141" y="-177" type="line"/>
			<point x="317" y="95" type="line"/>
			<point x="237" y="204" type="line"/>
		</contour>
		<contour>
			<point x="248" y="205" type="line"/>
			<point x="313" y="72" type="line"/>
			<point x="616" y="483" type="line"/>
			<point x="606" y="496" type="line"/>
			<point x="423" y="477" type="line"/>
		</contour>
		<contour>
			<point x="492" y="-56" type="line"/>
			<point x="469" y="-72"/>
			<point x="449" y="-76"/>
			<point x="429" y="-76" type="curve" smooth="yes"/>
			<point x="400" y="-76"/>
			<point x="383" y="-59"/>
			<point x="365" y="-4" type="curve" smooth="yes"/>
			<point x="302" y="191" type="line"/>
			<point x="288" y="168" type="line"/>
			<point x="282" y="387" type="line" smooth="yes"/>
			<point x="280" y="469"/>
			<point x="255" y="503"/>
			<point x="206" y="503" type="curve" smooth="yes"/>
			<point x="153" y="503"/>
			<point x="104" y="467"/>
			<point x="44" y="393" type="curve"/>
			<point x="67" y="363" type="line"/>
			<point x="90" y="379"/>
			<point x="110" y="383"/>
			<point x="130" y="383" type="curve" smooth="yes"/>
			<point x="159" y="383"/>
			<point x="176" y="366"/>
			<point x="194" y="311" type="curve" smooth="yes"/>
			<point x="258" y="116" type="line"/>
			<point x="271" y="139" type="line"/>
			<point x="277" y="-80" type="line" smooth="yes"/>
			<point x="279" y="-162"/>
			<point x="304" y="-196"/>
			<point x="353" y="-196" type="curve" smooth="yes"/>
			<point x="406" y="-196"/>
			<point x="455" y="-160"/>
			<point x="515" y="-86" type="curve"/>
		</contour>
	</outline>
</glyph>
<glyph name="psi" format="1">
	<unicode hex="03C8"/>
	<advance width="711"/>
	<outline>
		<contour>
			<point x="318" y="51" type="line"/>
			<point x="263" y="59"/>
			<point x="244" y="81"/>
			<point x="244" y="142" type="curve" smooth="yes"/>
			<point x="244" y="240"/>
			<point x="299" y="349"/>
			<point x="299" y="411" type="curve" smooth="yes"/>
			<point x="299" y="469"/>
			<point x="265" y="503"/>
			<point x="212" y="503" type="curve" smooth="yes"/>
			<point x="160" y="503"/>
			<point x="115" y="472"/>
			<point x="49" y="393" type="curve"/>
			<point x="72" y="363" type="line"/>
			<point x="90" y="378"/>
			<point x="100" y="383"/>
			<point x="112" y="383" type="curve" smooth="yes"/>
			<point x="126" y="383"/>
			<point x="132" y="375"/>
			<point x="132" y="355" type="curve" smooth="yes"/>
			<point x="132" y="314"/>
			<point x="84" y="227"/>
			<point x="84" y="153" type="curve" smooth="yes"/>
			<point x="84" y="39"/>
			<point x="167" y="-8"/>
			<point x="306" y="-16" type="curve"/>
		</contour>
		<contour>
			<point x="393" y="-16" type="line"/>
			<point x="586" y="-3"/>
			<point x="722" y="169"/>
			<point x="722" y="367" type="curve" smooth="yes"/>
			<point x="722" y="408"/>
			<point x="716" y="451"/>
			<point x="705" y="479" type="curve"/>
			<point x="692" y="493"/>
			<point x="668" y="503"/>
			<point x="645" y="503" type="curve" smooth="yes"/>
			<point x="592" y="503"/>
			<point x="561" y="469"/>
			<point x="561" y="423" type="curve" smooth="yes"/>
			<point x="561" y="360"/>
			<point x="591" y="315"/>
			<point x="658" y="209" type="curve"/>
			<point x="678" y="335" type="line"/>
			<point x="634" y="378" type="line"/>
			<point x="634" y="196"/>
			<point x="567" y="58"/>
			<point x="405" y="53" type="curve"/>
		</contour>
		<contour>
			<point x="436" y="634" type="line"/>
			<point x="237" y="-193" type="line"/>
			<point x="246" y="-205" type="line"/>
			<point x="414" y="-187" type="line"/>
			<point x="537" y="635" type="line"/>
			<point x="521" y="653" type="line"/>
		</contour>
	</outline>
</glyph>
<glyph name="omega" format="1">
	<unicode hex="03C9"/>
	<advance width="784"/>
	<outline>
		<contour>
			<point x="521" y="69" type="curve" smooth="yes"/>
			<point x="493" y="69"/>
			<point x="481" y="82"/>
			<point x="481" y="115" type="curve" smooth="yes"/>
			<point x="481" y="144"/>
			<point x="486" y="181"/>
			<point x="495" y="228" type="curve" smooth="yes"/>
			<point x="524" y="370" type="line"/>
			<point x="508" y="382" type="line"/>
			<point x="350" y="355" type="line"/>
			<point x="327" y="188" type="line" smooth="yes"/>
			<point x="316" y="107"/>
			<point x="293" y="70"/>
			<point x="254" y="70" type="curve" smooth="yes"/>
			<point x="223" y="70"/>
			<point x="211" y="90"/>
			<point x="211" y="141" type="curve" smooth="yes"/>
			<point x="211" y="276"/>
			<point x="261" y="393"/>
			<point x="350" y="465" type="curve"/>
			<point x="325" y="500" type="line"/>
			<point x="150" y="454"/>
			<point x="41" y="327"/>
			<point x="41" y="166" type="curve" smooth="yes"/>
			<point x="41" y="56"/>
			<point x="116" y="-15"/>
			<point x="230" y="-15" type="curve" smooth="yes"/>
			<point x="317" y="-15"/>
			<point x="373" y="28"/>
			<point x="407" y="119" type="curve"/>
			<point x="399" y="119" type="line"/>
			<point x="394" y="35"/>
			<point x="438" y="-16"/>
			<point x="516" y="-16" type="curve" smooth="yes"/>
			<point x="657" y="-16"/>
			<point x="777" y="113"/>
			<point x="776" y="263" type="curve" smooth="yes"/>
			<point x="775" y="372"/>
			<point x="702" y="463"/>
			<point x="586" y="500" type="curve"/>
			<point x="553" y="465" type="line"/>
			<point x="588" y="416"/>
			<point x="606" y="355"/>
			<point x="606" y="286" type="curve" smooth="yes"/>
			<point x="606" y="154"/>
			<point x="573" y="69"/>
		</contour>
		<contour>
			<point name="aboveLC" x="445" y="520" type="move"/>
		</contour>
		<contour>
			<point name="belowLC" x="382" y="-22" type="move"/>
		</contour>
	</outline>
</glyph>
<glyph name="digamma" format="1">
	<unicode hex="03DD"/>
	<advance width="493"/>
	<outline>
		<contour>
			<point x="-7" y="-184" type="line"/>
			<point x="13" y="-196" type="line"/>
			<point x="174" y="-179" type="line"/>
			<point x="225" y="110" type="line"/>
			<point x="245" y="199"/>
			<point x="267" y="278"/>
			<point x="313" y="459" type="curve"/>
			<point x="261" y="424" type="line"/>
			<point x="518" y="408" type="line"/>
			<point x="537" y="491" type="line"/>
			<point x="143" y="472" type="line"/>
			<point x="72" y="84" type="line"/>
		</contour>
		<contour>
			<point x="123" y="151" type="line"/>
			<point x="428" y="129" type="line"/>
			<point x="447" y="212" type="line"/>
			<point x="136" y="208" type="line"/>
		</contour>
	</outline>
</glyph>
<glyph name="koppa" format="1">
	<unicode hex="03DF"/>
	<advance width="547"/>
	<outline>
		<contour>
			<point x="185" y="23" type="line"/>
			<point x="106" y="-183" type="line"/>
			<point x="116" y="-196" type="line"/>
			<point x="276" y="-177" type="line"/>
			<point x="310" y="21" type="line"/>
		</contour>
		<component base="omicron"/>
	</outline>
</glyph>
<glyph name="Dje" format="2">
	<unicode hex="0402"/>
	<advance width="696"/>
	<outline>
		<contour>
			<point x="409" y="-78" type="line"/>
			<point x="663" y="-65"/>
			<point x="721" y="98"/>
			<point x="721" y="194" type="curve" smooth="yes"/>
			<point x="721" y="305"/>
			<point x="662" y="397"/>
			<point x="500" y="397" type="curve" smooth="yes"/>
			<point x="453" y="397"/>
			<point x="411" y="393"/>
			<point x="362" y="387" type="curve"/>
			<point x="331" y="326" type="line"/>
			<point x="364" y="332"/>
			<point x="398" y="336"/>
			<point x="433" y="336" type="curve" smooth="yes"/>
			<point x="504" y="336"/>
			<point x="539" y="291"/>
			<point x="539" y="191" type="curve" smooth="yes"/>
			<point x="539" y="84"/>
			<point x="481" y="-6"/>
			<point x="407" y="-26" type="curve"/>
		</contour>
		<component base="T"/>
	</outline>
</glyph>
<glyph name="Tshe" format="2">
	<unicode hex="040B"/>
	<advance width="814"/>
	<outline>
		<contour>
			<point x="506" y="0" type="line"/>
			<point x="685" y="0" type="line"/>
			<point x="717" y="185" type="line" smooth="yes"/>
			<point x="744" y="343"/>
			<point x="700" y="406"/>
			<point x="549" y="406" type="curve" smooth="yes"/>
			<point x="488" y="406"/>
			<point x="420" y="402"/>
			<point x="357" y="396" type="curve"/>
			<point x="346" y="335" type="line"/>
			<point x="389" y="344"/>
			<point x="432" y="345"/>
			<point x="480" y="345" type="curve" smooth="yes"/>
			<point x="551" y="345"/>
			<point x="562" y="297"/>
			<point x="542" y="190" type="curve" smooth="yes"/>
		</contour>
		<contour>
			<point x="571" y="0" type="line"/>
			<point x="748" y="0" type="line"/>
			<point x="760" y="59" type="line"/>
			<point x="619" y="74" type="line"/>
			<point x="586" y="74" type="line"/>
		</contour>
		<component base="T"/>
	</outline>
</glyph>
<glyph name="Be" format="2">
	<unicode hex="0411"/>
	<advance width="639"/>
	<outline>
		<contour>
			<point x="-9" y="0" type="line"/>
			<point x="154" y="0" type="line"/>
			<point x="168" y="74" type="line"/>
			<point x="150" y="74" type="line"/>
			<point x="3" y="59" type="line"/>
		</contour>
		<contour>
			<point x="66" y="0" type="line"/>
			<point x="245" y="0" type="line"/>
			<point x="262" y="103"/>
			<point x="281" y="207"/>
			<point x="301" y="311" type="curve" smooth="yes"/>
			<point x="366" y="652" type="line"/>
			<point x="186" y="652" type="line"/>
			<point x="169" y="549"/>
			<point x="151" y="445"/>
			<point x="131" y="342" type="curve" smooth="yes"/>
		</contour>
		<contour>
			<point x="103" y="593" type="line"/>
			<point x="246" y="578" type="line"/>
			<point x="263" y="578" type="line"/>
			<point x="277" y="652" type="line"/>
			<point x="115" y="652" type="line"/>
		</contour>
		<contour>
			<point x="214" y="361" type="curve"/>
			<point x="204" y="305" type="line"/>
			<point x="256" y="312"/>
			<point x="306" y="315"/>
			<point x="325" y="315" type="curve" smooth="yes"/>
			<point x="394" y="315"/>
			<point x="429" y="276"/>
			<point x="429" y="209" type="curve" smooth="yes"/>
			<point x="429" y="120"/>
			<point x="370" y="60"/>
			<point x="292" y="60" type="curve" smooth="yes"/>
			<point x="169" y="60" type="line"/>
			<point x="157" y="0" type="line"/>
			<point x="317" y="0" type="line" smooth="yes"/>
			<point x="522" y="0"/>
			<point x="602" y="79"/>
			<point x="602" y="196" type="curve" smooth="yes"/>
			<point x="602" y="279"/>
			<point x="545" y="371"/>
			<point x="349" y="371" type="curve" smooth="yes"/>
			<point x="306" y="371"/>
			<point x="256" y="368"/>
		</contour>
		<contour>
			<point x="265" y="593" type="line"/>
			<point x="575" y="593" type="line"/>
			<point x="507" y="652" type="line"/>
			<point x="502" y="453" type="line"/>
			<point x="592" y="453" type="line"/>
			<point x="619" y="652" type="line"/>
			<point x="277" y="652" type="line"/>
		</contour>
	</outline>
</glyph>
<glyph name="Zhe" format="2">
	<unicode hex="0416"/>
	<advance width="1028"/>
	<outline>
		<contour>
			<point x="-11" y="0" type="line"/>
			<point x="34" y="-13"/>
			<point x="75" y="-16"/>
			<point x="105" y="-16" type="curve" smooth="yes"/>
			<point x="192" y="-16"/>
			<point x="220" y="0"/>
			<point x="262" y="96" type="curve" smooth="yes"/>
			<point x="322" y="234" type="line" smooth="yes"/>
			<point x="343" y="282"/>
			<point x="363" y="305"/>
			<point x="410" y="305" type="curve" smooth="yes"/>
			<point x="539" y="305" type="line"/>
			<point x="549" y="365" type="line"/>
			<point x="437" y="365" type="line" smooth="yes"/>
			<point x="379" y="365"/>
			<point x="350" y="381"/>
			<point x="333" y="485" type="curve" smooth="yes"/>
			<point x="313" y="607"/>
			<point x="303" y="652"/>
			<point x="225" y="672" type="curve"/>
			<point x="153" y="665"/>
			<point x="115" y="629"/>
			<point x="117" y="576" type="curve" smooth="yes"/>
			<point x="118" y="534"/>
			<point x="149" y="504"/>
			<point x="201" y="504" type="curve" smooth="yes"/>
			<point x="241" y="504"/>
			<point x="297" y="526"/>
			<point x="316" y="536" type="curve"/>
			<point x="257" y="541" type="line"/>
			<point x="264" y="512"/>
			<point x="270" y="477"/>
			<point x="277" y="448" type="curve" smooth="yes"/>
			<point x="295" y="364"/>
			<point x="321" y="323"/>
			<point x="388" y="317" type="curve"/>
			<point x="377" y="341" type="line"/>
			<point x="226" y="337"/>
			<point x="163" y="297"/>
			<point x="121" y="192" type="curve" smooth="yes"/>
			<point x="58" y="35" type="line"/>
			<point x="177" y="74" type="line"/>
			<point x="0" y="59" type="line"/>
		</contour>
		<contour>
			<point x="321" y="0" type="line"/>
			<point x="648" y="0" type="line"/>
			<point x="660" y="59" type="line"/>
			<point x="519" y="74" type="line"/>
			<point x="486" y="74" type="line"/>
			<point x="333" y="59" type="line"/>
		</contour>
		<contour>
			<point x="396" y="0" type="line"/>
			<point x="575" y="0" type="line"/>
			<point x="592" y="103"/>
			<point x="611" y="207"/>
			<point x="631" y="311" type="curve" smooth="yes"/>
			<point x="696" y="652" type="line"/>
			<point x="516" y="652" type="line"/>
			<point x="499" y="549"/>
			<point x="481" y="445"/>
			<point x="461" y="342" type="curve" smooth="yes"/>
		</contour>
		<contour>
			<point x="433" y="593" type="line"/>
			<point x="582" y="578" type="line"/>
			<point x="615" y="578" type="line"/>
			<point x="760" y="593" type="line"/>
			<point x="772" y="652" type="line"/>
			<point x="445" y="652" type="line"/>
		</contour>
		<contour>
			<point x="750" y="-1"/>
			<point x="788" y="-16"/>
			<point x="875" y="-16" type="curve" smooth="yes"/>
			<point x="905" y="-16"/>
			<point x="937" y="-13"/>
			<point x="984" y="0" type="curve"/>
			<point x="996" y="59" type="line"/>
			<point x="822" y="74" type="line"/>
			<point x="933" y="35" type="line"/>
			<point x="917" y="160" type="line" smooth="yes"/>
			<point x="901" y="287"/>
			<point x="860" y="337"/>
			<point x="698" y="341" type="curve"/>
			<point x="695" y="317" type="line"/>
			<point x="774" y="324"/>
			<point x="820" y="362"/>
			<point x="862" y="448" type="curve" smooth="yes"/>
			<point x="882" y="488"/>
			<point x="892" y="505"/>
			<point x="911" y="541" type="curve"/>
			<point x="854" y="536" type="line"/>
			<point x="871" y="526"/>
			<point x="917" y="504"/>
			<point x="966" y="504" type="curve" smooth="yes"/>
			<point x="1021" y="504"/>
			<point x="1068" y="535"/>
			<point x="1068" y="589" type="curve" smooth="yes"/>
			<point x="1068" y="641"/>
			<point x="1030" y="665"/>
			<point x="982" y="672" type="curve"/>
			<point x="900" y="653"/>
			<point x="875" y="601"/>
			<point x="817" y="485" type="curve" smooth="yes"/>
			<point x="767" y="384"/>
			<point x="741" y="365"/>
			<point x="683" y="365" type="curve" smooth="yes"/>
			<point x="555" y="365" type="line"/>
			<point x="543" y="305" type="line"/>
			<point x="665" y="305" type="line" smooth="yes"/>
			<point x="705" y="305"/>
			<point x="727" y="284"/>
			<point x="731" y="234" type="curve" smooth="yes"/>
			<point x="742" y="96" type="line" smooth="yes"/>
		</contour>
	</outline>
	<anchor name="aboveUC" x="605" y="682"/>
</glyph>
<glyph name="Icyr" format="2">
	<unicode hex="0418"/>
	<advance width="769"/>
	<outline>
		<contour>
			<point x="-9" y="0" type="line"/>
			<point x="318" y="0" type="line"/>
			<point x="330" y="59" type="line"/>
			<point x="189" y="74" type="line"/>
			<point x="156" y="74" type="line"/>
			<point x="3" y="59" type="line"/>
		</contour>
		<contour>
			<point x="66" y="0" type="line"/>
			<point x="235" y="0" type="line"/>
			<point x="296" y="311" type="line"/>
			<point x="361" y="652" type="line"/>
			<point x="186" y="652" type="line"/>
			<point x="169" y="549"/>
			<point x="151" y="445"/>
			<point x="131" y="342" type="curve" smooth="yes"/>
		</contour>
		<contour>
			<point x="103" y="593" type="line"/>
			<point x="252" y="578" type="line"/>
			<point x="285" y="578" type="line"/>
			<point x="430" y="593" type="line"/>
			<point x="442" y="652" type="line"/>
			<point x="115" y="652" type="line"/>
		</contour>
		<contour>
			<point x="173" y="5" type="line"/>
			<point x="652" y="540" type="line"/>
			<point x="652" y="643" type="line"/>
			<point x="173" y="108" type="line"/>
		</contour>
		<contour>
			<point x="376" y="0" type="line"/>
			<point x="703" y="0" type="line"/>
			<point x="715" y="59" type="line"/>
			<point x="574" y="74" type="line"/>
			<point x="541" y="74" type="line"/>
			<point x="388" y="59" type="line"/>
		</contour>
		<contour>
			<point x="456" y="0" type="line"/>
			<point x="630" y="0" type="line"/>
			<point x="647" y="103"/>
			<point x="666" y="207"/>
			<point x="686" y="311" type="curve" smooth="yes"/>
			<point x="751" y="652" type="line"/>
			<point x="581" y="652" type="line"/>
			<point x="521" y="342" type="line"/>
		</contour>
		<contour>
			<point x="488" y="593" type="line"/>
			<point x="637" y="578" type="line"/>
			<point x="670" y="578" type="line"/>
			<point x="815" y="593" type="line"/>
			<point x="827" y="652" type="line"/>
			<point x="500" y="652" type="line"/>
		</contour>
	</outline>
	<anchor name="aboveUC" x="475" y="682"/>
</glyph>
<glyph name="Ef" format="2">
	<unicode hex="0424"/>
	<advance width="791"/>
	<outline>
		<contour>
			<point x="193" y="-10" type="line"/>
			<point x="520" y="-10" type="line"/>
			<point x="532" y="49" type="line"/>
			<point x="391" y="64" type="line"/>
			<point x="358" y="64" type="line"/>
			<point x="205" y="49" type="line"/>
		</contour>
		<contour>
			<point x="268" y="-10" type="line"/>
			<point x="447" y="-10" type="line"/>
			<point x="464" y="93"/>
			<point x="483" y="197"/>
			<point x="503" y="301" type="curve" smooth="yes"/>
			<point x="572" y="662" type="line"/>
			<point x="392" y="662" type="line"/>
			<point x="375" y="559"/>
			<point x="357" y="455"/>
			<point x="337" y="352" type="curve" smooth="yes"/>
		</contour>
		<contour>
			<point x="42" y="192"/>
			<point x="118" y="100"/>
			<point x="283" y="100" type="curve" smooth="yes"/>
			<point x="368" y="100" type="line"/>
			<point x="379" y="156" type="line"/>
			<point x="303" y="156" type="line" smooth="yes"/>
			<point x="239" y="156"/>
			<point x="215" y="222"/>
			<point x="215" y="294" type="curve" smooth="yes"/>
			<point x="215" y="396"/>
			<point x="271" y="490"/>
			<point x="365" y="490" type="curve" smooth="yes"/>
			<point x="441" y="490" type="line"/>
			<point x="451" y="546" type="line"/>
			<point x="366" y="546" type="line" smooth="yes"/>
			<point x="164" y="546"/>
			<point x="42" y="451"/>
			<point x="42" y="297" type="curve" smooth="yes"/>
		</contour>
		<contour>
			<point x="387" y="100" type="line"/>
			<point x="473" y="100" type="line" smooth="yes"/>
			<point x="666" y="100"/>
			<point x="798" y="203"/>
			<point x="798" y="355" type="curve" smooth="yes"/>
			<point x="798" y="457"/>
			<point x="724" y="546"/>
			<point x="556" y="546" type="curve" smooth="yes"/>
			<point x="470" y="546" type="line"/>
			<point x="460" y="490" type="line"/>
			<point x="536" y="490" type="line" smooth="yes"/>
			<point x="600" y="490"/>
			<point x="624" y="426"/>
			<point x="624" y="367" type="curve" smooth="yes"/>
			<point x="624" y="277"/>
			<point x="577" y="156"/>
			<point x="474" y="156" type="curve" smooth="yes"/>
			<point x="398" y="156" type="line"/>
		</contour>
		<contour>
			<point x="309" y="603" type="line"/>
			<point x="458" y="588" type="line"/>
			<point x="491" y="588" type="line"/>
			<point x="636" y="603" type="line"/>
			<point x="648" y="662" type="line"/>
			<point x="321" y="662" type="line"/>
		</contour>
	</outline>
</glyph>
<glyph name="Sha" format="2">
	<unicode hex="0428"/>
	<advance width="1044"/>
	<outline>
		<contour>
			<point x="-9" y="0" type="line"/>
			<point x="165" y="0" type="line"/>
			<point x="181" y="74" type="line"/>
			<point x="3" y="59" type="line"/>
		</contour>
		<contour>
			<point x="67" y="0" type="line"/>
			<point x="247" y="0" type="line"/>
			<point x="264" y="103"/>
			<point x="282" y="207"/>
			<point x="302" y="310" type="curve" smooth="yes"/>
			<point x="367" y="652" type="line"/>
			<point x="188" y="652" type="line"/>
			<point x="171" y="549"/>
			<point x="152" y="445"/>
			<point x="132" y="341" type="curve" smooth="yes"/>
		</contour>
		<contour>
			<point x="103" y="593" type="line"/>
			<point x="244" y="578" type="line"/>
			<point x="277" y="578" type="line"/>
			<point x="420" y="593" type="line"/>
			<point x="432" y="652" type="line"/>
			<point x="115" y="652" type="line"/>
		</contour>
		<contour>
			<point x="157" y="0" type="line"/>
			<point x="824" y="0" type="line"/>
			<point x="837" y="63" type="line"/>
			<point x="170" y="63" type="line"/>
		</contour>
		<contour>
			<point x="397" y="0" type="line"/>
			<point x="577" y="0" type="line"/>
			<point x="594" y="103"/>
			<point x="612" y="207"/>
			<point x="632" y="310" type="curve" smooth="yes"/>
			<point x="697" y="652" type="line"/>
			<point x="518" y="652" type="line"/>
			<point x="501" y="549"/>
			<point x="482" y="445"/>
			<point x="462" y="341" type="curve" smooth="yes"/>
		</contour>
		<contour>
			<point x="443" y="593" type="line"/>
			<point x="574" y="578" type="line"/>
			<point x="607" y="578" type="line"/>
			<point x="750" y="593" type="line"/>
			<point x="762" y="652" type="line"/>
			<point x="455" y="652" type="line"/>
		</contour>
		<contour>
			<point x="727" y="0" type="line"/>
			<point x="907" y="0" type="line"/>
			<point x="924" y="103"/>
			<point x="942" y="207"/>
			<point x="962" y="310" type="curve" smooth="yes"/>
			<point x="1027" y="652" type="line"/>
			<point x="848" y="652" type="line"/>
			<point x="831" y="549"/>
			<point x="812" y="445"/>
			<point x="792" y="341" type="curve" smooth="yes"/>
		</contour>
		<contour>
			<point x="773" y="593" type="line"/>
			<point x="904" y="578" type="line"/>
			<point x="937" y="578" type="line"/>
			<point x="1090" y="593" type="line"/>
			<point x="1102" y="652" type="line"/>
			<point x="785" y="652" type="line"/>
		</contour>
		<contour>
			<point x="825" y="0" type="line"/>
			<point x="978" y="0" type="line"/>
			<point x="990" y="59" type="line"/>
			<point x="841" y="74" type="line"/>
		</contour>
	</outline>
</glyph>
<glyph name="Shcha" format="2">
	<unicode hex="0429"/>
	<advance width="1046"/>
	<outline>
		<contour>
			<point x="-9" y="0" type="line"/>
			<point x="165" y="0" type="line"/>
			<point x="181" y="74" type="line"/>
			<point x="3" y="59" type="line"/>
		</contour>
		<contour>
			<point x="67" y="0" type="line"/>
			<point x="247" y="0" type="line"/>
			<point x="264" y="103"/>
			<point x="282" y="207"/>
			<point x="302" y="310" type="curve" smooth="yes"/>
			<point x="367" y="652" type="line"/>
			<point x="188" y="652" type="line"/>
			<point x="171" y="549"/>
			<point x="152" y="445"/>
			<point x="132" y="341" type="curve" smooth="yes"/>
		</contour>
		<contour>
			<point x="103" y="593" type="line"/>
			<point x="244" y="578" type="line"/>
			<point x="277" y="578" type="line"/>
			<point x="420" y="593" type="line"/>
			<point x="432" y="652" type="line"/>
			<point x="115" y="652" type="line"/>
		</contour>
		<contour>
			<point x="161" y="0" type="line"/>
			<point x="933" y="0" type="line"/>
			<point x="904" y="32" type="line"/>
			<point x="893" y="-190" type="line"/>
			<point x="975" y="-190" type="line"/>
			<point x="1026" y="63" type="line"/>
			<point x="174" y="63" type="line"/>
		</contour>
		<contour>
			<point x="397" y="0" type="line"/>
			<point x="577" y="0" type="line"/>
			<point x="594" y="103"/>
			<point x="612" y="207"/>
			<point x="632" y="310" type="curve" smooth="yes"/>
			<point x="697" y="652" type="line"/>
			<point x="518" y="652" type="line"/>
			<point x="501" y="549"/>
			<point x="482" y="445"/>
			<point x="462" y="341" type="curve" smooth="yes"/>
		</contour>
		<contour>
			<point x="443" y="593" type="line"/>
			<point x="574" y="578" type="line"/>
			<point x="607" y="578" type="line"/>
			<point x="750" y="593" type="line"/>
			<point x="762" y="652" type="line"/>
			<point x="455" y="652" type="line"/>
		</contour>
		<contour>
			<point x="727" y="0" type="line"/>
			<point x="907" y="0" type="line"/>
			<point x="924" y="103"/>
			<point x="942" y="207"/>
			<point x="962" y="310" type="curve" smooth="yes"/>
			<point x="1027" y="652" type="line"/>
			<point x="848" y="652" type="line"/>
			<point x="831" y="549"/>
			<point x="812" y="445"/>
			<point x="792" y="341" type="curve" smooth="yes"/>
		</contour>
		<contour>
			<point x="773" y="593" type="line"/>
			<point x="904" y="578" type="line"/>
			<point x="937" y="578" type="line"/>
			<point x="1090" y="593" type="line"/>
			<point x="1102" y="652" type="line"/>
			<point x="785" y="652" type="line"/>
		</contour>
	</outline>
</glyph>
<glyph name="Hard" format="2">
	<unicode hex="042A"/>
	<advance width="771"/>
	<outline>
		<contour>
			<point x="70" y="463" type="line"/>
			<point x="161" y="463" type="line"/>
			<point x="220" y="652" type="line"/>
			<point x="129" y="593" type="line"/>
			<point x="486" y="593" type="line"/>
			<point x="486" y="652" type="line"/>
			<point x="109" y="652" type="line"/>
		</contour>
		<contour>
			<point x="130" y="0" type="line"/>
			<point x="293" y="0" type="line"/>
			<point x="307" y="74" type="line"/>
			<point x="289" y="74" type="line"/>
			<point x="142" y="59" type="line"/>
		</contour>
		<contour>
			<point x="205" y="0" type="line"/>
			<point x="384" y="0" type="line"/>
			<point x="401" y="103"/>
			<point x="420" y="207"/>
			<point x="440" y="311" type="curve" smooth="yes"/>
			<point x="505" y="652" type="line"/>
			<point x="325" y="652" type="line"/>
			<point x="308" y="549"/>
			<point x="290" y="445"/>
			<point x="270" y="342" type="curve" smooth="yes"/>
		</contour>
		<contour>
			<point x="385" y="578" type="line"/>
			<point x="426" y="578" type="line"/>
			<point x="577" y="593" type="line"/>
			<point x="589" y="652" type="line"/>
			<point x="394" y="652" type="line"/>
		</contour>
		<contour>
			<point x="296" y="0" type="line"/>
			<point x="447" y="0" type="line" smooth="yes"/>
			<point x="669" y="0"/>
			<point x="744" y="109"/>
			<point x="744" y="228" type="curve" smooth="yes"/>
			<point x="744" y="329"/>
			<point x="680" y="406"/>
			<point x="519" y="406" type="curve" smooth="yes"/>
			<point x="464" y="406"/>
			<point x="409" y="397"/>
			<point x="355" y="386" type="curve"/>
			<point x="345" y="330" type="line"/>
			<point x="394" y="342"/>
			<point x="429" y="350"/>
			<point x="471" y="350" type="curve" smooth="yes"/>
			<point x="539" y="350"/>
			<point x="571" y="312"/>
			<point x="571" y="223" type="curve" smooth="yes"/>
			<point x="571" y="125"/>
			<point x="509" y="60"/>
			<point x="431" y="60" type="curve" smooth="yes"/>
			<point x="308" y="60" type="line"/>
		</contour>
	</outline>
</glyph>
<glyph name="Ecyr" format="2">
	<unicode hex="042D"/>
	<advance width="631"/>
	<outline>
		<contour>
			<point x="31" y="31" type="line"/>
			<point x="96" y="-3"/>
			<point x="155" y="-20"/>
			<point x="235" y="-20" type="curve" smooth="yes"/>
			<point x="486" y="-20"/>
			<point x="642" y="159"/>
			<point x="642" y="381" type="curve" smooth="yes"/>
			<point x="642" y="569"/>
			<point x="519" y="672"/>
			<point x="345" y="672" type="curve" smooth="yes"/>
			<point x="258" y="672"/>
			<point x="189" y="650"/>
			<point x="142" y="621" type="curve"/>
			<point x="116" y="463" type="line"/>
			<point x="196" y="463" type="line"/>
			<point x="260" y="630" type="line"/>
			<point x="182" y="568" type="line"/>
			<point x="225" y="593"/>
			<point x="267" y="612"/>
			<point x="310" y="612" type="curve" smooth="yes"/>
			<point x="418" y="612"/>
			<point x="458" y="509"/>
			<point x="458" y="393" type="curve" smooth="yes"/>
			<point x="458" y="207"/>
			<point x="363" y="41"/>
			<point x="216" y="41" type="curve" smooth="yes"/>
			<point x="165" y="41"/>
			<point x="131" y="61"/>
			<point x="89" y="108" type="curve"/>
			<point x="143" y="37" type="line"/>
			<point x="140" y="189" type="line"/>
			<point x="54" y="189" type="line"/>
		</contour>
		<contour>
			<point x="133" y="277" type="curve"/>
			<point x="156" y="266" type="line"/>
			<point x="177" y="290"/>
			<point x="195" y="300"/>
			<point x="229" y="300" type="curve" smooth="yes"/>
			<point x="261" y="300"/>
			<point x="306" y="276"/>
			<point x="354" y="276" type="curve" smooth="yes"/>
			<point x="396" y="276"/>
			<point x="440" y="305"/>
			<point x="476" y="364" type="curve"/>
			<point x="466" y="379" type="line"/>
			<point x="437" y="368"/>
			<point x="409" y="362"/>
			<point x="385" y="362" type="curve" smooth="yes"/>
			<point x="327" y="362"/>
			<point x="298" y="390"/>
			<point x="246" y="390" type="curve" smooth="yes"/>
			<point x="200" y="390"/>
			<point x="163" y="359"/>
		</contour>
	</outline>
	<anchor name="aboveUC" x="344" y="682"/>
</glyph>
<glyph name="Yu" format="2">
	<unicode hex="042E"/>
	<advance width="992"/>
	<outline>
		<contour>
			<point x="191" y="304" type="line"/>
			<point x="464" y="304" type="line"/>
			<point x="477" y="367" type="line"/>
			<point x="204" y="367" type="line"/>
		</contour>
		<contour>
			<point x="633" y="-20" type="curve" smooth="yes"/>
			<point x="867" y="-20"/>
			<point x="1004" y="181"/>
			<point x="1004" y="402" type="curve" smooth="yes"/>
			<point x="1004" y="573"/>
			<point x="907" y="672"/>
			<point x="761" y="672" type="curve" smooth="yes"/>
			<point x="526" y="672"/>
			<point x="389" y="464"/>
			<point x="389" y="254" type="curve" smooth="yes"/>
			<point x="389" y="62"/>
			<point x="494" y="-20"/>
		</contour>
		<contour>
			<point x="643" y="40" type="curve" smooth="yes"/>
			<point x="587" y="40"/>
			<point x="565" y="94"/>
			<point x="565" y="216" type="curve" smooth="yes"/>
			<point x="565" y="428"/>
			<point x="656" y="612"/>
			<point x="752" y="612" type="curve" smooth="yes"/>
			<point x="810" y="612"/>
			<point x="827" y="559"/>
			<point x="827" y="444" type="curve" smooth="yes"/>
			<point x="827" y="232"/>
			<point x="738" y="40"/>
		</contour>
		<component base="I"/>
	</outline>
	<anchor name="aboveUC" x="531" y="682"/>
</glyph>
<glyph name="ve" format="1">
	<unicode hex="0432"/>
	<advance width="540"/>
	<outline>
		<contour>
			<point x="253" y="-16" type="curve" smooth="yes"/>
			<point x="424" y="-16"/>
			<point x="511" y="58"/>
			<point x="511" y="144" type="curve" smooth="yes"/>
			<point x="511" y="205"/>
			<point x="472" y="251"/>
			<point x="311" y="257" type="curve"/>
			<point x="311" y="243" type="line"/>
			<point x="485" y="270"/>
			<point x="535" y="307"/>
			<point x="535" y="380" type="curve" smooth="yes"/>
			<point x="535" y="446"/>
			<point x="475" y="503"/>
			<point x="353" y="503" type="curve" smooth="yes"/>
			<point x="247" y="503"/>
			<point x="156" y="460"/>
			<point x="100" y="362" type="curve" smooth="yes"/>
			<point x="65" y="301"/>
			<point x="44" y="238"/>
			<point x="44" y="167" type="curve" smooth="yes"/>
			<point x="44" y="43"/>
			<point x="137" y="-16"/>
		</contour>
		<contour>
			<point x="280" y="44" type="curve" smooth="yes"/>
			<point x="241" y="44"/>
			<point x="208" y="66"/>
			<point x="208" y="128" type="curve" smooth="yes"/>
			<point x="208" y="216"/>
			<point x="238" y="320"/>
			<point x="256" y="373" type="curve" smooth="yes"/>
			<point x="275" y="428"/>
			<point x="307" y="443"/>
			<point x="339" y="443" type="curve" smooth="yes"/>
			<point x="377" y="443"/>
			<point x="392" y="414"/>
			<point x="392" y="377" type="curve" smooth="yes"/>
			<point x="392" y="323"/>
			<point x="360" y="283"/>
			<point x="286" y="276" type="curve" smooth="yes"/>
			<point x="196" y="267" type="line"/>
			<point x="188" y="212" type="line"/>
			<point x="220" y="220"/>
			<point x="248" y="222"/>
			<point x="279" y="222" type="curve" smooth="yes"/>
			<point x="349" y="223"/>
			<point x="366" y="184"/>
			<point x="366" y="136" type="curve" smooth="yes"/>
			<point x="366" y="85"/>
			<point x="333" y="44"/>
		</contour>
	</outline>
</glyph>
<glyph name="ghe" format="2">
	<unicode hex="0433"/>
	<advance width="449"/>
	<outline>
		<contour>
			<point x="182" y="-15" type="curve" smooth="yes"/>
			<point x="282" y="-15"/>
			<point x="359" y="30"/>
			<point x="434" y="124" type="curve"/>
			<point x="411" y="152" type="line"/>
			<point x="368" y="116"/>
			<point x="319" y="90"/>
			<point x="279" y="90" type="curve" smooth="yes"/>
			<point x="238" y="90"/>
			<point x="214" y="112"/>
			<point x="214" y="145" type="curve" smooth="yes"/>
			<point x="214" y="176"/>
			<point x="231" y="199"/>
			<point x="299" y="227" type="curve" smooth="yes"/>
			<point x="431" y="281"/>
			<point x="473" y="313"/>
			<point x="473" y="385" type="curve" smooth="yes"/>
			<point x="473" y="447"/>
			<point x="425" y="503"/>
			<point x="329" y="503" type="curve" smooth="yes"/>
			<point x="217" y="503"/>
			<point x="149" y="453"/>
			<point x="98" y="373" type="curve"/>
			<point x="123" y="348" type="line"/>
			<point x="167" y="382"/>
			<point x="210" y="396"/>
			<point x="252" y="396" type="curve" smooth="yes"/>
			<point x="289" y="396"/>
			<point x="313" y="378"/>
			<point x="313" y="346" type="curve" smooth="yes"/>
			<point x="313" y="303"/>
			<point x="283" y="283"/>
			<point x="215" y="258" type="curve" smooth="yes"/>
			<point x="81" y="209"/>
			<point x="49" y="169"/>
			<point x="49" y="100" type="curve" smooth="yes"/>
			<point x="49" y="26"/>
			<point x="111" y="-15"/>
		</contour>
	</outline>
	<anchor name="aboveLC" x="336" y="520"/>
</glyph>
<glyph name="de" format="2">
	<unicode hex="0434"/>
	<advance width="555"/>
	<outline>
		<contour>
			<point x="230" y="-16" type="curve" smooth="yes"/>
			<point x="438" y="-16"/>
			<point x="577" y="174"/>
			<point x="577" y="479" type="curve" smooth="yes"/>
			<point x="577" y="620"/>
			<point x="522" y="721"/>
			<point x="381" y="721" type="curve" smooth="yes"/>
			<point x="294" y="721"/>
			<point x="231" y="689"/>
			<point x="184" y="647" type="curve"/>
			<point x="209" y="602" type="line"/>
			<point x="257" y="625"/>
			<point x="286" y="635"/>
			<point x="318" y="635" type="curve" smooth="yes"/>
			<point x="382" y="635"/>
			<point x="416" y="605"/>
			<point x="416" y="474" type="curve" smooth="yes"/>
			<point x="416" y="195"/>
			<point x="308" y="44"/>
			<point x="260" y="44" type="curve" smooth="yes"/>
			<point x="233" y="44"/>
			<point x="216" y="62"/>
			<point x="216" y="127" type="curve" smooth="yes"/>
			<point x="216" y="310"/>
			<point x="302" y="430"/>
			<point x="390" y="430" type="curve" smooth="yes"/>
			<point x="412" y="430"/>
			<point x="431" y="426"/>
			<point x="446" y="419" type="curve"/>
			<point x="465" y="462" type="line"/>
			<point x="439" y="482"/>
			<point x="409" y="487"/>
			<point x="380" y="487" type="curve" smooth="yes"/>
			<point x="194" y="487"/>
			<point x="49" y="340"/>
			<point x="49" y="178" type="curve" smooth="yes"/>
			<point x="49" y="37"/>
			<point x="134" y="-16"/>
		</contour>
	</outline>
</glyph>
<glyph name="zhe" format="2">
	<unicode hex="0436"/>
	<advance width="942"/>
	<outline>
		<contour>
			<point x="48" y="47"/>
			<point x="73" y="-15"/>
			<point x="148" y="-15" type="curve" smooth="yes"/>
			<point x="278" y="-15"/>
			<point x="394" y="169"/>
			<point x="397" y="352" type="curve" smooth="yes"/>
			<point x="399" y="449"/>
			<point x="367" y="505"/>
			<point x="293" y="505" type="curve" smooth="yes"/>
			<point x="208" y="505"/>
			<point x="136" y="443"/>
			<point x="95" y="329" type="curve"/>
			<point x="124" y="311" type="line"/>
			<point x="155" y="363"/>
			<point x="180" y="393"/>
			<point x="217" y="393" type="curve" smooth="yes"/>
			<point x="248" y="393"/>
			<point x="269" y="373"/>
			<point x="268" y="312" type="curve" smooth="yes"/>
			<point x="266" y="214"/>
			<point x="231" y="86"/>
			<point x="153" y="18" type="curve"/>
			<point x="172" y="20" type="line"/>
			<point x="169" y="86" type="line" smooth="yes"/>
			<point x="166" y="143"/>
			<point x="145" y="168"/>
			<point x="111" y="168" type="curve" smooth="yes"/>
			<point x="79" y="168"/>
			<point x="59" y="152"/>
			<point x="48" y="118" type="curve"/>
		</contour>
		<contour>
			<point x="407" y="-8" type="line"/>
			<point x="532" y="0" type="line"/>
			<point x="547" y="73"/>
			<point x="562" y="144"/>
			<point x="578" y="216" type="curve" smooth="yes"/>
			<point x="638" y="482" type="line"/>
			<point x="622" y="495" type="line"/>
			<point x="497" y="487" type="line"/>
			<point x="482" y="414"/>
			<point x="467" y="343"/>
			<point x="450" y="271" type="curve" smooth="yes"/>
			<point x="391" y="5" type="line"/>
		</contour>
		<contour>
			<point x="358" y="224" type="line"/>
			<point x="688" y="239" type="line"/>
			<point x="689" y="284" type="line"/>
			<point x="359" y="284" type="line"/>
		</contour>
		<contour>
			<point x="626" y="41"/>
			<point x="658" y="-15"/>
			<point x="732" y="-15" type="curve" smooth="yes"/>
			<point x="816" y="-15"/>
			<point x="890" y="49"/>
			<point x="931" y="161" type="curve"/>
			<point x="902" y="179" type="line"/>
			<point x="871" y="127"/>
			<point x="846" y="97"/>
			<point x="809" y="97" type="curve" smooth="yes"/>
			<point x="778" y="97"/>
			<point x="757" y="117"/>
			<point x="758" y="178" type="curve" smooth="yes"/>
			<point x="760" y="276"/>
			<point x="794" y="405"/>
			<point x="872" y="472" type="curve"/>
			<point x="853" y="470" type="line"/>
			<point x="856" y="404" type="line" smooth="yes"/>
			<point x="859" y="347"/>
			<point x="880" y="322"/>
			<point x="914" y="322" type="curve" smooth="yes"/>
			<point x="946" y="322"/>
			<point x="966" y="338"/>
			<point x="977" y="372" type="curve"/>
			<point x="977" y="443"/>
			<point x="952" y="505"/>
			<point x="877" y="505" type="curve" smooth="yes"/>
			<point x="747" y="505"/>
			<point x="631" y="321"/>
			<point x="628" y="136" type="curve" smooth="yes"/>
		</contour>
	</outline>
	<anchor name="aboveLC" x="572" y="520"/>
</glyph>
<glyph name="em" format="2">
	<unicode hex="043C"/>
	<advance width="839"/>
	<outline>
		<contour>
			<point x="17" y="13"/>
			<point x="62" y="-16"/>
			<point x="106" y="-16" type="curve" smooth="yes"/>
			<point x="149" y="-16"/>
			<point x="182" y="10"/>
			<point x="204" y="69" type="curve" smooth="yes"/>
			<point x="220" y="112"/>
			<point x="239" y="163"/>
			<point x="257" y="213" type="curve" smooth="yes"/>
			<point x="278" y="272"/>
			<point x="298" y="330"/>
			<point x="318" y="389" type="curve"/>
			<point x="306" y="388" type="line"/>
			<point x="341" y="10" type="line"/>
			<point x="355" y="-1" type="line"/>
			<point x="412" y="10" type="line"/>
			<point x="676" y="446" type="line"/>
			<point x="641" y="446" type="line"/>
			<point x="595" y="168" type="line" smooth="yes"/>
			<point x="591" y="144"/>
			<point x="588" y="122"/>
			<point x="588" y="80" type="curve" smooth="yes"/>
			<point x="588" y="23"/>
			<point x="624" y="-16"/>
			<point x="672" y="-16" type="curve" smooth="yes"/>
			<point x="758" y="-16"/>
			<point x="822" y="53"/>
			<point x="859" y="121" type="curve"/>
			<point x="826" y="142" type="line"/>
			<point x="796" y="102"/>
			<point x="781" y="84"/>
			<point x="767" y="84" type="curve" smooth="yes"/>
			<point x="758" y="84"/>
			<point x="752" y="91"/>
			<point x="752" y="104" type="curve" smooth="yes"/>
			<point x="752" y="117"/>
			<point x="755" y="130"/>
			<point x="758" y="151" type="curve" smooth="yes"/>
			<point x="814" y="487" type="line"/>
			<point x="792" y="505" type="line"/>
			<point x="640" y="487" type="line"/>
			<point x="447" y="171" type="line"/>
			<point x="481" y="175" type="line"/>
			<point x="453" y="487" type="line"/>
			<point x="437" y="502" type="line"/>
			<point x="292" y="487" type="line"/>
			<point x="263" y="403"/>
			<point x="228" y="301"/>
			<point x="205" y="235" type="curve" smooth="yes"/>
			<point x="186" y="181"/>
			<point x="165" y="127"/>
			<point x="145" y="73" type="curve"/>
			<point x="160" y="51" type="line"/>
			<point x="217" y="107" type="line"/>
			<point x="190" y="129" type="line" smooth="yes"/>
			<point x="169" y="146"/>
			<point x="147" y="159"/>
			<point x="113" y="159" type="curve" smooth="yes"/>
			<point x="72" y="159"/>
			<point x="28" y="132"/>
			<point x="16" y="77" type="curve"/>
		</contour>
	</outline>
</glyph>
<glyph name="en" format="2">
	<unicode hex="043D"/>
	<advance width="609"/>
	<outline>
		<contour>
			<point x="57" y="-8" type="line"/>
			<point x="212" y="0" type="line"/>
			<point x="226" y="73"/>
			<point x="239" y="144"/>
			<point x="255" y="216" type="curve" smooth="yes"/>
			<point x="287" y="364" type="line"/>
			<point x="310" y="487" type="line"/>
			<point x="289" y="505" type="line"/>
			<point x="71" y="446" type="line"/>
			<point x="64" y="405" type="line"/>
			<point x="193" y="380" type="line"/>
			<point x="126" y="415" type="line"/>
			<point x="41" y="5" type="line"/>
		</contour>
		<contour>
			<point x="139" y="224" type="line"/>
			<point x="469" y="239" type="line"/>
			<point x="469" y="284" type="line"/>
			<point x="139" y="284" type="line"/>
		</contour>
		<contour>
			<point x="440" y="-16" type="curve" smooth="yes"/>
			<point x="527" y="-16"/>
			<point x="592" y="53"/>
			<point x="629" y="121" type="curve"/>
			<point x="596" y="142" type="line"/>
			<point x="566" y="102"/>
			<point x="549" y="84"/>
			<point x="535" y="84" type="curve" smooth="yes"/>
			<point x="526" y="84"/>
			<point x="520" y="91"/>
			<point x="520" y="104" type="curve" smooth="yes"/>
			<point x="520" y="114"/>
			<point x="522" y="125"/>
			<point x="526" y="141" type="curve" smooth="yes"/>
			<point x="605" y="487" type="line"/>
			<point x="583" y="505" type="line"/>
			<point x="422" y="454" type="line"/>
			<point x="414" y="409"/>
			<point x="407" y="366"/>
			<point x="397" y="323" type="curve" smooth="yes"/>
			<point x="358" y="153" type="line" smooth="yes"/>
			<point x="352" y="127"/>
			<point x="343" y="88"/>
			<point x="343" y="56" type="curve" smooth="yes"/>
			<point x="343" y="10"/>
			<point x="373" y="-16"/>
		</contour>
	</outline>
</glyph>
<glyph name="tse" format="2">
	<unicode hex="0446"/>
	<advance width="598"/>
	<outline>
		<contour>
			<point x="374" y="-231" type="line"/>
			<point x="478" y="-222"/>
			<point x="531" y="-175"/>
			<point x="535" y="-106" type="curve" smooth="yes"/>
			<point x="538" y="-59" type="line" smooth="yes"/>
			<point x="541" y="-15"/>
			<point x="565" y="26"/>
			<point x="618" y="121" type="curve"/>
			<point x="595" y="112" type="line"/>
			<point x="510" y="18" type="line"/>
			<point x="527" y="2" type="line"/>
			<point x="434" y="-62"/>
			<point x="423" y="-82"/>
			<point x="412" y="-132" type="curve" smooth="yes"/>
			<point x="408" y="-150" type="line" smooth="yes"/>
			<point x="403" y="-172"/>
			<point x="383" y="-186"/>
			<point x="359" y="-194" type="curve"/>
		</contour>
		<component base="u"/>
	</outline>
	<anchor name="aboveLC" x="368" y="520"/>
</glyph>
<glyph name="che" format="2">
	<unicode hex="0447"/>
	<advance width="592"/>
	<outline>
		<contour>
			<point x="186" y="170" type="curve" smooth="yes"/>
			<point x="255" y="170"/>
			<point x="368" y="222"/>
			<point x="463" y="270" type="curve"/>
			<point x="464" y="300" type="line"/>
			<point x="385" y="289"/>
			<point x="330" y="284"/>
			<point x="310" y="284" type="curve" smooth="yes"/>
			<point x="284" y="284"/>
			<point x="267" y="295"/>
			<point x="267" y="325" type="curve" smooth="yes"/>
			<point x="267" y="344"/>
			<point x="274" y="383"/>
			<point x="298" y="487" type="curve"/>
			<point x="277" y="505" type="line"/>
			<point x="61" y="436" type="line"/>
			<point x="54" y="395" type="line"/>
			<point x="185" y="380" type="line"/>
			<point x="118" y="415" type="line"/>
			<point x="97" y="311"/>
			<point x="92" y="284"/>
			<point x="92" y="259" type="curve" smooth="yes"/>
			<point x="92" y="204"/>
			<point x="135" y="170"/>
		</contour>
		<contour>
			<point x="336" y="91" type="curve" smooth="yes"/>
			<point x="336" y="23"/>
			<point x="372" y="-16"/>
			<point x="423" y="-16" type="curve" smooth="yes"/>
			<point x="510" y="-16"/>
			<point x="575" y="53"/>
			<point x="612" y="121" type="curve"/>
			<point x="579" y="142" type="line"/>
			<point x="549" y="102"/>
			<point x="532" y="84"/>
			<point x="518" y="84" type="curve" smooth="yes"/>
			<point x="509" y="84"/>
			<point x="503" y="91"/>
			<point x="503" y="104" type="curve" smooth="yes"/>
			<point x="503" y="114"/>
			<point x="505" y="125"/>
			<point x="509" y="141" type="curve" smooth="yes"/>
			<point x="588" y="487" type="line"/>
			<point x="566" y="505" type="line"/>
			<point x="405" y="454" type="line"/>
			<point x="397" y="409"/>
			<point x="389" y="366"/>
			<point x="380" y="323" type="curve" smooth="yes"/>
			<point x="346" y="165" type="line" smooth="yes"/>
			<point x="341" y="142"/>
			<point x="336" y="121"/>
		</contour>
	</outline>
</glyph>
<glyph name="sha" format="2">
	<unicode hex="0448"/>
	<advance width="840"/>
	<outline>
		<contour>
			<point x="152" y="-16" type="curve" smooth="yes"/>
			<point x="218" y="-16"/>
			<point x="292" y="29"/>
			<point x="354" y="114" type="curve"/>
			<point x="346" y="148" type="line"/>
			<point x="315" y="113"/>
			<point x="290" y="100"/>
			<point x="268" y="100" type="curve" smooth="yes"/>
			<point x="250" y="100"/>
			<point x="234" y="109"/>
			<point x="234" y="139" type="curve" smooth="yes"/>
			<point x="234" y="158"/>
			<point x="239" y="176"/>
			<point x="244" y="196" type="curve" smooth="yes"/>
			<point x="314" y="487" type="line"/>
			<point x="295" y="505" type="line"/>
			<point x="68" y="436" type="line"/>
			<point x="61" y="395" type="line"/>
			<point x="192" y="380" type="line"/>
			<point x="129" y="415" type="line"/>
			<point x="69" y="156" type="line" smooth="yes"/>
			<point x="62" y="125"/>
			<point x="58" y="98"/>
			<point x="58" y="73" type="curve" smooth="yes"/>
			<point x="58" y="18"/>
			<point x="101" y="-16"/>
		</contour>
		<contour>
			<point x="414" y="-16" type="curve" smooth="yes"/>
			<point x="480" y="-16"/>
			<point x="554" y="29"/>
			<point x="616" y="114" type="curve"/>
			<point x="608" y="148" type="line"/>
			<point x="577" y="113"/>
			<point x="552" y="100"/>
			<point x="530" y="100" type="curve" smooth="yes"/>
			<point x="512" y="100"/>
			<point x="496" y="109"/>
			<point x="496" y="139" type="curve" smooth="yes"/>
			<point x="496" y="158"/>
			<point x="501" y="176"/>
			<point x="506" y="196" type="curve" smooth="yes"/>
			<point x="574" y="487" type="line"/>
			<point x="552" y="505" type="line"/>
			<point x="391" y="454" type="line"/>
			<point x="383" y="409"/>
			<point x="375" y="366"/>
			<point x="366" y="323" type="curve" smooth="yes"/>
			<point x="331" y="156" type="line" smooth="yes"/>
			<point x="324" y="125"/>
			<point x="320" y="98"/>
			<point x="320" y="73" type="curve" smooth="yes"/>
			<point x="320" y="18"/>
			<point x="363" y="-16"/>
		</contour>
		<contour>
			<point x="671" y="-16" type="curve" smooth="yes"/>
			<point x="758" y="-16"/>
			<point x="823" y="53"/>
			<point x="860" y="121" type="curve"/>
			<point x="827" y="142" type="line"/>
			<point x="797" y="102"/>
			<point x="780" y="84"/>
			<point x="766" y="84" type="curve" smooth="yes"/>
			<point x="757" y="84"/>
			<point x="751" y="91"/>
			<point x="751" y="104" type="curve" smooth="yes"/>
			<point x="751" y="114"/>
			<point x="753" y="125"/>
			<point x="757" y="141" type="curve" smooth="yes"/>
			<point x="836" y="487" type="line"/>
			<point x="814" y="505" type="line"/>
			<point x="653" y="454" type="line"/>
			<point x="645" y="409"/>
			<point x="637" y="366"/>
			<point x="628" y="323" type="curve" smooth="yes"/>
			<point x="594" y="165" type="line" smooth="yes"/>
			<point x="589" y="142"/>
			<point x="584" y="121"/>
			<point x="584" y="91" type="curve" smooth="yes"/>
			<point x="584" y="23"/>
			<point x="620" y="-16"/>
		</contour>
	</outline>
</glyph>
<glyph name="hard" format="2">
	<unicode hex="044A"/>
	<advance width="627"/>
	<outline>
		<contour>
			<point x="150" y="43"/>
			<point x="202" y="-16"/>
			<point x="339" y="-16" type="curve" smooth="yes"/>
			<point x="508" y="-16"/>
			<point x="627" y="100"/>
			<point x="627" y="207" type="curve" smooth="yes"/>
			<point x="627" y="278"/>
			<point x="578" y="333"/>
			<point x="468" y="333" type="curve" smooth="yes"/>
			<point x="388" y="333"/>
			<point x="347" y="303"/>
			<point x="292" y="260" type="curve"/>
			<point x="312" y="226" type="line"/>
			<point x="348" y="258"/>
			<point x="382" y="268"/>
			<point x="409" y="268" type="curve" smooth="yes"/>
			<point x="438" y="268"/>
			<point x="459" y="243"/>
			<point x="459" y="197" type="curve" smooth="yes"/>
			<point x="459" y="104"/>
			<point x="408" y="45"/>
			<point x="366" y="45" type="curve" smooth="yes"/>
			<point x="332" y="45"/>
			<point x="316" y="76"/>
			<point x="316" y="139" type="curve" smooth="yes"/>
			<point x="316" y="172"/>
			<point x="320" y="214"/>
			<point x="332" y="256" type="curve"/>
			<point x="311" y="279" type="line"/>
			<point x="356" y="352"/>
			<point x="413" y="409"/>
			<point x="489" y="471" type="curve"/>
			<point x="461" y="503" type="line"/>
			<point x="283" y="370"/>
			<point x="150" y="272"/>
			<point x="150" y="132" type="curve" smooth="yes"/>
		</contour>
		<contour>
			<point x="88" y="239" type="line"/>
			<point x="132" y="418" type="line"/>
			<point x="68" y="362" type="line"/>
			<point x="151" y="364"/>
			<point x="233" y="364"/>
			<point x="314" y="362" type="curve"/>
			<point x="424" y="451" type="line"/>
			<point x="333" y="471"/>
			<point x="242" y="488"/>
			<point x="149" y="504" type="curve"/>
			<point x="52" y="426" type="line"/>
			<point x="35" y="247" type="line"/>
		</contour>
	</outline>
</glyph>
<glyph name="ecyr" format="2">
	<unicode hex="044D"/>
	<advance width="474"/>
	<outline>
		<contour>
			<point x="153" y="222" type="line"/>
			<point x="382" y="236" type="line"/>
			<point x="392" y="278" type="line"/>
			<point x="165" y="282" type="line"/>
		</contour>
		<contour>
			<point x="188" y="-16" type="curve" smooth="yes"/>
			<point x="327" y="-16"/>
			<point x="479" y="99"/>
			<point x="479" y="304" type="curve" smooth="yes"/>
			<point x="479" y="449"/>
			<point x="400" y="502"/>
			<point x="315" y="502" type="curve" smooth="yes"/>
			<point x="216" y="502"/>
			<point x="146" y="451"/>
			<point x="97" y="386" type="curve"/>
			<point x="125" y="361" type="line"/>
			<point x="164" y="398"/>
			<point x="196" y="411"/>
			<point x="235" y="411" type="curve" smooth="yes"/>
			<point x="288" y="411"/>
			<point x="326" y="377"/>
			<point x="326" y="285" type="curve" smooth="yes"/>
			<point x="326" y="114"/>
			<point x="258" y="40"/>
			<point x="178" y="40" type="curve" smooth="yes"/>
			<point x="154" y="40"/>
			<point x="135" y="44"/>
			<point x="99" y="52" type="curve"/>
			<point x="176" y="9" type="line"/>
			<point x="173" y="75" type="line" smooth="yes"/>
			<point x="171" y="139"/>
			<point x="137" y="172"/>
			<point x="98" y="172" type="curve" smooth="yes"/>
			<point x="61" y="172"/>
			<point x="40" y="152"/>
			<point x="31" y="122" type="curve"/>
			<point x="35" y="24"/>
			<point x="109" y="-16"/>
		</contour>
	</outline>
	<anchor name="aboveLC" x="325" y="520"/>
</glyph>
<glyph name="ya" format="2">
	<unicode hex="044F"/>
	<advance width="567"/>
	<outline>
		<contour>
			<point x="-26" y="0" type="line"/>
			<point x="-3" y="-9"/>
			<point x="45" y="-14"/>
			<point x="80" y="-14" type="curve" smooth="yes"/>
			<point x="151" y="-14"/>
			<point x="187" y="-1"/>
			<point x="209" y="47" type="curve" smooth="yes"/>
			<point x="262" y="163" type="line" smooth="yes"/>
			<point x="280" y="202"/>
			<point x="295" y="219"/>
			<point x="339" y="219" type="curve" smooth="yes"/>
			<point x="347" y="219"/>
			<point x="374" y="225"/>
			<point x="405" y="230" type="curve"/>
			<point x="415" y="261" type="line"/>
			<point x="386" y="257"/>
			<point x="360" y="255"/>
			<point x="332" y="255" type="curve" smooth="yes"/>
			<point x="290" y="255"/>
			<point x="258" y="275"/>
			<point x="258" y="329" type="curve" smooth="yes"/>
			<point x="258" y="406"/>
			<point x="317" y="445"/>
			<point x="372" y="445" type="curve" smooth="yes"/>
			<point x="388" y="445"/>
			<point x="404" y="443"/>
			<point x="420" y="439" type="curve"/>
			<point x="388" y="477" type="line"/>
			<point x="378" y="424"/>
			<point x="368" y="373"/>
			<point x="357" y="321" type="curve" smooth="yes"/>
			<point x="324" y="165" type="line" smooth="yes"/>
			<point x="319" y="142"/>
			<point x="312" y="111"/>
			<point x="312" y="78" type="curve" smooth="yes"/>
			<point x="312" y="20"/>
			<point x="343" y="-16"/>
			<point x="398" y="-16" type="curve" smooth="yes"/>
			<point x="485" y="-16"/>
			<point x="550" y="53"/>
			<point x="587" y="121" type="curve"/>
			<point x="554" y="142" type="line"/>
			<point x="524" y="102"/>
			<point x="508" y="84"/>
			<point x="494" y="84" type="curve" smooth="yes"/>
			<point x="485" y="84"/>
			<point x="479" y="91"/>
			<point x="479" y="104" type="curve" smooth="yes"/>
			<point x="479" y="114"/>
			<point x="481" y="125"/>
			<point x="485" y="141" type="curve" smooth="yes"/>
			<point x="565" y="486" type="line"/>
			<point x="544" y="503" type="line"/>
			<point x="485" y="472" type="line"/>
			<point x="435" y="492"/>
			<point x="398" y="499"/>
			<point x="335" y="499" type="curve" smooth="yes"/>
			<point x="195" y="499"/>
			<point x="95" y="420"/>
			<point x="95" y="342" type="curve" smooth="yes"/>
			<point x="95" y="281"/>
			<point x="150" y="234"/>
			<point x="285" y="234" type="curve"/>
			<point x="286" y="239" type="line"/>
			<point x="191" y="227"/>
			<point x="146" y="214"/>
			<point x="107" y="174" type="curve" smooth="yes"/>
			<point x="65" y="130"/>
			<point x="43" y="82"/>
			<point x="10" y="27" type="curve"/>
			<point x="74" y="47" type="line"/>
			<point x="-15" y="38" type="line"/>
		</contour>
	</outline>
	<anchor name="aboveLC" x="361" y="520"/>
</glyph>
<glyph name="lje" format="2">
	<unicode hex="0459"/>
	<advance width="799"/>
	<outline>
		<contour>
			<point x="12" y="12"/>
			<point x="57" y="-16"/>
			<point x="99" y="-16" type="curve" smooth="yes"/>
			<point x="146" y="-16"/>
			<point x="174" y="4"/>
			<point x="195" y="53" type="curve" smooth="yes"/>
			<point x="222" y="117"/>
			<point x="250" y="209"/>
			<point x="275" y="286" type="curve" smooth="yes"/>
			<point x="306" y="379"/>
			<point x="350" y="416"/>
			<point x="424" y="416" type="curve" smooth="yes"/>
			<point x="438" y="416"/>
			<point x="453" y="415"/>
			<point x="469" y="413" type="curve"/>
			<point x="410" y="477" type="line"/>
			<point x="382" y="352"/>
			<point x="347" y="198"/>
			<point x="347" y="132" type="curve" smooth="yes"/>
			<point x="347" y="43"/>
			<point x="403" y="-16"/>
			<point x="526" y="-16" type="curve" smooth="yes"/>
			<point x="698" y="-16"/>
			<point x="803" y="111"/>
			<point x="803" y="227" type="curve" smooth="yes"/>
			<point x="803" y="297"/>
			<point x="774" y="333"/>
			<point x="690" y="333" type="curve" smooth="yes"/>
			<point x="618" y="333"/>
			<point x="561" y="304"/>
			<point x="503" y="260" type="curve"/>
			<point x="523" y="226" type="line"/>
			<point x="559" y="258"/>
			<point x="584" y="268"/>
			<point x="610" y="268" type="curve" smooth="yes"/>
			<point x="625" y="268"/>
			<point x="638" y="255"/>
			<point x="638" y="223" type="curve" smooth="yes"/>
			<point x="638" y="131"/>
			<point x="596" y="44"/>
			<point x="552" y="44" type="curve" smooth="yes"/>
			<point x="528" y="44"/>
			<point x="507" y="65"/>
			<point x="507" y="111" type="curve" smooth="yes"/>
			<point x="507" y="162"/>
			<point x="518" y="196"/>
			<point x="534" y="250" type="curve"/>
			<point x="536" y="275" type="line"/>
			<point x="585" y="479" type="line"/>
			<point x="533" y="495"/>
			<point x="500" y="503"/>
			<point x="434" y="503" type="curve" smooth="yes"/>
			<point x="311" y="503"/>
			<point x="259" y="417"/>
			<point x="221" y="298" type="curve" smooth="yes"/>
			<point x="192" y="209"/>
			<point x="171" y="143"/>
			<point x="141" y="76" type="curve"/>
			<point x="161" y="51" type="line"/>
			<point x="211" y="113" type="line"/>
			<point x="189" y="129" type="line" smooth="yes"/>
			<point x="166" y="146"/>
			<point x="145" y="159"/>
			<point x="108" y="159" type="curve" smooth="yes"/>
			<point x="67" y="159"/>
			<point x="28" y="131"/>
			<point x="12" y="81" type="curve"/>
		</contour>
	</outline>
</glyph>
<glyph name="nje" format="2">
	<unicode hex="045A"/>
	<advance width="816"/>
	<outline>
		<contour>
			<point x="57" y="-8" type="line"/>
			<point x="212" y="0" type="line"/>
			<point x="226" y="73"/>
			<point x="239" y="144"/>
			<point x="255" y="216" type="curve" smooth="yes"/>
			<point x="287" y="364" type="line"/>
			<point x="310" y="487" type="line"/>
			<point x="289" y="505" type="line"/>
			<point x="71" y="446" type="line"/>
			<point x="64" y="405" type="line"/>
			<point x="193" y="380" type="line"/>
			<point x="126" y="415" type="line"/>
			<point x="41" y="5" type="line"/>
		</contour>
		<contour>
			<point x="139" y="224" type="line"/>
			<point x="469" y="239" type="line"/>
			<point x="469" y="284" type="line"/>
			<point x="139" y="284" type="line"/>
		</contour>
		<contour>
			<point x="364" y="43"/>
			<point x="420" y="-16"/>
			<point x="543" y="-16" type="curve" smooth="yes"/>
			<point x="715" y="-16"/>
			<point x="820" y="111"/>
			<point x="820" y="227" type="curve" smooth="yes"/>
			<point x="820" y="297"/>
			<point x="791" y="333"/>
			<point x="707" y="333" type="curve" smooth="yes"/>
			<point x="635" y="333"/>
			<point x="578" y="304"/>
			<point x="520" y="260" type="curve"/>
			<point x="540" y="226" type="line"/>
			<point x="576" y="258"/>
			<point x="601" y="268"/>
			<point x="627" y="268" type="curve" smooth="yes"/>
			<point x="642" y="268"/>
			<point x="655" y="255"/>
			<point x="655" y="223" type="curve" smooth="yes"/>
			<point x="655" y="131"/>
			<point x="613" y="44"/>
			<point x="565" y="44" type="curve" smooth="yes"/>
			<point x="536" y="44"/>
			<point x="524" y="62"/>
			<point x="524" y="121" type="curve" smooth="yes"/>
			<point x="524" y="177"/>
			<point x="541" y="219"/>
			<point x="555" y="266" type="curve"/>
			<point x="552" y="282" type="line"/>
			<point x="608" y="492" type="line"/>
			<point x="589" y="509" type="line"/>
			<point x="422" y="455" type="line"/>
			<point x="416" y="423"/>
			<point x="407" y="365"/>
			<point x="399" y="330" type="curve" smooth="yes"/>
			<point x="381" y="252"/>
			<point x="364" y="187"/>
			<point x="364" y="132" type="curve" smooth="yes"/>
		</contour>
	</outline>
</glyph>
<glyph name="dzhe" format="2">
	<unicode hex="045F"/>
	<advance width="599"/>
	<outline>
		<contour>
			<point x="130" y="-231" type="line"/>
			<point x="246" y="-221"/>
			<point x="302" y="-183"/>
			<point x="311" y="-109" type="curve" smooth="yes"/>
			<point x="316" y="-66" type="line" smooth="yes"/>
			<point x="320" y="-34"/>
			<point x="328" y="-17"/>
			<point x="337" y="0" type="curve"/>
			<point x="313" y="18" type="line"/>
			<point x="248" y="-26"/>
			<point x="210" y="-59"/>
			<point x="195" y="-109" type="curve" smooth="yes"/>
			<point x="188" y="-132" type="line" smooth="yes"/>
			<point x="179" y="-166"/>
			<point x="149" y="-187"/>
			<point x="119" y="-198" type="curve"/>
		</contour>
		<component base="icyr"/>
	</outline>
</glyph>
<glyph name="yat" format="2">
	<unicode hex="0463"/>
	<advance width="820"/>
	<outline>
		<contour>
			<point x="57" y="-8" type="line"/>
			<point x="212" y="0" type="line"/>
			<point x="226" y="73"/>
			<point x="239" y="144"/>
			<point x="255" y="216" type="curve" smooth="yes"/>
			<point x="287" y="364" type="line"/>
			<point x="310" y="487" type="line"/>
			<point x="289" y="505" type="line"/>
			<point x="69" y="436" type="line"/>
			<point x="62" y="395" type="line"/>
			<point x="193" y="380" type="line"/>
			<point x="126" y="415" type="line"/>
			<point x="41" y="5" type="line"/>
		</contour>
		<contour>
			<point x="362" y="46"/>
			<point x="426" y="-16"/>
			<point x="556" y="-16" type="curve" smooth="yes"/>
			<point x="716" y="-16"/>
			<point x="830" y="100"/>
			<point x="830" y="207" type="curve" smooth="yes"/>
			<point x="830" y="278"/>
			<point x="782" y="333"/>
			<point x="675" y="333" type="curve" smooth="yes"/>
			<point x="595" y="333"/>
			<point x="554" y="302"/>
			<point x="499" y="260" type="curve"/>
			<point x="519" y="226" type="line"/>
			<point x="557" y="259"/>
			<point x="589" y="273"/>
			<point x="616" y="273" type="curve" smooth="yes"/>
			<point x="645" y="273"/>
			<point x="666" y="246"/>
			<point x="666" y="197" type="curve" smooth="yes"/>
			<point x="666" y="104"/>
			<point x="615" y="42"/>
			<point x="566" y="45" type="curve" smooth="yes"/>
			<point x="537" y="47"/>
			<point x="520" y="69"/>
			<point x="520" y="111" type="curve" smooth="yes"/>
			<point x="520" y="162"/>
			<point x="534" y="212"/>
			<point x="550" y="266" type="curve"/>
			<point x="547" y="282" type="line"/>
			<point x="557" y="318" type="line" smooth="yes"/>
			<point x="566" y="349"/>
			<point x="576" y="389"/>
			<point x="576" y="414" type="curve" smooth="yes"/>
			<point x="576" y="474"/>
			<point x="539" y="503"/>
			<point x="495" y="503" type="curve" smooth="yes"/>
			<point x="423" y="503"/>
			<point x="345" y="457"/>
			<point x="266" y="370" type="curve"/>
			<point x="268" y="323" type="line"/>
			<point x="309" y="368"/>
			<point x="347" y="387"/>
			<point x="376" y="387" type="curve" smooth="yes"/>
			<point x="389" y="387"/>
			<point x="399" y="378"/>
			<point x="399" y="362" type="curve" smooth="yes"/>
			<point x="399" y="347"/>
			<point x="395" y="322"/>
			<point x="387" y="292" type="curve" smooth="yes"/>
			<point x="374" y="239"/>
			<point x="362" y="182"/>
			<point x="362" y="152" type="curve" smooth="yes"/>
		</contour>
	</outline>
</glyph>
<glyph name="fita" format="2">
	<unicode hex="0473"/>
	<advance width="551"/>
	<outline>
		<contour>
			<point x="100" y="234" type="line"/>
			<point x="490" y="234" type="line"/>
			<point x="490" y="289" type="line"/>
			<point x="100" y="289" type="line"/>
		</contour>
		<component base="ocyr"/>
	</outline>
	<anchor name="aboveLC" x="353" y="520"/>
</glyph>
<glyph name="Izhitsa" format="2">
	<unicode hex="0474"/>
	<advance width="602"/>
	<outline>
		<contour>
			<point x="60" y="593" type="line"/>
			<point x="199" y="578" type="line"/>
			<point x="240" y="578" type="line"/>
			<point x="384" y="598" type="line"/>
			<point x="395" y="652" type="line"/>
			<point x="72" y="652" type="line"/>
		</contour>
		<contour>
			<point x="211" y="0" type="line"/>
			<point x="321" y="0" type="line"/>
			<point x="514" y="377" type="line" smooth="yes"/>
			<point x="569" y="485"/>
			<point x="594" y="535"/>
			<point x="638" y="595" type="curve"/>
			<point x="568" y="524" type="line"/>
			<point x="594" y="508"/>
			<point x="626" y="503"/>
			<point x="644" y="503" type="curve" smooth="yes"/>
			<point x="706" y="503"/>
			<point x="747" y="534"/>
			<point x="762" y="591" type="curve"/>
			<point x="762" y="644"/>
			<point x="739" y="672"/>
			<point x="688" y="672" type="curve" smooth="yes"/>
			<point x="620" y="672"/>
			<point x="574" y="631"/>
			<point x="521" y="522" type="curve" smooth="yes"/>
			<point x="335" y="140" type="line"/>
			<point x="367" y="148" type="line"/>
			<point x="293" y="652" type="line"/>
			<point x="100" y="652" type="line"/>
		</contour>
	</outline>
</glyph>
<glyph name="izhitsa" format="2">
	<unicode hex="0475"/>
	<advance width="600"/>
	<outline>
		<contour>
			<point x="143" y="237"/>
			<point x="159" y="119"/>
			<point x="176" y="0" type="curve"/>
			<point x="188" y="-10" type="line"/>
			<point x="282" y="0" type="line"/>
			<point x="374" y="166"/>
			<point x="443" y="276"/>
			<point x="504" y="357" type="curve"/>
			<point x="414" y="272" type="line"/>
			<point x="572" y="340" type="line" smooth="yes"/>
			<point x="624" y="362"/>
			<point x="641" y="396"/>
			<point x="641" y="431" type="curve" smooth="yes"/>
			<point x="641" y="468"/>
			<point x="619" y="496"/>
			<point x="584" y="503" type="curve"/>
			<point x="536" y="488"/>
			<point x="499" y="450"/>
			<point x="449" y="382" type="curve" smooth="yes"/>
			<point x="396" y="309"/>
			<point x="338" y="211"/>
			<point x="289" y="116" type="curve"/>
			<point x="321" y="116" type="line"/>
			<point x="312" y="210"/>
			<point x="303" y="305"/>
			<point x="294" y="399" type="curve" smooth="yes"/>
			<point x="287" y="469"/>
			<point x="262" y="503"/>
			<point x="206" y="503" type="curve" smooth="yes"/>
			<point x="154" y="503"/>
			<point x="104" y="466"/>
			<point x="43" y="391" type="curve"/>
			<point x="66" y="361" type="line"/>
			<point x="80" y="374"/>
			<point x="95" y="383"/>
			<point x="104" y="383" type="curve" smooth="yes"/>
			<point x="115" y="383"/>
			<point x="123" y="380"/>
			<point x="126" y="356" type="curve" smooth="yes"/>
		</contour>
	</outline>
</glyph>
